<svg xmlns="http://www.w3.org/2000/svg" xmlns:xlink="http://www.w3.org/1999/xlink" width="106" height="106" viewBox="0 0 106 106">
  <defs>
    <filter id="Trazado_982547" x="0" y="0" width="106" height="106" filterUnits="userSpaceOnUse">
      <feOffset dy="3" input="SourceAlpha"/>
      <feGaussianBlur stdDeviation="3" result="blur"/>
      <feFlood flood-opacity="0.161"/>
      <feComposite operator="in" in2="blur"/>
      <feComposite in="SourceGraphic"/>
    </filter>
  </defs>
  <g id="Grupo_1231828" data-name="Grupo 1231828" transform="translate(-171 -764)">
    <g id="Grupo_1174813" data-name="Grupo 1174813" transform="translate(0 -607)">
      <g id="Grupo_1173169" data-name="Grupo 1173169" transform="translate(0 -2340)">
        <g id="Grupo_1172017" data-name="Grupo 1172017" transform="translate(0 2654)">
          <g id="Grupo_1167337" data-name="Grupo 1167337" transform="translate(180 1063)">
            <g id="Grupo_1166720" data-name="Grupo 1166720" transform="translate(0)">
              <g id="Grupo_1164305" data-name="Grupo 1164305">
                <g id="Grupo_1163948" data-name="Grupo 1163948">
                  <g id="Grupo_1158168" data-name="Grupo 1158168">
                    <g id="Grupo_1152576" data-name="Grupo 1152576">
                      <g id="Grupo_1148633" data-name="Grupo 1148633">
                        <g id="Grupo_1148525" data-name="Grupo 1148525">
                          <g transform="matrix(1, 0, 0, 1, -9, -6)" filter="url(#Trazado_982547)">
                            <g id="Trazado_982547-2" data-name="Trazado 982547" transform="translate(9 6)" fill="#f6ecfe">
                              <path d="M 44 86.5 C 38.26187515258789 86.5 32.69618606567383 85.37651062011719 27.45755004882812 83.16075897216797 C 22.3968505859375 81.020263671875 17.85157585144043 77.95565032958984 13.94796276092529 74.05204010009766 C 10.04434967041016 70.1484375 6.979737281799316 65.6031494140625 4.839250087738037 60.54246139526367 C 2.62348747253418 55.30381393432617 1.5 49.73812484741211 1.5 44 C 1.5 38.26187515258789 2.62348747253418 32.69618606567383 4.839250087738037 27.45755004882812 C 6.979737281799316 22.3968505859375 10.04434967041016 17.85157585144043 13.94796276092529 13.94796276092529 C 17.85157585144043 10.04434967041016 22.3968505859375 6.979737281799316 27.45755004882812 4.839250087738037 C 32.69618606567383 2.62348747253418 38.26187515258789 1.5 44 1.5 C 49.73812484741211 1.5 55.30381393432617 2.62348747253418 60.54246139526367 4.839250087738037 C 65.6031494140625 6.979737281799316 70.1484375 10.04434967041016 74.05204010009766 13.94796276092529 C 77.95565032958984 17.85157585144043 81.020263671875 22.3968505859375 83.16075897216797 27.45755004882812 C 85.37651062011719 32.69618606567383 86.5 38.26187515258789 86.5 44 C 86.5 49.73812484741211 85.37651062011719 55.30381393432617 83.16075897216797 60.54246139526367 C 81.020263671875 65.6031494140625 77.95565032958984 70.1484375 74.05204010009766 74.05204010009766 C 70.1484375 77.95565032958984 65.6031494140625 81.020263671875 60.54246139526367 83.16075897216797 C 55.30381393432617 85.37651062011719 49.73812484741211 86.5 44 86.5 Z" stroke="none"/>
                              <path d="M 44 3 C 38.46371459960938 3 33.09462738037109 4.083610534667969 28.0418701171875 6.220756530761719 C 23.15997314453125 8.285614013671875 18.77495574951172 11.24228668212891 15.00862884521484 15.00862884521484 C 11.24228668212891 18.77495574951172 8.285614013671875 23.15997314453125 6.220756530761719 28.0418701171875 C 4.083610534667969 33.09462738037109 3 38.46371459960938 3 44 C 3 49.53628540039062 4.083610534667969 54.9053840637207 6.220756530761719 59.9581298828125 C 8.285614013671875 64.84002685546875 11.24228668212891 69.22504425048828 15.00862884521484 72.99138641357422 C 18.77495574951172 76.75771331787109 23.15997314453125 79.71438598632812 28.0418701171875 81.77925872802734 C 33.09462738037109 83.9163818359375 38.46371459960938 85 44 85 C 49.53628540039062 85 54.9053840637207 83.9163818359375 59.95814514160156 81.77925872802734 C 64.84002685546875 79.71438598632812 69.22504425048828 76.75771331787109 72.99138641357422 72.99138641357422 C 76.75771331787109 69.22504425048828 79.71438598632812 64.84002685546875 81.77925872802734 59.95814514160156 C 83.9163818359375 54.9053840637207 85 49.53628540039062 85 44 C 85 38.46371459960938 83.9163818359375 33.09462738037109 81.77925872802734 28.0418701171875 C 79.71438598632812 23.15997314453125 76.75771331787109 18.77495574951172 72.99138641357422 15.00862884521484 C 69.22504425048828 11.24228668212891 64.84002685546875 8.285614013671875 59.9581298828125 6.220756530761719 C 54.9053840637207 4.083610534667969 49.53628540039062 3 44 3 M 44 0 C 68.30054473876953 0 88 19.69947052001953 88 44 C 88 68.30054473876953 68.30054473876953 88 44 88 C 19.69947052001953 88 0 68.30054473876953 0 44 C 0 19.69947052001953 19.69947052001953 0 44 0 Z" stroke="none" fill="#aa52f9"/>
                            </g>
                          </g>
                        </g>
                      </g>
                    </g>
                  </g>
                </g>
              </g>
            </g>
          </g>
        </g>
      </g>
    </g>
    <g id="ingeniero-de-software_4_" data-name="ingeniero-de-software (4)" transform="translate(197 768.933)">
      <g id="Grupo_1231827" data-name="Grupo 1231827" transform="translate(0 13.87)">
        <g id="Grupo_1231793" data-name="Grupo 1231793" transform="translate(9.705 0.871)">
          <path id="Trazado_1219969" data-name="Trazado 1219969" d="M102.813,27.339c-3.9,1.022-5.681,4.079-4.962,8.5l.706,4.343h25.906l.63-4.343c1.9-13.136-18.63-17.42-22.281-8.5Z" transform="translate(-97.695 -22.639)" fill="#554e56" fill-rule="evenodd"/>
        </g>
        <g id="Grupo_1231794" data-name="Grupo 1231794" transform="translate(6.489 18.419)">
          <path id="Trazado_1219970" data-name="Trazado 1219970" d="M68.78,199.286c-5.194,0-4.308,7.331,1.161,6.921a6.968,6.968,0,0,0-.537-6.921Z" transform="translate(-65.325 -199.286)" fill="#f6a96c" fill-rule="evenodd"/>
        </g>
        <g id="Grupo_1231795" data-name="Grupo 1231795" transform="translate(34.719 18.419)">
          <path id="Trazado_1219971" data-name="Trazado 1219971" d="M351.254,199.286c-2,2.243-2.438,4.6-.537,6.921,5.469.41,6.355-6.921,1.161-6.921Z" transform="translate(-349.499 -199.286)" fill="#f6a96c" fill-rule="evenodd"/>
        </g>
        <g id="Grupo_1231796" data-name="Grupo 1231796" transform="translate(18.063 0.871)">
          <path id="Trazado_1219972" data-name="Trazado 1219972" d="M181.836,23.851c6.885-.5,15.515,4.079,14.756,12.511-.02.215-.046.437-.076.658l-.458,3.162h4.189l.63-4.343c1.569-10.847-12.152-15.657-19.041-11.988Z" transform="translate(-181.836 -22.634)" fill="#433f43" fill-rule="evenodd"/>
        </g>
        <g id="Grupo_1231797" data-name="Grupo 1231797" transform="translate(10.568 14.429)">
          <path id="Trazado_1219973" data-name="Trazado 1219973" d="M119.3,159.125l-7.18.013c-3.151,0-3.821.4-5.734,3.976v3.92a9.376,9.376,0,0,0,.537,3,14.556,14.556,0,0,0,2.066,3.877l10.152,2.723,10.547-2.723a14.557,14.557,0,0,0,2.066-3.877,9.376,9.376,0,0,0,.537-3v-3.92c-1.914-3.579-2.663-3.973-5.811-3.976Z" transform="translate(-106.381 -159.125)" fill="#fed2a4" fill-rule="evenodd"/>
        </g>
        <g id="Grupo_1231798" data-name="Grupo 1231798" transform="translate(28.109 14.439)">
          <path id="Trazado_1219974" data-name="Trazado 1219974" d="M282.965,159.225c6.255.017,6.849,6.14,5.23,10.9-.328.963-.8,2.59-1.38,3.88-.089.2-.182.387-.275.566l2-.516.189-.05a14.556,14.556,0,0,0,2.066-3.877,9.375,9.375,0,0,0,.537-3V163.2c-1.914-3.579-2.663-3.973-5.811-3.976Z" transform="translate(-282.965 -159.225)" fill="#ffbd86" fill-rule="evenodd"/>
        </g>
        <g id="Grupo_1231799" data-name="Grupo 1231799" transform="translate(8.834 0)">
          <path id="Trazado_1219975" data-name="Trazado 1219975" d="M116.569,33.159a.87.87,0,0,1-.767-.46c-1.826-3.416-2.329-3.514-5.044-3.516l-7.181-.013-7.177.013c-2.741,0-3.16.133-4.969,3.516a.87.87,0,0,1-1.626-.271L89.1,28.085h0c-.769-4.732,1.119-8.123,5.19-9.37A8.338,8.338,0,0,1,99.8,14.372a15.489,15.489,0,0,1,8.19.1,15.12,15.12,0,0,1,7.588,4.636,11.071,11.071,0,0,1,2.485,8.959l-.63,4.344a.87.87,0,0,1-.711.732A.859.859,0,0,1,116.569,33.159ZM90.815,27.806l.32,1.967c1.337-1.952,2.5-2.327,5.261-2.33l7.18-.013,7.184.013c2.752,0,3.968.4,5.3,2.292l.278-1.914c.952-6.579-4.15-10.4-8.809-11.667-4.615-1.259-10.153-.42-11.806,3.616a.87.87,0,0,1-.585.512c-4.4,1.152-4.778,4.728-4.324,7.524Z" transform="translate(-88.929 -13.87)"/>
        </g>
        <g id="Grupo_1231800" data-name="Grupo 1231800" transform="translate(20.536 19.858)">
          <path id="Trazado_1219976" data-name="Trazado 1219976" d="M207.6,216.033a.87.87,0,0,1-.378-1.654,5.431,5.431,0,0,1,4.983,0,.87.87,0,1,1-.755,1.568,3.7,3.7,0,0,0-3.474,0A.866.866,0,0,1,207.6,216.033Z" transform="translate(-206.731 -213.773)"/>
        </g>
        <g id="Grupo_1231801" data-name="Grupo 1231801" transform="translate(35.067 17.549)">
          <path id="Trazado_1219977" data-name="Trazado 1219977" d="M354.3,199.2q-.246,0-.5-.019a.87.87,0,0,1,.13-1.735,3.276,3.276,0,0,0,3.214-1.4,2.645,2.645,0,0,0,.2-2.652,2.438,2.438,0,0,0-2.318-1.134h-.624a.87.87,0,1,1,0-1.74h.624a4.123,4.123,0,0,1,3.846,2.042,4.4,4.4,0,0,1-.266,4.428A4.952,4.952,0,0,1,354.3,199.2Z" transform="translate(-353.002 -190.528)"/>
        </g>
        <g id="Grupo_1231802" data-name="Grupo 1231802" transform="translate(5.623 17.549)">
          <path id="Trazado_1219978" data-name="Trazado 1219978" d="M61.656,199.2A4.95,4.95,0,0,1,57.349,197a4.4,4.4,0,0,1-.266-4.429,4.122,4.122,0,0,1,3.844-2.042h.624a.87.87,0,0,1,0,1.74h-.624a2.436,2.436,0,0,0-2.316,1.134,2.646,2.646,0,0,0,.2,2.653,3.275,3.275,0,0,0,3.213,1.4.87.87,0,1,1,.13,1.735Q61.9,199.2,61.656,199.2Z" transform="translate(-56.607 -190.528)"/>
        </g>
        <g id="Grupo_1231803" data-name="Grupo 1231803" transform="translate(9.698 17.549)">
          <path id="Trazado_1219979" data-name="Trazado 1219979" d="M121.8,203.066a.87.87,0,0,1-.7-1.385,11.372,11.372,0,0,0,2.435-6.363V191.4a.87.87,0,1,1,1.74,0v3.92a12.934,12.934,0,0,1-2.772,7.392A.869.869,0,0,1,121.8,203.066Zm-20.7,0a.868.868,0,0,1-.7-.355,12.936,12.936,0,0,1-2.772-7.392V191.4a.87.87,0,1,1,1.74,0v3.92a11.373,11.373,0,0,0,2.435,6.363.87.87,0,0,1-.7,1.385Z" transform="translate(-97.624 -190.529)"/>
        </g>
        <g id="Grupo_1231804" data-name="Grupo 1231804" transform="translate(25.635 18.419)">
          <path id="Trazado_1219980" data-name="Trazado 1219980" d="M259.932,199.286a1.876,1.876,0,0,0-1.874,1.869v2.034a1.876,1.876,0,0,0,1.874,1.869h1.725a1.876,1.876,0,0,0,1.874-1.869v-2.034a1.876,1.876,0,0,0-1.874-1.869Z" transform="translate(-258.058 -199.286)" fill="#99e6fc" fill-rule="evenodd"/>
        </g>
        <g id="Grupo_1231805" data-name="Grupo 1231805" transform="translate(15.934 18.419)">
          <path id="Trazado_1219981" data-name="Trazado 1219981" d="M162.275,199.286a1.876,1.876,0,0,0-1.874,1.869v2.034a1.876,1.876,0,0,0,1.874,1.869H164a1.876,1.876,0,0,0,1.874-1.869v-2.034A1.876,1.876,0,0,0,164,199.286Z" transform="translate(-160.401 -199.286)" fill="#99e6fc" fill-rule="evenodd"/>
        </g>
        <g id="Grupo_1231806" data-name="Grupo 1231806" transform="translate(0.87 40.196)">
          <path id="Trazado_1219982" data-name="Trazado 1219982" d="M14.08,419.372c-4.454,1.565-5.323,5.051-5.323,8.68v5.329a.693.693,0,0,0,.693.688h7.23l3.453-6.8-3.582-8.763Z" transform="translate(-8.757 -418.505)" fill="#99e6fc" fill-rule="evenodd"/>
        </g>
        <g id="Grupo_1231807" data-name="Grupo 1231807" transform="translate(34.282 40.196)">
          <path id="Trazado_1219983" data-name="Trazado 1219983" d="M349.2,418.505l-4.1,8.995,3.97,6.57H356.3a.693.693,0,0,0,.693-.688v-5.329c0-3.629-.869-7.116-5.323-8.68Z" transform="translate(-345.099 -418.505)" fill="#99e6fc" fill-rule="evenodd"/>
        </g>
        <g id="Grupo_1231808" data-name="Grupo 1231808" transform="translate(8.664 29.216)">
          <path id="Trazado_1219984" data-name="Trazado 1219984" d="M112.423,307.979H88.975a1.764,1.764,0,0,0-1.758,1.757v20.02h29.714v-20.02a1.763,1.763,0,0,0-1.758-1.757Z" transform="translate(-87.217 -307.979)" fill="#7a6d79" fill-rule="evenodd"/>
        </g>
        <g id="Grupo_1231809" data-name="Grupo 1231809" transform="translate(6.18 50.993)">
          <path id="Trazado_1219985" data-name="Trazado 1219985" d="M94.408,527.2H63.059a.852.852,0,0,0-.849.847v1.313a2.617,2.617,0,0,0,2.613,2.607H94.282a2.617,2.617,0,0,0,2.614-2.607v-1.313a.853.853,0,0,0-.852-.847Z" transform="translate(-62.21 -527.198)" fill="#554e56" fill-rule="evenodd"/>
        </g>
        <g id="Grupo_1231810" data-name="Grupo 1231810" transform="translate(33.27 29.217)">
          <path id="Trazado_1219986" data-name="Trazado 1219986" d="M336.673,318.96v10.8h3.35v-20.02a1.763,1.763,0,0,0-1.758-1.757h-3.35a1.764,1.764,0,0,1,1.758,1.757v9.223Z" transform="translate(-334.915 -307.981)" fill="#685e68" fill-rule="evenodd"/>
        </g>
        <g id="Grupo_1231811" data-name="Grupo 1231811" transform="translate(34.902 50.993)">
          <path id="Trazado_1219987" data-name="Trazado 1219987" d="M354.818,527.2h-1.711a.852.852,0,0,1,.849.847v1.313a2.617,2.617,0,0,1-2.613,2.607h3.35a2.617,2.617,0,0,0,2.613-2.607v-1.313a.853.853,0,0,0-.852-.847Z" transform="translate(-351.342 -527.198)" fill="#433f43" fill-rule="evenodd"/>
        </g>
        <g id="Grupo_1231812" data-name="Grupo 1231812" transform="translate(38.378 40.196)">
          <path id="Trazado_1219988" data-name="Trazado 1219988" d="M386.332,418.505v2.7c3.751,1.687,4.975,3.073,4.975,6.074v6.791h2.126a.693.693,0,0,0,.693-.688v-5.329c0-3.629-.869-7.116-5.323-8.68Z" transform="translate(-386.332 -418.505)" fill="#62dbfb" fill-rule="evenodd"/>
        </g>
        <g id="Grupo_1231813" data-name="Grupo 1231813" transform="translate(16.31 32.578)">
          <path id="Trazado_1219989" data-name="Trazado 1219989" d="M169.633,343.4a6.187,6.187,0,0,0-2.521,1.456l-.886-.513a.57.57,0,0,0-.776.208l-1.194,2.064a.564.564,0,0,0,.209.771l.882.509a6.322,6.322,0,0,0,0,2.9l-.882.509a.563.563,0,0,0-.209.771l1.194,2.064a.571.571,0,0,0,.776.205l.886-.509a6.179,6.179,0,0,0,2.521,1.452v1.019a.565.565,0,0,0,.564.566h2.391a.565.565,0,0,0,.564-.566v-1.019a6.181,6.181,0,0,0,2.521-1.452l.889.509a.569.569,0,0,0,.773-.205l1.194-2.064a.563.563,0,0,0-.209-.771l-.882-.509a6.322,6.322,0,0,0,0-2.9l.882-.509a.564.564,0,0,0,.209-.771l-1.194-2.064a.567.567,0,0,0-.773-.208l-.889.513a6.187,6.187,0,0,0-2.521-1.456v-1.019a.563.563,0,0,0-.564-.562H170.2a.563.563,0,0,0-.564.562V343.4Zm1.761,3.272a2.676,2.676,0,1,1-2.686,2.676,2.681,2.681,0,0,1,2.686-2.676Z" transform="translate(-164.181 -341.815)" fill="#e5e1e5" fill-rule="evenodd"/>
        </g>
        <g id="Grupo_1231814" data-name="Grupo 1231814" transform="translate(19.966 36.56)">
          <path id="Trazado_1219990" data-name="Trazado 1219990" d="M204.546,389a3.546,3.546,0,1,1,3.553-3.546A3.555,3.555,0,0,1,204.546,389Zm0-5.352a1.806,1.806,0,1,0,1.813,1.806A1.813,1.813,0,0,0,204.546,383.648Z" transform="translate(-200.99 -381.908)"/>
        </g>
        <g id="Grupo_1231815" data-name="Grupo 1231815" transform="translate(15.439 31.708)">
          <path id="Trazado_1219991" data-name="Trazado 1219991" d="M164.693,349.855H162.3a1.436,1.436,0,0,1-1.434-1.436v-.4a7.108,7.108,0,0,1-1.752-1.009l-.351.2a1.444,1.444,0,0,1-1.962-.522l-1.2-2.066a1.433,1.433,0,0,1,.53-1.961l.346-.2a7.152,7.152,0,0,1,0-2.013l-.349-.2a1.433,1.433,0,0,1-.526-1.962l1.193-2.062a1.44,1.44,0,0,1,1.961-.528l.354.205a7.118,7.118,0,0,1,1.75-1.011v-.4a1.435,1.435,0,0,1,1.434-1.432h2.391a1.435,1.435,0,0,1,1.434,1.432v.4a7.115,7.115,0,0,1,1.751,1.012l.354-.2a1.437,1.437,0,0,1,1.962.528l1.193,2.062a1.433,1.433,0,0,1-.53,1.961l-.346.2a7.158,7.158,0,0,1,0,2.013l.349.2a1.433,1.433,0,0,1,.526,1.961l-1.193,2.062a1.439,1.439,0,0,1-1.962.522l-.352-.2a7.108,7.108,0,0,1-1.752,1.01v.4A1.436,1.436,0,0,1,164.693,349.855Zm-2.085-1.74h1.779V347.4a.87.87,0,0,1,.625-.835,5.342,5.342,0,0,0,2.166-1.248.869.869,0,0,1,1.032-.124l.628.36.888-1.535-.619-.358a.87.87,0,0,1-.412-.952,5.452,5.452,0,0,0,0-2.507.87.87,0,0,1,.412-.952l.619-.358-.889-1.536-.625.361a.87.87,0,0,1-1.034-.123,5.346,5.346,0,0,0-2.166-1.252.87.87,0,0,1-.625-.835V334.8h-1.779v.711a.87.87,0,0,1-.625.835,5.344,5.344,0,0,0-2.166,1.252.87.87,0,0,1-1.035.122l-.623-.361-.889,1.538.619.358a.87.87,0,0,1,.412.952,5.45,5.45,0,0,0,0,2.507.87.87,0,0,1-.412.952l-.619.357.888,1.536.627-.36a.87.87,0,0,1,1.033.124,5.341,5.341,0,0,0,2.166,1.248.87.87,0,0,1,.625.835v.715ZM169.1,345.7h0Zm.894-1.53h0Zm-12.983,0h0Zm12.873-.417h0Zm-12.767,0h0Zm12.767-4.591h0Zm-12.765,0h0Zm12.874-.417h0Zm-12.987,0h0Zm12.1-1.535h0Zm-.416-.109h0Zm-10.376,0h0Z" transform="translate(-155.415 -333.057)"/>
        </g>
        <g id="Grupo_1231816" data-name="Grupo 1231816" transform="translate(7.794 28.346)">
          <path id="Trazado_1219992" data-name="Trazado 1219992" d="M109.043,322.739H79.329a.87.87,0,0,1-.87-.87v-20.02a2.63,2.63,0,0,1,2.628-2.626h10.64a.87.87,0,0,1,0,1.74H81.087a.9.9,0,0,0-.888.887V321h27.974v-19.15a.888.888,0,0,0-.888-.887H95.779a.87.87,0,0,1,0-1.74h11.505a2.63,2.63,0,0,1,2.628,2.626v20.02A.87.87,0,0,1,109.043,322.739Z" transform="translate(-78.459 -299.222)"/>
        </g>
        <g id="Grupo_1231817" data-name="Grupo 1231817" transform="translate(5.31 50.124)">
          <path id="Trazado_1219993" data-name="Trazado 1219993" d="M86.395,524.951a.87.87,0,1,1,0-1.74,1.742,1.742,0,0,0,1.744-1.737v-1.29H55.193v1.29a1.742,1.742,0,0,0,1.744,1.737.87.87,0,1,1,0,1.74,3.484,3.484,0,0,1-3.483-3.476v-1.313a1.72,1.72,0,0,1,1.719-1.717H88.156a1.721,1.721,0,0,1,1.722,1.717v1.313A3.484,3.484,0,0,1,86.395,524.951Z" transform="translate(-53.453 -518.444)"/>
        </g>
        <g id="Grupo_1231818" data-name="Grupo 1231818" transform="translate(15.064 17.549)">
          <path id="Trazado_1219994" data-name="Trazado 1219994" d="M156.112,198.041h-1.725a2.745,2.745,0,0,1-2.744-2.739v-2.034a2.745,2.745,0,0,1,2.744-2.739h1.725a2.745,2.745,0,0,1,2.744,2.739V195.3A2.744,2.744,0,0,1,156.112,198.041Zm-1.725-5.773a1,1,0,0,0-1,1V195.3a1,1,0,0,0,1,1h1.725a1,1,0,0,0,1-1v-2.034a1,1,0,0,0-1-1Z" transform="translate(-151.644 -190.528)"/>
        </g>
        <g id="Grupo_1231819" data-name="Grupo 1231819" transform="translate(24.765 17.549)">
          <path id="Trazado_1219995" data-name="Trazado 1219995" d="M253.769,198.041h-1.725A2.745,2.745,0,0,1,249.3,195.3v-2.034a2.745,2.745,0,0,1,2.744-2.739h1.725a2.745,2.745,0,0,1,2.744,2.739V195.3A2.744,2.744,0,0,1,253.769,198.041Zm-1.725-5.773a1,1,0,0,0-1,1V195.3a1,1,0,0,0,1,1h1.725a1,1,0,0,0,1-1v-2.034a1,1,0,0,0-1-1Z" transform="translate(-249.301 -190.528)"/>
        </g>
        <g id="Grupo_1231820" data-name="Grupo 1231820" transform="translate(0 39.326)">
          <path id="Trazado_1219996" data-name="Trazado 1219996" d="M45.478,427.051H1.563A1.562,1.562,0,0,1,0,425.493v-5.329c0-3.188.612-7.642,5.9-9.5l2.471-.867a.87.87,0,1,1,.576,1.642l-2.471.867c-3.323,1.167-4.741,3.518-4.741,7.859v5.147H45.3v-5.147c0-4.341-1.418-6.692-4.742-7.86l-2.471-.867a.87.87,0,1,1,.576-1.642l2.471.867c5.293,1.859,5.905,6.313,5.905,9.5v5.329A1.562,1.562,0,0,1,45.478,427.051Z" transform="translate(0 -409.746)"/>
        </g>
        <g id="Grupo_1231821" data-name="Grupo 1231821" transform="translate(34.01 25.733)">
          <path id="Trazado_1219997" data-name="Trazado 1219997" d="M365.159,278a10.975,10.975,0,0,1-15.717,14.747l-3.055-.142-4.026-.189,1.545-3.715,1.174-2.818A10.987,10.987,0,0,1,365.159,278Z" transform="translate(-342.36 -272.913)" fill="#e5e1e5" fill-rule="evenodd"/>
        </g>
        <g id="Grupo_1231822" data-name="Grupo 1231822" transform="translate(45.996 25.733)">
          <path id="Trazado_1219998" data-name="Trazado 1219998" d="M471.064,278.041a10.964,10.964,0,0,1-7.744,16.719,10.961,10.961,0,1,0-.3-21.74,10.969,10.969,0,0,1,8.043,5.022Z" transform="translate(-463.021 -272.913)" fill="#d7d0d6" fill-rule="evenodd"/>
        </g>
        <g id="Grupo_1231823" data-name="Grupo 1231823" transform="translate(33.14 24.868)">
          <path id="Trazado_1219999" data-name="Trazado 1219999" d="M347.988,287.871a11.849,11.849,0,0,1-6.727-2.1l-6.828-.319a.87.87,0,0,1-.763-1.2l2.622-6.3a11.858,11.858,0,1,1,21.159,5.217.87.87,0,0,1-1.386-1.051,10.1,10.1,0,1,0-18.017-4.226.87.87,0,0,1-.052.495l-2.243,5.388,5.842.273a.869.869,0,0,1,.468.163,10.1,10.1,0,0,0,11.348.344.87.87,0,1,1,.93,1.471A11.875,11.875,0,0,1,347.988,287.871Z" transform="translate(-333.603 -264.21)"/>
        </g>
        <g id="Grupo_1231824" data-name="Grupo 1231824" transform="translate(40.277 33.305)">
          <path id="Trazado_1220000" data-name="Trazado 1220000" d="M408.022,356.613a.87.87,0,0,1-.753-.433l-1.7-2.924a.87.87,0,0,1,.008-.887l1.7-2.808a.87.87,0,1,1,1.489.9l-1.431,2.367,1.439,2.478a.87.87,0,0,1-.752,1.307Z" transform="translate(-405.453 -349.14)"/>
        </g>
        <g id="Grupo_1231825" data-name="Grupo 1231825" transform="translate(45.335 33.001)">
          <path id="Trazado_1220001" data-name="Trazado 1220001" d="M457.235,354.155a.87.87,0,0,1-.808-1.193l2.531-6.338a.87.87,0,1,1,1.616.645l-2.531,6.338A.87.87,0,0,1,457.235,354.155Z" transform="translate(-456.365 -346.077)"/>
        </g>
        <g id="Grupo_1231826" data-name="Grupo 1231826" transform="translate(51.49 33.305)">
          <path id="Trazado_1220002" data-name="Trazado 1220002" d="M519.2,356.612a.87.87,0,0,1-.751-1.307l1.439-2.478-1.431-2.367a.87.87,0,0,1,1.489-.9l1.7,2.809a.87.87,0,0,1,.008.887l-1.7,2.924A.869.869,0,0,1,519.2,356.612Z" transform="translate(-518.333 -349.139)"/>
        </g>
      </g>
    </g>
  </g>
</svg>
