<svg xmlns="http://www.w3.org/2000/svg" xmlns:xlink="http://www.w3.org/1999/xlink" width="113" height="113" viewBox="0 0 113 113">
  <defs>
    <filter id="Trazado_982547" x="0" y="0" width="113" height="113" filterUnits="userSpaceOnUse">
      <feOffset dy="3" input="SourceAlpha"/>
      <feGaussianBlur stdDeviation="3" result="blur"/>
      <feFlood flood-opacity="0.161"/>
      <feComposite operator="in" in2="blur"/>
      <feComposite in="SourceGraphic"/>
    </filter>
  </defs>
  <g id="Grupo_1236155" data-name="Grupo 1236155" transform="translate(-1291 -2761.118)">
    <g id="Grupo_1235109" data-name="Grupo 1235109" transform="translate(178.131 1972.79)">
      <g id="Grupo_1223796" data-name="Grupo 1223796" transform="translate(0.869 -700.672)">
        <g id="Grupo_1208038" data-name="Grupo 1208038" transform="translate(0 -4138.425)">
          <g id="Grupo_1202104" data-name="Grupo 1202104" transform="translate(0 -1149.226)">
            <g id="Grupo_1201923" data-name="Grupo 1201923" transform="translate(-4174.49 4856.378)">
              <g id="Grupo_1176928" data-name="Grupo 1176928" transform="translate(5295.49 1926.273)">
                <g id="Grupo_1172322" data-name="Grupo 1172322" transform="translate(0 0)">
                  <g id="Grupo_1164700" data-name="Grupo 1164700">
                    <g id="Grupo_1160931" data-name="Grupo 1160931">
                      <g id="Grupo_1160749" data-name="Grupo 1160749">
                        <g id="Grupo_1158891" data-name="Grupo 1158891">
                          <g id="Grupo_1157406" data-name="Grupo 1157406">
                            <g id="Grupo_1155793" data-name="Grupo 1155793">
                              <g id="Grupo_1154704" data-name="Grupo 1154704">
                                <g id="Grupo_1150790" data-name="Grupo 1150790">
                                  <g id="Grupo_1154214" data-name="Grupo 1154214">
                                    <g id="Grupo_1152583" data-name="Grupo 1152583">
                                      <g id="Grupo_1146973" data-name="Grupo 1146973">
                                        <g id="Grupo_1146954" data-name="Grupo 1146954">
                                          <g transform="matrix(1, 0, 0, 1, -9, -6)" filter="url(#Trazado_982547)">
                                            <g id="Trazado_982547-2" data-name="Trazado 982547" transform="translate(9 6)" fill="#eddbfd">
                                              <path d="M 47.5000114440918 93.49987030029297 C 41.28938293457031 93.49987030029297 35.26534652709961 92.28384399414062 29.5951976776123 89.88558959960938 C 24.11773109436035 87.56881713867188 19.19814491271973 84.25183868408203 14.97310447692871 80.02680206298828 C 10.74805164337158 75.80176544189453 7.43107795715332 70.88218688964844 5.114304542541504 65.40472412109375 C 2.716038227081299 59.73458862304688 1.500011444091797 53.71054840087891 1.500011444091797 47.49993515014648 C 1.500011444091797 41.28932189941406 2.716038227081299 35.26528167724609 5.114304542541504 29.59514808654785 C 7.43107795715332 24.1176815032959 10.74805164337158 19.1981086730957 14.97310447692871 14.97306823730469 C 19.19814491271973 10.74802875518799 24.11773109436035 7.431055068969727 29.5951976776123 5.11428165435791 C 35.26534652709961 2.716028451919556 41.28938293457031 1.500001788139343 47.5000114440918 1.500001788139343 C 53.71063995361328 1.500001788139343 59.73467636108398 2.716028451919556 65.40482330322266 5.11428165435791 C 70.88229370117188 7.431055068969727 75.8018798828125 10.74802875518799 80.02691650390625 14.97306823730469 C 84.25196838378906 19.1981086730957 87.56894683837891 24.1176815032959 89.88571929931641 29.59514808654785 C 92.28398132324219 35.26528167724609 93.50001525878906 41.28932189941406 93.50001525878906 47.49993515014648 C 93.50001525878906 53.71054840087891 92.28398132324219 59.73458862304688 89.88571929931641 65.40472412109375 C 87.56894683837891 70.88218688964844 84.25196838378906 75.80176544189453 80.02691650390625 80.02680206298828 C 75.8018798828125 84.25183868408203 70.88229370117188 87.56881713867188 65.40482330322266 89.88558959960938 C 59.73467636108398 92.28384399414062 53.71063995361328 93.49987030029297 47.5000114440918 93.49987030029297 Z" stroke="none"/>
                                              <path d="M 47.5000114440918 3 C 41.49122619628906 3 35.66378021240234 4.1761474609375 30.17951965332031 6.495796203613281 C 24.880859375 8.7369384765625 20.12153625488281 11.94596862792969 16.03376770019531 16.03373718261719 C 11.94598388671875 20.12149047851562 8.736968994140625 24.88081359863281 6.495811462402344 30.17947387695312 C 4.176162719726562 35.66371917724609 3.000007629394531 41.49116516113281 3.000007629394531 47.49993515014648 C 3.000007629394531 53.50870513916016 4.176162719726562 59.33615112304688 6.495811462402344 64.82039642333984 C 8.736968994140625 70.11905670166016 11.94598388671875 74.87837982177734 16.03376770019531 78.96613311767578 C 20.12153625488281 83.05390167236328 24.880859375 86.26293182373047 30.17951965332031 88.50407409667969 C 35.66378021240234 90.82372283935547 41.49122619628906 91.99987030029297 47.5000114440918 91.99987030029297 C 53.50879669189453 91.99987030029297 59.33624267578125 90.82372283935547 64.82050323486328 88.50407409667969 C 70.11916351318359 86.26293182373047 74.87848663330078 83.05390167236328 78.96625518798828 78.96613311767578 C 83.05403900146484 74.87837982177734 86.2630615234375 70.11905670166016 88.50421142578125 64.82039642333984 C 90.82386016845703 59.33615112304688 92.00001525878906 53.50870513916016 92.00001525878906 47.49993515014648 C 92.00001525878906 41.49116516113281 90.82386016845703 35.66371917724609 88.50421142578125 30.17947387695312 C 86.2630615234375 24.88081359863281 83.05403900146484 20.12149047851562 78.96625518798828 16.03373718261719 C 74.87848663330078 11.94596862792969 70.11916351318359 8.7369384765625 64.82050323486328 6.495796203613281 C 59.33624267578125 4.1761474609375 53.50879669189453 3 47.5000114440918 3 M 47.5000114440918 0 C 73.73353576660156 0 95.00001525878906 21.26644134521484 95.00001525878906 47.49993515014648 C 95.00001525878906 73.73342895507812 73.73353576660156 94.99987030029297 47.5000114440918 94.99987030029297 C 21.26648712158203 94.99987030029297 7.62939453125e-06 73.73342895507812 7.62939453125e-06 47.49993515014648 C 7.62939453125e-06 21.26644134521484 21.26648712158203 0 47.5000114440918 0 Z" stroke="none" fill="#aa52f9"/>
                                            </g>
                                          </g>
                                        </g>
                                      </g>
                                    </g>
                                  </g>
                                </g>
                              </g>
                            </g>
                          </g>
                        </g>
                      </g>
                    </g>
                  </g>
                </g>
              </g>
            </g>
          </g>
        </g>
      </g>
    </g>
    <g id="desarrollador-de-software_2_" data-name="desarrollador-de-software (2)" transform="translate(1314.1 2754.857)">
      <g id="Grupo_1236147" data-name="Grupo 1236147" transform="translate(1.324 38.031)">
        <path id="Trazado_1226683" data-name="Trazado 1226683" d="M12.432,91.9A2.464,2.464,0,0,0,10,94.468v35.1a2.406,2.406,0,0,0,2.432,2.3H60.09a2.406,2.406,0,0,0,2.432-2.3V111.474H60.313a1.814,1.814,0,0,1-1.814-1.815v-1.294a1.968,1.968,0,0,0-2.917-1.684l-1.121.647a1.814,1.814,0,0,1-2.479-.665l-2.088-3.616a1.816,1.816,0,0,1,.664-2.479l1.121-.646a1.99,1.99,0,0,0,0-3.368l-1.119-.646a1.815,1.815,0,0,1-.665-2.479l.883-1.529H12.432Z" transform="translate(-10 -91.901)" fill="#fff"/>
      </g>
      <g id="Grupo_1236148" data-name="Grupo 1236148" transform="translate(1.324 71.255)">
        <path id="Trazado_1226684" data-name="Trazado 1226684" d="M62.523,342.8v4.443a2.407,2.407,0,0,1-2.433,2.3H12.431a2.407,2.407,0,0,1-2.431-2.3V342.8Z" transform="translate(-10 -342.795)" fill="#ced3dd"/>
      </g>
      <g id="Grupo_1236152" data-name="Grupo 1236152" transform="translate(16.783 77.994)">
        <g id="Grupo_1236149" data-name="Grupo 1236149" transform="translate(1.548 0)">
          <path id="Trazado_1226685" data-name="Trazado 1226685" d="M154.482,400.7l-.817-7.014H143.054l-.817,7.014a3.809,3.809,0,0,1-3.789,3.377c-.065,0,.065,0,0,0h19.823c-.065,0,.065,0,0,0A3.809,3.809,0,0,1,154.482,400.7Z" transform="translate(-138.43 -393.683)" fill="#868eaf"/>
        </g>
        <g id="Grupo_1236150" data-name="Grupo 1236150" transform="translate(0 10.395)">
          <path id="Trazado_1226686" data-name="Trazado 1226686" d="M128.306,472.183h-1.567" transform="translate(-126.739 -472.183)" fill="#7ba8bd"/>
        </g>
        <g id="Grupo_1236151" data-name="Grupo 1236151" transform="translate(21.389 10.395)">
          <path id="Trazado_1226687" data-name="Trazado 1226687" d="M289.83,472.183h-1.567" transform="translate(-288.263 -472.183)" fill="#7ba8bd"/>
        </g>
      </g>
      <g id="Grupo_1236153" data-name="Grupo 1236153" transform="translate(40.976 31.133)">
        <path id="Trazado_1226688" data-name="Trazado 1226688" d="M310.345,50.714l1.12.647a1.99,1.99,0,0,1,0,3.368l-1.121.647a1.815,1.815,0,0,0-.664,2.479l2.089,3.616a1.814,1.814,0,0,0,2.479.665l1.121-.648a1.968,1.968,0,0,1,2.916,1.683v1.294A1.815,1.815,0,0,0,320.1,66.28h4.176a1.815,1.815,0,0,0,1.815-1.815V63.171A1.967,1.967,0,0,1,329,61.488l1.121.648a1.814,1.814,0,0,0,2.479-.665l2.089-3.616a1.814,1.814,0,0,0-.665-2.479l-1.12-.647a1.99,1.99,0,0,1,0-3.368l1.12-.647a1.815,1.815,0,0,0,.665-2.479L332.6,44.619a1.814,1.814,0,0,0-2.479-.664L329,44.6a1.967,1.967,0,0,1-2.916-1.683V41.624a1.815,1.815,0,0,0-1.815-1.815H320.1a1.815,1.815,0,0,0-1.815,1.815v1.294a1.967,1.967,0,0,1-2.916,1.683l-1.121-.647a1.814,1.814,0,0,0-2.479.664l-2.089,3.617A1.815,1.815,0,0,0,310.345,50.714Zm11.841-1.861a4.191,4.191,0,1,1-4.191,4.191A4.192,4.192,0,0,1,322.186,48.853Z" transform="translate(-309.436 -39.809)" fill="#ced3dd"/>
      </g>
      <g id="Grupo_1236154" data-name="Grupo 1236154" transform="translate(0 29.809)">
        <path id="Trazado_1226689" data-name="Trazado 1226689" d="M60.244,126.544a1.324,1.324,0,0,0-1.872.046l-3.764,3.955a1.324,1.324,0,0,0,0,1.826l3.764,3.955A1.324,1.324,0,0,0,60.29,134.5l-2.9-3.043,2.9-3.043a1.324,1.324,0,0,0-.046-1.872Z" transform="translate(-47.06 -113.417)"/>
        <path id="Trazado_1226690" data-name="Trazado 1226690" d="M195.414,136.373a1.337,1.337,0,0,0,1.872-.046l3.764-3.955a1.324,1.324,0,0,0,0-1.826l-3.764-3.955a1.324,1.324,0,1,0-1.919,1.826l2.9,3.043-2.9,3.043A1.324,1.324,0,0,0,195.414,136.373Z" transform="translate(-169.18 -113.417)"/>
        <path id="Trazado_1226691" data-name="Trazado 1226691" d="M121.651,136.54a1.337,1.337,0,0,0,1.822-.433l4.873-7.911a1.324,1.324,0,1,0-2.255-1.389l-4.873,7.911A1.324,1.324,0,0,0,121.651,136.54Z" transform="translate(-104.995 -113.416)"/>
        <path id="Trazado_1226692" data-name="Trazado 1226692" d="M78.218,231.017H55.566a1.324,1.324,0,0,0,0,2.648H78.218a1.324,1.324,0,1,0,0-2.648Z" transform="translate(-47.059 -204.373)"/>
        <path id="Trazado_1226693" data-name="Trazado 1226693" d="M55.566,281.762a1.324,1.324,0,0,0,0,2.648h16.2a1.324,1.324,0,1,0,0-2.648Z" transform="translate(-47.059 -248.398)"/>
        <path id="Trazado_1226694" data-name="Trazado 1226694" d="M230.243,283.086a1.324,1.324,0,0,0,1.324,1.324H242.88a1.324,1.324,0,1,0,0-2.648H231.567A1.324,1.324,0,0,0,230.243,283.086Z" transform="translate(-199.754 -248.398)"/>
        <path id="Trazado_1226695" data-name="Trazado 1226695" d="M166.172,83.756a1.324,1.324,0,1,0,.586-1.667A1.333,1.333,0,0,0,166.172,83.756Z" transform="translate(-144.082 -75.027)"/>
        <path id="Trazado_1226696" data-name="Trazado 1226696" d="M270.35,233.116a1.324,1.324,0,1,0,.365-1.835,1.339,1.339,0,0,0-.365,1.835Z" transform="translate(-234.36 -204.412)"/>
        <path id="Trazado_1226697" data-name="Trazado 1226697" d="M66.23,45.553l-1.119-.646a.668.668,0,0,1,0-1.074l1.119-.647a3.143,3.143,0,0,0,1.15-4.288l-2.089-3.617A3.172,3.172,0,0,0,61,34.132l-1.121.647a.652.652,0,0,1-.93-.537V32.948a3.143,3.143,0,0,0-3.139-3.139H51.638A3.143,3.143,0,0,0,48.5,32.948v1.294a.651.651,0,0,1-.93.536l-1.12-.646a3.172,3.172,0,0,0-4.288,1.148l-.824,1.426h-12.1a1.324,1.324,0,0,0,0,2.648H39.854a3.171,3.171,0,0,0,1.368,3.83l1.119.646a.669.669,0,0,1,0,1.074l-1.122.647a3.143,3.143,0,0,0-1.147,4.287l2.088,3.615a3.173,3.173,0,0,0,4.289,1.15l1.12-.647a.652.652,0,0,1,.93.537V55.79a3.167,3.167,0,0,0,3.093,3.139l.93.057V69.931H2.648V40.6a1.142,1.142,0,0,1,1.107-1.243h13.6a1.324,1.324,0,0,0,0-2.648H3.756A3.785,3.785,0,0,0,0,40.6V75.7H0a3.739,3.739,0,0,0,3.755,3.621H21.468l-.645,5.539a2.483,2.483,0,0,1-2.469,2.2h0a.473.473,0,0,0-.054,0l-1.514,0a1.324,1.324,0,0,0,0,2.648H39.739a1.324,1.324,0,1,0,0-2.648l-1.514,0h-.057a2.483,2.483,0,0,1-2.469-2.2v0l-.645-5.536h16.36A3.74,3.74,0,0,0,55.171,75.7V58.928h.644a3.143,3.143,0,0,0,3.139-3.139V54.5a.652.652,0,0,1,.929-.537L61,54.606a3.172,3.172,0,0,0,4.287-1.149l2.089-3.616A3.143,3.143,0,0,0,66.23,45.553ZM52.522,72.579V75.7a1.086,1.086,0,0,1-1.107.972H3.756A1.086,1.086,0,0,1,2.649,75.7V72.579ZM33.068,85.159a5.128,5.128,0,0,0,.609,1.906H22.846a5.114,5.114,0,0,0,.608-1.9l.681-5.843h8.253ZM65.086,48.516,63,52.133a.493.493,0,0,1-.669.18l-1.121-.648a3.318,3.318,0,0,0-4.9,2.83v1.294a.491.491,0,0,1-.49.49H51.638a.5.5,0,0,1-.49-.491V54.5a3.318,3.318,0,0,0-4.9-2.831l-1.121.648a.5.5,0,0,1-.669-.18l-2.088-3.616a.491.491,0,0,1,.179-.67l1.121-.647a3.333,3.333,0,0,0,0-5.661l-1.119-.647a.5.5,0,0,1-.18-.67L44.455,36.6a.493.493,0,0,1,.67-.179l1.12.646a3.317,3.317,0,0,0,4.9-2.83V32.948a.491.491,0,0,1,.49-.49h4.176a.491.491,0,0,1,.49.49v1.294a3.317,3.317,0,0,0,4.9,2.83l1.121-.647A.493.493,0,0,1,63,36.6l2.089,3.617a.491.491,0,0,1-.18.67l-1.118.646a3.335,3.335,0,0,0,0,5.662l1.119.647a.492.492,0,0,1,.18.67Z" transform="translate(0 -29.809)"/>
        <path id="Trazado_1226698" data-name="Trazado 1226698" d="M369.579,98.108a5.515,5.515,0,1,0,5.516,5.515A5.522,5.522,0,0,0,369.579,98.108Zm0,8.382a2.867,2.867,0,1,1,0-5.734,2.9,2.9,0,0,1,2.868,2.867A2.871,2.871,0,0,1,369.579,106.49Z" transform="translate(-315.854 -89.064)"/>
      </g>
    </g>
  </g>
</svg>
