<svg xmlns="http://www.w3.org/2000/svg" xmlns:xlink="http://www.w3.org/1999/xlink" width="103" height="103" viewBox="0 0 103 103">
  <defs>
    <filter id="Trazado_978624" x="0" y="0" width="103" height="103" filterUnits="userSpaceOnUse">
      <feOffset dy="3" input="SourceAlpha"/>
      <feGaussianBlur stdDeviation="3" result="blur"/>
      <feFlood flood-opacity="0.161"/>
      <feComposite operator="in" in2="blur"/>
      <feComposite in="SourceGraphic"/>
    </filter>
  </defs>
  <g id="Grupo_1236171" data-name="Grupo 1236171" transform="translate(-171 -4958)">
    <g id="Grupo_1235119" data-name="Grupo 1235119" transform="translate(0 -13057.447)">
      <g id="Grupo_1234456" data-name="Grupo 1234456" transform="translate(-0.869 16233.119)">
        <g id="Grupo_1227500" data-name="Grupo 1227500" transform="translate(0.869 640.328)">
          <g id="Grupo_1225355" data-name="Grupo 1225355" transform="translate(180 1148)">
            <g id="Grupo_1176881" data-name="Grupo 1176881">
              <g id="Grupo_1175148" data-name="Grupo 1175148">
                <g id="Grupo_1173798" data-name="Grupo 1173798">
                  <g id="Grupo_1171925" data-name="Grupo 1171925">
                    <g id="Grupo_1164524" data-name="Grupo 1164524">
                      <g id="Grupo_1144123" data-name="Grupo 1144123">
                        <g transform="matrix(1, 0, 0, 1, -9, -6)" filter="url(#Trazado_978624)">
                          <g id="Trazado_978624-2" data-name="Trazado 978624" transform="translate(9 6)" fill="#e5fdfa">
                            <path d="M 42.5 83.5 C 36.96437835693359 83.5 31.59512901306152 82.41617584228516 26.54141235351562 80.27863311767578 C 21.65934181213379 78.21369171142578 17.27447128295898 75.25723266601562 13.50862312316895 71.49137878417969 C 9.742764472961426 67.72553253173828 6.786305904388428 63.34066009521484 4.721364498138428 58.45858764648438 C 2.583823442459106 53.40486907958984 1.5 48.03562164306641 1.5 42.5 C 1.5 36.96437835693359 2.583823442459106 31.59512901306152 4.721364498138428 26.54141235351562 C 6.786305904388428 21.65934181213379 9.742764472961426 17.27447128295898 13.50862312316895 13.50862312316895 C 17.27447128295898 9.742764472961426 21.65934181213379 6.786305904388428 26.54141235351562 4.721364498138428 C 31.59512901306152 2.583823442459106 36.96437835693359 1.5 42.5 1.5 C 48.03562164306641 1.5 53.40486907958984 2.583823442459106 58.45858764648438 4.721364498138428 C 63.34066009521484 6.786305904388428 67.72553253173828 9.742764472961426 71.49137878417969 13.50862312316895 C 75.25723266601562 17.27447128295898 78.21369171142578 21.65934181213379 80.27863311767578 26.54141235351562 C 82.41617584228516 31.59512901306152 83.5 36.96437835693359 83.5 42.5 C 83.5 48.03562164306641 82.41617584228516 53.40486907958984 80.27863311767578 58.45858764648438 C 78.21369171142578 63.34066009521484 75.25723266601562 67.72553253173828 71.49137878417969 71.49137878417969 C 67.72553253173828 75.25723266601562 63.34066009521484 78.21369171142578 58.45858764648438 80.27863311767578 C 53.40486907958984 82.41617584228516 48.03562164306641 83.5 42.5 83.5 Z" stroke="none"/>
                            <path d="M 42.5 3 C 37.16621398925781 3 31.99356079101562 4.043960571289062 27.125732421875 6.102882385253906 C 22.42246627807617 8.092185974121094 18.19785308837891 10.94070434570312 14.56928253173828 14.56928253173828 C 10.94070434570312 18.19785308837891 8.092185974121094 22.42246627807617 6.102882385253906 27.125732421875 C 4.043960571289062 31.99356079101562 3 37.16621398925781 3 42.5 C 3 47.83378601074219 4.043960571289062 53.00643920898438 6.102882385253906 57.87425231933594 C 8.092185974121094 62.57753372192383 10.94070434570312 66.80213165283203 14.56928253173828 70.43071746826172 C 18.19786834716797 74.05929565429688 22.42246627807617 76.90781402587891 27.125732421875 78.89711761474609 C 31.99356079101562 80.95603942871094 37.16621398925781 82 42.5 82 C 47.83378601074219 82 53.00642395019531 80.95603942871094 57.87425231933594 78.89711761474609 C 62.57753372192383 76.90781402587891 66.80213165283203 74.05929565429688 70.43071746826172 70.43071746826172 C 74.05929565429688 66.80213165283203 76.90781402587891 62.57753372192383 78.89711761474609 57.87425231933594 C 80.95603942871094 53.00642395019531 82 47.83378601074219 82 42.5 C 82 37.16621398925781 80.95603942871094 31.99356079101562 78.89711761474609 27.125732421875 C 76.90781402587891 22.42246627807617 74.05929565429688 18.19786834716797 70.43071746826172 14.56928253173828 C 66.80213165283203 10.94070434570312 62.57753372192383 8.092185974121094 57.87425231933594 6.102882385253906 C 53.00643920898438 4.043960571289062 47.83378601074219 3 42.5 3 M 42.5 0 C 65.97209167480469 0 85 19.02789306640625 85 42.5 C 85 65.97209167480469 65.97209167480469 85 42.5 85 C 19.02789306640625 85 0 65.97209167480469 0 42.5 C 0 19.02789306640625 19.02789306640625 0 42.5 0 Z" stroke="none" fill="#098576"/>
                          </g>
                        </g>
                      </g>
                    </g>
                  </g>
                </g>
              </g>
            </g>
          </g>
        </g>
      </g>
    </g>
    <g id="contrasena_2_" data-name="contrasena (2)" transform="translate(197.5 4981.5)">
      <g id="Grupo_1236170" data-name="Grupo 1236170">
        <g id="filled_outline_25_">
          <path id="Trazado_1226712" data-name="Trazado 1226712" d="M76.076,206.9H42.742a3.334,3.334,0,0,0-3.333,3.333v28.333h40V210.234A3.333,3.333,0,0,0,76.076,206.9Z" transform="translate(-36.076 -189.401)" fill="#c7cacc"/>
          <path id="Trazado_1226713" data-name="Trazado 1226713" d="M112.153,272.978v-25a1.666,1.666,0,0,0-1.667-1.667h-30a1.666,1.666,0,0,0-1.667,1.667v25Z" transform="translate(-72.152 -225.478)" fill="#4398d1"/>
          <path id="Trazado_1226714" data-name="Trazado 1226714" d="M148.229,272.978v-25a1.666,1.666,0,0,0-1.667-1.667H144.9l-26.667,26.667Z" transform="translate(-108.229 -225.478)" fill="#3e8cc7"/>
          <rect id="Rectángulo_424025" data-name="Rectángulo 424025" width="23.333" height="6.667" transform="translate(11.667 30.833)" fill="#87ced9"/>
          <rect id="Rectángulo_424026" data-name="Rectángulo 424026" width="1.667" height="1.667" transform="translate(14.167 33.333)" fill="#126099"/>
          <rect id="Rectángulo_424027" data-name="Rectángulo 424027" width="1.667" height="1.667" transform="translate(17.5 33.333)" fill="#126099"/>
          <rect id="Rectángulo_424028" data-name="Rectángulo 424028" width="1.667" height="1.667" transform="translate(20.833 33.333)" fill="#126099"/>
          <rect id="Rectángulo_424029" data-name="Rectángulo 424029" width="1.667" height="1.667" transform="translate(24.167 33.333)" fill="#126099"/>
          <path id="Trazado_1226715" data-name="Trazado 1226715" d="M307.4,157.639h19.4a1.969,1.969,0,0,1,1.969,1.969v10.228a1.969,1.969,0,0,1-1.969,1.969H307.4a1.969,1.969,0,0,1-1.969-1.969V159.608A1.969,1.969,0,0,1,307.4,157.639Z" transform="translate(-279.593 -144.306)" fill="#fdb62f"/>
          <path id="Trazado_1226716" data-name="Trazado 1226716" d="M344.149,9.852a9.167,9.167,0,0,0-9.167,9.167v3.333h3.333V19.019a5.833,5.833,0,1,1,11.667,0v3.333h3.333V19.019A9.167,9.167,0,0,0,344.149,9.852Z" transform="translate(-306.649 -9.019)" fill="#dadddf"/>
          <rect id="Rectángulo_424030" data-name="Rectángulo 424030" width="1.667" height="1.667" transform="translate(15 13.333)" fill="#87ced9"/>
          <rect id="Rectángulo_424031" data-name="Rectángulo 424031" width="1.667" height="1.667" transform="translate(15 10)" fill="#87ced9"/>
          <rect id="Rectángulo_424032" data-name="Rectángulo 424032" width="1.667" height="1.667" transform="translate(15 6.667)" fill="#87ced9"/>
          <rect id="Rectángulo_424033" data-name="Rectángulo 424033" width="1.667" height="1.667" transform="translate(15 3.333)" fill="#87ced9"/>
          <rect id="Rectángulo_424034" data-name="Rectángulo 424034" width="1.667" height="1.667" transform="translate(18.333 3.333)" fill="#87ced9"/>
          <rect id="Rectángulo_424035" data-name="Rectángulo 424035" width="1.667" height="1.667" transform="translate(21.667 3.333)" fill="#87ced9"/>
          <rect id="Rectángulo_424036" data-name="Rectángulo 424036" width="1.667" height="1.667" transform="translate(25 3.333)" fill="#87ced9"/>
          <path id="Trazado_1226717" data-name="Trazado 1226717" d="M52.353,527.179h-40a2.5,2.5,0,0,1-2.5-2.5h0v-2.5h17.5a1.507,1.507,0,0,1,1.348.833h0a1.507,1.507,0,0,0,1.348.833h4.8a1.507,1.507,0,0,0,1.348-.833h0a1.507,1.507,0,0,1,1.348-.833h17.3v2.5a2.5,2.5,0,0,1-2.5,2.5Z" transform="translate(-9.02 -478.012)" fill="#dadddf"/>
          <path id="Trazado_1226718" data-name="Trazado 1226718" d="M336.688,159.018c-5.651,8.417-14.88,12.108-21.154,13.7a1.962,1.962,0,0,0,1.114.347h19.4a1.969,1.969,0,0,0,1.969-1.969V160.871A1.964,1.964,0,0,0,336.688,159.018Z" transform="translate(-288.846 -145.568)" fill="#ffa230"/>
          <path id="Trazado_1226719" data-name="Trazado 1226719" d="M426.987,218.338a1.667,1.667,0,1,0-2.5,1.436V222.5h1.667v-2.731A1.661,1.661,0,0,0,426.987,218.338Z" transform="translate(-387.82 -198.338)" fill="#556575"/>
          <rect id="Rectángulo_424037" data-name="Rectángulo 424037" width="3.333" height="1.667" transform="translate(28.333 11.667)" fill="#c7cacc"/>
          <rect id="Rectángulo_424038" data-name="Rectángulo 424038" width="3.333" height="1.667" transform="translate(43.333 11.667)" fill="#c7cacc"/>
          <rect id="Rectángulo_424039" data-name="Rectángulo 424039" width="23.333" height="1.667" transform="translate(11.667 30.833)" fill="#71c4d1"/>
          <path id="Trazado_1226720" data-name="Trazado 1226720" d="M3.333,230.382h40a3.334,3.334,0,0,0,3.333-3.333v-2.5a.834.834,0,0,0-.833-.833H44.167V210.382H42.5v13.333H40.834V210.382H39.167v13.333H28.53a2.327,2.327,0,0,0-2.093,1.294.667.667,0,0,1-.6.372h-4.8a.666.666,0,0,1-.6-.372,2.329,2.329,0,0,0-2.094-1.294H7.5V202.882a.834.834,0,0,1,.833-.833h15v-1.667h-15a2.5,2.5,0,0,0-2.5,2.5v20.833H4.167v-22.5a2.5,2.5,0,0,1,2.5-2.5H23.333v-1.667H6.667A4.171,4.171,0,0,0,2.5,201.216v22.5H.833a.834.834,0,0,0-.833.833v2.5A3.334,3.334,0,0,0,3.333,230.382Zm-1.667-5H18.333a.672.672,0,0,1,.6.372,2.326,2.326,0,0,0,2.093,1.3h4.8a2.327,2.327,0,0,0,2.094-1.3.667.667,0,0,1,.6-.372H45v1.667a1.666,1.666,0,0,1-1.667,1.667h-40a1.666,1.666,0,0,1-1.667-1.667Z" transform="translate(0 -180.382)"/>
          <path id="Trazado_1226721" data-name="Trazado 1226721" d="M128.082,355.521v6.667a.834.834,0,0,0,.833.833h23.333a.834.834,0,0,0,.833-.833v-6.667a.834.834,0,0,0-.833-.833H128.915A.834.834,0,0,0,128.082,355.521Zm1.667.833h21.667v5H129.749Z" transform="translate(-117.249 -324.688)"/>
          <rect id="Rectángulo_424040" data-name="Rectángulo 424040" width="1.667" height="1.667" transform="translate(14.167 33.333)"/>
          <rect id="Rectángulo_424041" data-name="Rectángulo 424041" width="1.667" height="1.667" transform="translate(17.5 33.333)"/>
          <rect id="Rectángulo_424042" data-name="Rectángulo 424042" width="1.667" height="1.667" transform="translate(20.833 33.333)"/>
          <rect id="Rectángulo_424043" data-name="Rectángulo 424043" width="1.667" height="1.667" transform="translate(24.167 33.333)"/>
          <path id="Trazado_1226722" data-name="Trazado 1226722" d="M318.073,12.531V10a10,10,0,0,0-20,0v2.531a2.8,2.8,0,0,0-2.5,2.771v10.23a2.805,2.805,0,0,0,2.8,2.8h19.4a2.805,2.805,0,0,0,2.8-2.8V15.3A2.8,2.8,0,0,0,318.073,12.531ZM299.74,10a8.333,8.333,0,1,1,16.667,0v2.5H314.74V10a6.667,6.667,0,1,0-13.333,0v2.5H299.74Zm3.333,2.5V10a5,5,0,1,1,10,0v2.5Zm15.833,13.032a1.137,1.137,0,0,1-1.136,1.135H298.376a1.137,1.137,0,0,1-1.136-1.135V15.3a1.137,1.137,0,0,1,1.136-1.135h19.4a1.137,1.137,0,0,1,1.136,1.135v10.23Z" transform="translate(-270.573)"/>
          <path id="Trazado_1226723" data-name="Trazado 1226723" d="M416.311,206.9a2.494,2.494,0,0,0-.833,4.847v1.82h1.667v-1.82a2.494,2.494,0,0,0-.833-4.847Zm0,3.333a.833.833,0,1,1,.833-.833A.834.834,0,0,1,416.311,210.234Z" transform="translate(-378.811 -189.401)"/>
          <rect id="Rectángulo_424044" data-name="Rectángulo 424044" width="1.667" height="1.667" transform="translate(15 13.333)"/>
          <rect id="Rectángulo_424045" data-name="Rectángulo 424045" width="1.667" height="1.667" transform="translate(15 10)"/>
          <rect id="Rectángulo_424046" data-name="Rectángulo 424046" width="1.667" height="1.667" transform="translate(15 6.667)"/>
          <rect id="Rectángulo_424047" data-name="Rectángulo 424047" width="1.667" height="1.667" transform="translate(15 3.333)"/>
          <rect id="Rectángulo_424048" data-name="Rectángulo 424048" width="1.667" height="1.667" transform="translate(18.333 3.333)"/>
          <rect id="Rectángulo_424049" data-name="Rectángulo 424049" width="1.667" height="1.667" transform="translate(21.667 3.333)"/>
          <rect id="Rectángulo_424050" data-name="Rectángulo 424050" width="1.667" height="1.667" transform="translate(25 3.333)"/>
        </g>
      </g>
    </g>
  </g>
</svg>
