<svg xmlns="http://www.w3.org/2000/svg" xmlns:xlink="http://www.w3.org/1999/xlink" width="103" height="103" viewBox="0 0 103 103">
  <defs>
    <filter id="Trazado_978624" x="0" y="0" width="103" height="103" filterUnits="userSpaceOnUse">
      <feOffset dy="3" input="SourceAlpha"/>
      <feGaussianBlur stdDeviation="3" result="blur"/>
      <feFlood flood-opacity="0.161"/>
      <feComposite operator="in" in2="blur"/>
      <feComposite in="SourceGraphic"/>
    </filter>
  </defs>
  <g id="Grupo_1236299" data-name="Grupo 1236299" transform="translate(-200 -3539)">
    <g id="Grupo_1235394" data-name="Grupo 1235394" transform="translate(209 3545)">
      <g id="Grupo_1234456" data-name="Grupo 1234456">
        <g id="Grupo_1227500" data-name="Grupo 1227500">
          <g id="Grupo_1225355" data-name="Grupo 1225355">
            <g id="Grupo_1176881" data-name="Grupo 1176881">
              <g id="Grupo_1175148" data-name="Grupo 1175148">
                <g id="Grupo_1173798" data-name="Grupo 1173798">
                  <g id="Grupo_1171925" data-name="Grupo 1171925">
                    <g id="Grupo_1164524" data-name="Grupo 1164524">
                      <g id="Grupo_1144123" data-name="Grupo 1144123">
                        <g transform="matrix(1, 0, 0, 1, -9, -6)" filter="url(#Trazado_978624)">
                          <g id="Trazado_978624-2" data-name="Trazado 978624" transform="translate(9 6)" fill="#fef9e5">
                            <path d="M 42.5 83.5 C 36.96437835693359 83.5 31.59512901306152 82.41617584228516 26.54141235351562 80.27863311767578 C 21.65934181213379 78.21369171142578 17.27447128295898 75.25723266601562 13.50862312316895 71.49137878417969 C 9.742764472961426 67.72553253173828 6.786305904388428 63.34066009521484 4.721364498138428 58.45858764648438 C 2.583823442459106 53.40486907958984 1.5 48.03562164306641 1.5 42.5 C 1.5 36.96437835693359 2.583823442459106 31.59512901306152 4.721364498138428 26.54141235351562 C 6.786305904388428 21.65934181213379 9.742764472961426 17.27447128295898 13.50862312316895 13.50862312316895 C 17.27447128295898 9.742764472961426 21.65934181213379 6.786305904388428 26.54141235351562 4.721364498138428 C 31.59512901306152 2.583823442459106 36.96437835693359 1.5 42.5 1.5 C 48.03562164306641 1.5 53.40486907958984 2.583823442459106 58.45858764648438 4.721364498138428 C 63.34066009521484 6.786305904388428 67.72553253173828 9.742764472961426 71.49137878417969 13.50862312316895 C 75.25723266601562 17.27447128295898 78.21369171142578 21.65934181213379 80.27863311767578 26.54141235351562 C 82.41617584228516 31.59512901306152 83.5 36.96437835693359 83.5 42.5 C 83.5 48.03562164306641 82.41617584228516 53.40486907958984 80.27863311767578 58.45858764648438 C 78.21369171142578 63.34066009521484 75.25723266601562 67.72553253173828 71.49137878417969 71.49137878417969 C 67.72553253173828 75.25723266601562 63.34066009521484 78.21369171142578 58.45858764648438 80.27863311767578 C 53.40486907958984 82.41617584228516 48.03562164306641 83.5 42.5 83.5 Z" stroke="none"/>
                            <path d="M 42.5 3 C 37.16621398925781 3 31.99356079101562 4.043960571289062 27.125732421875 6.102882385253906 C 22.42246627807617 8.092185974121094 18.19785308837891 10.94070434570312 14.56928253173828 14.56928253173828 C 10.94070434570312 18.19785308837891 8.092185974121094 22.42246627807617 6.102882385253906 27.125732421875 C 4.043960571289062 31.99356079101562 3 37.16621398925781 3 42.5 C 3 47.83378601074219 4.043960571289062 53.00643920898438 6.102882385253906 57.87425231933594 C 8.092185974121094 62.57753372192383 10.94070434570312 66.80213165283203 14.56928253173828 70.43071746826172 C 18.19786834716797 74.05929565429688 22.42246627807617 76.90781402587891 27.125732421875 78.89711761474609 C 31.99356079101562 80.95603942871094 37.16621398925781 82 42.5 82 C 47.83378601074219 82 53.00642395019531 80.95603942871094 57.87425231933594 78.89711761474609 C 62.57753372192383 76.90781402587891 66.80213165283203 74.05929565429688 70.43071746826172 70.43071746826172 C 74.05929565429688 66.80213165283203 76.90781402587891 62.57753372192383 78.89711761474609 57.87425231933594 C 80.95603942871094 53.00642395019531 82 47.83378601074219 82 42.5 C 82 37.16621398925781 80.95603942871094 31.99356079101562 78.89711761474609 27.125732421875 C 76.90781402587891 22.42246627807617 74.05929565429688 18.19786834716797 70.43071746826172 14.56928253173828 C 66.80213165283203 10.94070434570312 62.57753372192383 8.092185974121094 57.87425231933594 6.102882385253906 C 53.00643920898438 4.043960571289062 47.83378601074219 3 42.5 3 M 42.5 0 C 65.97209167480469 0 85 19.02789306640625 85 42.5 C 85 65.97209167480469 65.97209167480469 85 42.5 85 C 19.02789306640625 85 0 65.97209167480469 0 42.5 C 0 19.02789306640625 19.02789306640625 0 42.5 0 Z" stroke="none" fill="#866d08"/>
                          </g>
                        </g>
                      </g>
                    </g>
                  </g>
                </g>
              </g>
            </g>
          </g>
        </g>
      </g>
    </g>
    <g id="pentesting_1_" data-name="pentesting (1)" transform="translate(223.869 3546.39)">
      <g id="Grupo_1236297" data-name="Grupo 1236297" transform="translate(1.123 15.919)">
        <path id="Trazado_1226799" data-name="Trazado 1226799" d="M63.417,347.536v3.778H10.4v-3.778l30.058-1.918Z" transform="translate(-10.4 -310.755)" fill="#66c6a6"/>
        <path id="Trazado_1226800" data-name="Trazado 1226800" d="M10.4,101.349H63.417v28.283H10.4Z" transform="translate(-10.4 -92.851)" fill="#756e78"/>
        <path id="Trazado_1226801" data-name="Trazado 1226801" d="M469.04,355.6v3.778H465.1a3.541,3.541,0,0,0,.948-2.314V355.6l1.427-.943Z" transform="translate(-416.023 -318.816)" fill="#50b29f"/>
        <path id="Trazado_1226802" data-name="Trazado 1226802" d="M468.032,101.348v28.283H465.04v-3.8l-.513-2.173.513-2.317v-5.037l-.285-.816.285-.929v-4.835l-.315-1.944.315-2.546v-.812a4.485,4.485,0,0,0-1.07-3.076h4.062Z" transform="translate(-415.015 -92.85)" fill="#655f66"/>
        <path id="Trazado_1226803" data-name="Trazado 1226803" d="M177.848,404.351l-3.166.4a10.364,10.364,0,0,0-15.111,0l-3.2-.342,3.226-6.022h15.054Z" transform="translate(-140.619 -357.83)" fill="#cee0ea"/>
        <path id="Trazado_1226804" data-name="Trazado 1226804" d="M145.464,456.167l-2.253.216H116.538a.565.565,0,0,1-.54-.587v-2.82a.565.565,0,0,1,.54-.587h27.243l1.683.216a.565.565,0,0,1,.54.587v2.389A.565.565,0,0,1,145.464,456.167Z" transform="translate(-104.6 -406.002)" fill="#e6edf4"/>
        <path id="Trazado_1226805" data-name="Trazado 1226805" d="M370.246,452.975v2.82a.565.565,0,0,1-.54.587H367.13c.627,0,.677-.606.677-.885v-3.109h1.9A.565.565,0,0,1,370.246,452.975Z" transform="translate(-328.627 -406.001)" fill="#cee0ea"/>
        <path id="Trazado_1226806" data-name="Trazado 1226806" d="M169.3,22.612a10.459,10.459,0,0,0-6.06,18.8.767.767,0,0,1,.3.609V44.18a1.99,1.99,0,0,0,1.991,1.991h1.2l.809-.223.809.223h2.4l.793-.181.826.181.836-.129a1.99,1.99,0,0,0,1.991-1.991l-.061-2.149a.767.767,0,0,1,.3-.609,10.315,10.315,0,0,0,4.195-8.549,10.748,10.748,0,0,0-8.186-9.962,10.365,10.365,0,0,0-1.647-.17h-.5Z" transform="translate(-143.037 -22.612)" fill="#f5f8f9"/>
        <path id="Trazado_1226807" data-name="Trazado 1226807" d="M277.662,42.756a.768.768,0,0,0-.3.609v2.161a1.99,1.99,0,0,1-1.99,1.991h-1.343a1.989,1.989,0,0,0,1.714-1.972V42.933a.768.768,0,0,1,.3-.609,10.456,10.456,0,0,0-2.833-18.2,10.459,10.459,0,0,1,4.452,18.636Z" transform="translate(-244.844 -23.957)" fill="#e6edf4"/>
        <g id="Grupo_1236294" data-name="Grupo 1236294" transform="translate(28.512 10.528)">
          <g id="Grupo_1236293" data-name="Grupo 1236293">
            <path id="Trazado_1226808" data-name="Trazado 1226808" d="M279.166,120.158a.217.217,0,0,1,.252.161,3.693,3.693,0,0,1,.105.881,2.807,2.807,0,0,1-2.479,3.047c-1.316.014-2.468-1.379-2.48-3.012a.218.218,0,0,1,.175-.217Z" transform="translate(-274.564 -120.154)" fill="#e6edf4"/>
          </g>
        </g>
        <g id="Grupo_1236296" data-name="Grupo 1236296" transform="translate(19.442 10.528)">
          <g id="Grupo_1236295" data-name="Grupo 1236295">
            <path id="Trazado_1226809" data-name="Trazado 1226809" d="M190.885,120.158a.217.217,0,0,0-.252.161,3.693,3.693,0,0,0-.105.881,2.807,2.807,0,0,0,2.479,3.047c1.316.014,2.468-1.379,2.48-3.012a.218.218,0,0,0-.175-.217Z" transform="translate(-190.528 -120.154)" fill="#e6edf4"/>
          </g>
        </g>
      </g>
      <g id="Grupo_1236298" data-name="Grupo 1236298" transform="translate(0 15.11)">
        <path id="Trazado_1226810" data-name="Trazado 1226810" d="M53.373,23.393H38.5A11.329,11.329,0,0,0,27.9,15.11h-.536a11.093,11.093,0,0,0-4.213.931.81.81,0,0,0,.649,1.483,9.479,9.479,0,0,1,3.592-.8h.48a9.649,9.649,0,0,1,5.578,17.346,1.586,1.586,0,0,0-.619,1.251v2.161a1.183,1.183,0,0,1-1.181,1.182h-1.2V36.531a.809.809,0,0,0-1.619,0v2.138h-2.4V36.531a.809.809,0,0,0-1.619,0v2.138h-1.2a1.183,1.183,0,0,1-1.181-1.182V35.327a1.587,1.587,0,0,0-.622-1.254A9.685,9.685,0,0,1,17.984,26.1a9.583,9.583,0,0,1,2.922-6.626.809.809,0,0,0-1.129-1.16,11.245,11.245,0,0,0-3.014,5.076H1.889A1.891,1.891,0,0,0,0,25.281v7.881a.809.809,0,1,0,1.619,0V25.281a.27.27,0,0,1,.27-.27H16.444q-.063.518-.078,1.045a11.306,11.306,0,0,0,4.448,9.292v2.139a2.8,2.8,0,0,0,2.8,2.8h8.037a2.8,2.8,0,0,0,2.8-2.8V35.349A11.308,11.308,0,0,0,38.9,26.057q-.015-.527-.078-1.045H53.373a.27.27,0,0,1,.27.27v26.61H44.38a.809.809,0,1,0,0,1.619h9.263V55.5a.27.27,0,0,1-.27.27H1.889a.27.27,0,0,1-.27-.27V53.51H40.6a.809.809,0,1,0,0-1.619H1.619V36.94A.809.809,0,0,0,0,36.94V55.5a1.891,1.891,0,0,0,1.889,1.889H18.723l-2.371,4.425H13.061a1.351,1.351,0,0,0-1.349,1.349v2.595a1.351,1.351,0,0,0,1.349,1.349h8.827a.81.81,0,0,0,0-1.619H13.331V63.436H41.682v2.055H25.665a.81.81,0,0,0,0,1.619H41.952A1.351,1.351,0,0,0,43.3,65.761V63.166a1.351,1.351,0,0,0-1.349-1.349H38.909l-2.371-4.425H53.373A1.891,1.891,0,0,0,55.262,55.5V25.281a1.891,1.891,0,0,0-1.889-1.889ZM22.255,61.817a9.581,9.581,0,0,1,10.752,0Zm14.818,0H35.529a11.175,11.175,0,0,0-15.8,0H18.19l2.371-4.425H34.7Z" transform="translate(0 -15.11)"/>
        <path id="Trazado_1226811" data-name="Trazado 1226811" d="M96.894,204.865v1.744a2.287,2.287,0,1,0,4.574,0v-1.744a2.287,2.287,0,1,0-4.574,0Zm2.955,0v1.744a.668.668,0,1,1-1.336,0v-1.744a.668.668,0,1,1,1.336,0Z" transform="translate(-86.436 -182.344)"/>
        <path id="Trazado_1226812" data-name="Trazado 1226812" d="M38.116,206.609a2.287,2.287,0,1,0,4.574,0v-1.744a2.287,2.287,0,1,0-4.574,0Zm1.619-1.744a.668.668,0,0,1,1.336,0v1.744a.668.668,0,1,1-1.336,0Z" transform="translate(-34.002 -182.344)"/>
        <path id="Trazado_1226813" data-name="Trazado 1226813" d="M39.735,135.173v-4.489a.809.809,0,0,0-1.619,0v4.489a.809.809,0,1,0,1.619,0Z" transform="translate(-34.002 -117.487)"/>
        <path id="Trazado_1226814" data-name="Trazado 1226814" d="M70.337,129.874a2.223,2.223,0,0,0-2.221,2.221v1.666a2.221,2.221,0,0,0,4.442,0v-1.666a2.223,2.223,0,0,0-2.221-2.221Zm.6,3.888a.6.6,0,0,1-1.2,0V132.1a.6.6,0,0,1,1.2,0Z" transform="translate(-60.764 -117.487)"/>
        <path id="Trazado_1226815" data-name="Trazado 1226815" d="M125.889,135.173v-4.489a.81.81,0,0,0-1.619,0v4.489a.81.81,0,1,0,1.619,0Z" transform="translate(-110.857 -117.487)"/>
        <path id="Trazado_1226816" data-name="Trazado 1226816" d="M38.116,284.4a.809.809,0,1,0,1.619,0V279.91a.809.809,0,1,0-1.619,0Z" transform="translate(-34.002 -250.607)"/>
        <path id="Trazado_1226817" data-name="Trazado 1226817" d="M69.337,279.1a2.223,2.223,0,0,0-2.221,2.221v1.667a2.221,2.221,0,1,0,4.442,0v-1.667a2.223,2.223,0,0,0-2.221-2.221Zm.6,3.887a.6.6,0,0,1-1.2,0v-1.667a.6.6,0,0,1,1.2,0Z" transform="translate(-59.872 -250.607)"/>
        <path id="Trazado_1226818" data-name="Trazado 1226818" d="M155.711,282.987v-1.667a2.221,2.221,0,0,0-4.442,0v1.667a2.221,2.221,0,1,0,4.442,0Zm-2.823,0v-1.667a.6.6,0,0,1,1.2,0v1.667a.6.6,0,0,1-1.2,0Z" transform="translate(-134.942 -250.607)"/>
        <path id="Trazado_1226819" data-name="Trazado 1226819" d="M122.27,279.91V284.4a.81.81,0,1,0,1.619,0V279.91a.81.81,0,1,0-1.619,0Z" transform="translate(-109.073 -250.607)"/>
        <path id="Trazado_1226820" data-name="Trazado 1226820" d="M208.042,284.4V279.91a.81.81,0,1,0-1.619,0V284.4a.81.81,0,1,0,1.619,0Z" transform="translate(-184.143 -250.607)"/>
        <path id="Trazado_1226821" data-name="Trazado 1226821" d="M239.865,282.987v-1.667a2.221,2.221,0,0,0-4.442,0v1.667a2.221,2.221,0,1,0,4.442,0Zm-2.823,0v-1.667a.6.6,0,0,1,1.2,0v1.667a.6.6,0,0,1-1.2,0Z" transform="translate(-210.013 -250.607)"/>
        <path id="Trazado_1226822" data-name="Trazado 1226822" d="M324.018,282.987v-1.667a2.221,2.221,0,0,0-4.442,0v1.667a2.221,2.221,0,1,0,4.442,0Zm-2.823,0v-1.667a.6.6,0,0,1,1.2,0v1.667a.6.6,0,0,1-1.2,0Z" transform="translate(-285.083 -250.607)"/>
        <path id="Trazado_1226823" data-name="Trazado 1226823" d="M292.2,284.4V279.91a.81.81,0,0,0-1.619,0V284.4a.81.81,0,0,0,1.619,0Z" transform="translate(-259.214 -250.607)"/>
        <path id="Trazado_1226824" data-name="Trazado 1226824" d="M458.884,279.91V284.4a.81.81,0,0,0,1.619,0V279.91a.81.81,0,0,0-1.619,0Z" transform="translate(-409.355 -250.607)"/>
        <path id="Trazado_1226825" data-name="Trazado 1226825" d="M403.73,281.321v1.667a2.221,2.221,0,0,0,4.442,0v-1.667a2.221,2.221,0,0,0-4.442,0Zm2.823,0v1.667a.6.6,0,0,1-1.2,0v-1.667a.6.6,0,0,1,1.2,0Z" transform="translate(-360.154 -250.607)"/>
        <path id="Trazado_1226826" data-name="Trazado 1226826" d="M374.73,279.91V284.4a.809.809,0,1,0,1.619,0V279.91a.809.809,0,1,0-1.619,0Z" transform="translate(-334.284 -250.607)"/>
        <path id="Trazado_1226827" data-name="Trazado 1226827" d="M372.73,206.609a2.287,2.287,0,1,0,4.574,0v-1.744a2.287,2.287,0,1,0-4.574,0Zm1.619-1.744a.668.668,0,1,1,1.336,0v1.744a.668.668,0,1,1-1.336,0Z" transform="translate(-332.5 -182.344)"/>
        <path id="Trazado_1226828" data-name="Trazado 1226828" d="M431.508,204.865v1.744a2.287,2.287,0,0,0,4.574,0v-1.744a2.287,2.287,0,1,0-4.574,0Zm2.955,0v1.744a.668.668,0,1,1-1.336,0v-1.744a.668.668,0,1,1,1.336,0Z" transform="translate(-384.934 -182.344)"/>
        <path id="Trazado_1226829" data-name="Trazado 1226829" d="M460.5,135.173v-4.489a.81.81,0,0,0-1.619,0v4.489a.81.81,0,0,0,1.619,0Z" transform="translate(-409.355 -117.487)"/>
        <path id="Trazado_1226830" data-name="Trazado 1226830" d="M404.951,129.874a2.223,2.223,0,0,0-2.221,2.221v1.666a2.221,2.221,0,0,0,4.442,0v-1.666A2.223,2.223,0,0,0,404.951,129.874Zm.6,3.888a.6.6,0,1,1-1.2,0V132.1a.6.6,0,1,1,1.2,0Z" transform="translate(-359.262 -117.487)"/>
        <path id="Trazado_1226831" data-name="Trazado 1226831" d="M374.349,135.173v-4.489a.809.809,0,1,0-1.619,0v4.489a.809.809,0,1,0,1.619,0Z" transform="translate(-332.5 -117.487)"/>
        <path id="Trazado_1226832" data-name="Trazado 1226832" d="M237.517,162.113l-1.3,1.3a.809.809,0,0,0,1.145,1.145l.727-.727.831.831a.809.809,0,0,0,1.145-1.145l-1.4-1.4A.809.809,0,0,0,237.517,162.113Z" transform="translate(-210.51 -146.035)"/>
        <path id="Trazado_1226833" data-name="Trazado 1226833" d="M270.36,118.08a3.611,3.611,0,0,0,3.289-3.856,4.463,4.463,0,0,0-.2-1.32.809.809,0,0,0-.928-.556l-4.795.931a.81.81,0,0,0-.655.77c0,.057,0,.115,0,.173A3.611,3.611,0,0,0,270.36,118.08Zm1.667-3.985c0,.043,0,.086,0,.129,0,1.213-.765,2.237-1.67,2.237a1.892,1.892,0,0,1-1.624-1.727Z" transform="translate(-238.245 -101.84)"/>
        <path id="Trazado_1226834" data-name="Trazado 1226834" d="M188.947,113.283l-4.795-.931a.809.809,0,0,0-.928.556,4.464,4.464,0,0,0-.2,1.32,3.33,3.33,0,1,0,6.577,0c0-.059,0-.116,0-.173A.81.81,0,0,0,188.947,113.283Zm-2.631,3.181c-.905,0-1.67-1.024-1.67-2.237q0-.065,0-.129l3.291.639A1.892,1.892,0,0,1,186.317,116.464Z" transform="translate(-163.273 -101.842)"/>
      </g>
    </g>
  </g>
</svg>
