<svg xmlns="http://www.w3.org/2000/svg" xmlns:xlink="http://www.w3.org/1999/xlink" width="400" height="306" viewBox="0 0 400 306">
  <defs>
    <clipPath id="clip-path">
      <rect id="Rectángulo_423882" data-name="Rectángulo 423882" width="400" height="306" transform="translate(1020 5243)" fill="#fff" stroke="#707070" stroke-width="1"/>
    </clipPath>
  </defs>
  <g id="Enmascarar_grupo_1208544" data-name="Enmascarar grupo 1208544" transform="translate(-1020 -5243)" clip-path="url(#clip-path)">
    <g id="_12304102_4882256" data-name="12304102_4882256" transform="translate(903.534 5188.903)">
      <g id="OBJECTS" transform="translate(98.373 70.096)">
        <g id="Grupo_1236024" data-name="Grupo 1236024">
          <ellipse id="Elipse_14152" data-name="Elipse 14152" cx="177.243" cy="5.943" rx="177.243" ry="5.943" transform="translate(44.939 278.531)" fill="#7dd6f5"/>
          <path id="Trazado_1226531" data-name="Trazado 1226531" d="M535.514,222.452H575.6a2.474,2.474,0,0,1,2.473,2.473v47.667a2.474,2.474,0,0,1-2.473,2.473H535.514" transform="translate(-192.618 -102.943)" fill="none" stroke="#2f9fb6" stroke-linecap="round" stroke-miterlimit="10" stroke-width="2.102" stroke-dasharray="2.102 5.255"/>
          <g id="Grupo_1236001" data-name="Grupo 1236001" transform="translate(124.218 58.098)">
            <g id="Grupo_1236000" data-name="Grupo 1236000">
              <line id="Línea_2873" data-name="Línea 2873" y1="0.824" transform="translate(114.543 22.137)" fill="none" stroke="#2f9fb6" stroke-linecap="round" stroke-miterlimit="10" stroke-width="2.102"/>
              <path id="Trazado_1226532" data-name="Trazado 1226532" d="M371.275,162.11V146.636a2.474,2.474,0,0,0-2.473-2.473h-109.6a2.473,2.473,0,0,0-2.473,2.473v17.569" transform="translate(-256.732 -144.163)" fill="none" stroke="#2f9fb6" stroke-linecap="round" stroke-miterlimit="10" stroke-width="2.102" stroke-dasharray="2.136 5.341"/>
              <line id="Línea_2874" data-name="Línea 2874" y2="0.824" transform="translate(0 22.137)" fill="none" stroke="#2f9fb6" stroke-linecap="round" stroke-miterlimit="10" stroke-width="2.102"/>
            </g>
          </g>
          <path id="Trazado_1226533" data-name="Trazado 1226533" d="M294.244,375.352H205.509a2.473,2.473,0,0,1-2.473-2.473V320.7h93.681v52.174A2.473,2.473,0,0,1,294.244,375.352Z" transform="translate(-120.938 -124.126)" fill="none" stroke="#2f9fb6" stroke-linecap="round" stroke-miterlimit="10" stroke-width="2.102" stroke-dasharray="2.102 5.255"/>
          <rect id="Rectángulo_423935" data-name="Rectángulo 423935" width="42.934" height="31.653" transform="translate(195.827 239.839)" fill="#002353"/>
          <path id="Trazado_1226534" data-name="Trazado 1226534" d="M422.951,429.189H297.535V422.7a6.49,6.49,0,0,1,6.49-6.49H416.46a6.49,6.49,0,0,1,6.49,6.49v6.49Z" transform="translate(-141.311 -144.716)" fill="#1e476d"/>
          <g id="Grupo_1236003" data-name="Grupo 1236003" transform="translate(147.668)">
            <path id="Trazado_1226535" data-name="Trazado 1226535" d="M364.278,138.51l-14.336-24.138a32.692,32.692,0,1,0-10.374,14.156C350.216,132.872,364.278,138.51,364.278,138.51Z" transform="translate(-286.628 -70.096)" fill="#097d8b"/>
            <g id="Grupo_1236002" data-name="Grupo 1236002" transform="translate(14.054 28.721)">
              <path id="Trazado_1226536" data-name="Trazado 1226536" d="M313.722,111.3a4.589,4.589,0,1,1-4.589-4.589A4.589,4.589,0,0,1,313.722,111.3Z" transform="translate(-304.544 -106.711)" fill="#fff"/>
              <path id="Trazado_1226537" data-name="Trazado 1226537" d="M330.592,111.3A4.589,4.589,0,1,1,326,106.711,4.589,4.589,0,0,1,330.592,111.3Z" transform="translate(-308.181 -106.711)" fill="#fff"/>
              <path id="Trazado_1226538" data-name="Trazado 1226538" d="M347.462,111.3a4.589,4.589,0,1,1-4.589-4.589A4.589,4.589,0,0,1,347.462,111.3Z" transform="translate(-311.818 -106.711)" fill="#fff"/>
            </g>
          </g>
          <g id="Grupo_1236004" data-name="Grupo 1236004" transform="translate(31.763 70.009)">
            <path id="Trazado_1226539" data-name="Trazado 1226539" d="M586.5,172.317h-3.3a12.97,12.97,0,0,0-1.028-2.441l2.247-2.247a1.211,1.211,0,0,0,0-1.713l-3.51-3.51a1.211,1.211,0,0,0-1.713,0l-2.251,2.251a12.967,12.967,0,0,0-2.532-1.043v-3.055a1.211,1.211,0,0,0-1.211-1.211h-4.964a1.211,1.211,0,0,0-1.211,1.211v3.055a12.943,12.943,0,0,0-2.616,1.094l-2.072-2.072a1.211,1.211,0,0,0-1.713,0l-3.51,3.51a1.211,1.211,0,0,0,0,1.713l2.1,2.105a12.95,12.95,0,0,0-1.064,2.679h-2.887a1.211,1.211,0,0,0-1.211,1.211v4.964a1.211,1.211,0,0,0,1.211,1.211h3a12.932,12.932,0,0,0,1.159,2.607l-2.082,2.082a1.211,1.211,0,0,0,0,1.713l3.51,3.51a1.212,1.212,0,0,0,1.713,0l2.21-2.21a12.938,12.938,0,0,0,2.573.988v3.069A1.211,1.211,0,0,0,568.568,193h4.964a1.211,1.211,0,0,0,1.211-1.211v-3.252a12.93,12.93,0,0,0,2.432-1.081l2.256,2.256a1.211,1.211,0,0,0,1.713,0l3.51-3.51a1.211,1.211,0,0,0,0-1.713l-2.356-2.356a12.967,12.967,0,0,0,.966-2.427H586.5a1.211,1.211,0,0,0,1.211-1.211v-4.964A1.209,1.209,0,0,0,586.5,172.317Zm-15.777,9.5a5.69,5.69,0,1,1,5.69-5.69A5.7,5.7,0,0,1,570.725,181.815Z" transform="translate(-228.38 -159.347)" fill="#da9500"/>
            <path id="Trazado_1226540" data-name="Trazado 1226540" d="M178.647,365.559h-4.042a15.885,15.885,0,0,0-1.261-2.994l2.756-2.756a1.485,1.485,0,0,0,0-2.1l-4.3-4.3a1.485,1.485,0,0,0-2.1,0l-2.761,2.761a15.935,15.935,0,0,0-3.105-1.279V351.14a1.486,1.486,0,0,0-1.486-1.486h-6.087a1.486,1.486,0,0,0-1.486,1.486v3.746a15.883,15.883,0,0,0-3.208,1.341l-2.541-2.541a1.485,1.485,0,0,0-2.1,0l-4.3,4.3a1.485,1.485,0,0,0,0,2.1l2.581,2.581a15.9,15.9,0,0,0-1.306,3.285h-3.54a1.486,1.486,0,0,0-1.486,1.486v6.087a1.486,1.486,0,0,0,1.486,1.486h3.677a15.865,15.865,0,0,0,1.422,3.2l-2.552,2.552a1.485,1.485,0,0,0,0,2.1l4.3,4.3a1.485,1.485,0,0,0,2.1,0l2.711-2.711a15.886,15.886,0,0,0,3.155,1.212v3.764a1.486,1.486,0,0,0,1.486,1.486h6.087a1.486,1.486,0,0,0,1.486-1.486v-3.989a15.893,15.893,0,0,0,2.982-1.325l2.767,2.767a1.485,1.485,0,0,0,2.1,0l4.3-4.3a1.485,1.485,0,0,0,0-2.1l-2.89-2.89a15.859,15.859,0,0,0,1.184-2.977h3.97a1.486,1.486,0,0,0,1.486-1.486v-6.087A1.483,1.483,0,0,0,178.647,365.559ZM159.3,377.205a6.978,6.978,0,1,1,6.978-6.978A6.986,6.986,0,0,1,159.3,377.205Z" transform="translate(-138.866 -200.376)" fill="#da9500"/>
          </g>
          <g id="Grupo_1236005" data-name="Grupo 1236005" transform="translate(250.833 9.816)">
            <rect id="Rectángulo_423936" data-name="Rectángulo 423936" width="61.614" height="61.614" fill="#1e476d"/>
            <rect id="Rectángulo_423937" data-name="Rectángulo 423937" width="50.753" height="41.205" transform="translate(5.43 5.586)" fill="#fff"/>
            <path id="Trazado_1226541" data-name="Trazado 1226541" d="M425.07,115.134l14.421-13.061,13.783,13.061L465.4,104.872l10.422,10.262V133.6H425.07Z" transform="translate(-419.64 -86.806)" fill="#d5d5d7"/>
            <path id="Trazado_1226542" data-name="Trazado 1226542" d="M464.163,100.484a3.371,3.371,0,1,1-3.371-3.371A3.371,3.371,0,0,1,464.163,100.484Z" transform="translate(-426.614 -85.737)" fill="#da9500"/>
          </g>
          <path id="Trazado_1226543" data-name="Trazado 1226543" d="M171.136,173.234a12.285,12.285,0,0,0-3.287.457,15.606,15.606,0,0,0-21.329-4.835A20.143,20.143,0,0,0,108.28,177.7c0,.526.027,1.044.066,1.559-.22-.016-.441-.034-.665-.034a9.308,9.308,0,1,0,0,18.616h63.455a12.3,12.3,0,1,0,0-24.6Z" transform="translate(-80.28 -88.952)" fill="#fff"/>
          <path id="Trazado_1226544" data-name="Trazado 1226544" d="M542.17,115.921a7.672,7.672,0,0,1,2.053.286,9.746,9.746,0,0,1,13.32-3.019,12.58,12.58,0,0,1,23.884,5.522c0,.328-.016.652-.041.973.138-.009.275-.021.416-.021a5.813,5.813,0,0,1,0,11.626H542.171a7.684,7.684,0,0,1,0-15.367Z" transform="translate(-192.396 -77.865)" fill="#fff"/>
          <path id="Trazado_1226545" data-name="Trazado 1226545" d="M216.979,108.132h16.147a15.127,15.127,0,0,0-27.974,1H152.494a5.256,5.256,0,0,0,0,10.512h52.658a15.127,15.127,0,0,0,27.974,1H216.979Zm-64.728,8.513a2.26,2.26,0,1,1,2.26-2.261A2.26,2.26,0,0,1,152.251,116.645Z" transform="translate(-108.908 -76.379)" fill="#95959a"/>
          <g id="Grupo_1236014" data-name="Grupo 1236014" transform="translate(91.692 81.059)">
            <path id="Trazado_1226546" data-name="Trazado 1226546" d="M454.47,332.215h-227.2a12,12,0,0,1-12-12V185.435a12,12,0,0,1,12-12h227.2a12,12,0,0,1,12,12v134.78A12,12,0,0,1,454.47,332.215Z" transform="translate(-215.267 -173.435)" fill="#1e476d"/>
            <g id="Grupo_1236006" data-name="Grupo 1236006" transform="translate(7.686 7.686)">
              <path id="Trazado_1226547" data-name="Trazado 1226547" d="M460.9,187.547a4.319,4.319,0,0,0-4.313-4.314H229.38a4.319,4.319,0,0,0-4.314,4.314v13.4H460.9v-13.4Z" transform="translate(-225.065 -183.233)" fill="#d7d8dc"/>
              <path id="Trazado_1226548" data-name="Trazado 1226548" d="M225.065,205.814V314.55a4.319,4.319,0,0,0,4.314,4.314h227.2a4.319,4.319,0,0,0,4.313-4.314V205.814Z" transform="translate(-225.065 -188.101)" fill="#097d8b"/>
            </g>
            <rect id="Rectángulo_423938" data-name="Rectángulo 423938" width="148.637" height="106.56" transform="translate(41.082 31.888)" fill="#ecedef"/>
            <g id="Grupo_1236009" data-name="Grupo 1236009" transform="translate(63.384 30.141)">
              <g id="Grupo_1236007" data-name="Grupo 1236007" transform="translate(0 3.074)" opacity="0.3">
                <text id="CMS" transform="translate(0 51)" fill="#211915" font-size="47" font-family="SegoeUI, Segoe UI"><tspan x="0" y="0">CMS</tspan></text>
              </g>
              <g id="Grupo_1236008" data-name="Grupo 1236008">
                <text id="CMS-2" data-name="CMS" transform="translate(0 51)" fill="#1e476d" font-size="47" font-family="SegoeUI, Segoe UI"><tspan x="0" y="0">CMS</tspan></text>
              </g>
            </g>
            <rect id="Rectángulo_423939" data-name="Rectángulo 423939" width="101.229" height="4.36" transform="translate(63.384 91.062)" fill="#da9500"/>
            <rect id="Rectángulo_423940" data-name="Rectángulo 423940" width="101.229" height="4.36" transform="translate(63.384 102.746)" fill="#adacb2"/>
            <rect id="Rectángulo_423941" data-name="Rectángulo 423941" width="101.229" height="4.36" transform="translate(63.384 114.43)" fill="#adacb2"/>
            <rect id="Rectángulo_423942" data-name="Rectángulo 423942" width="101.229" height="4.36" transform="translate(63.384 126.114)" fill="#adacb2"/>
            <rect id="Rectángulo_423943" data-name="Rectángulo 423943" width="180.385" height="10.564" transform="translate(37.312 10.735)" fill="#fff"/>
            <g id="Grupo_1236010" data-name="Grupo 1236010" transform="translate(222.178 14.768)">
              <path id="Trazado_1226549" data-name="Trazado 1226549" d="M502.059,194.036a1.774,1.774,0,1,1-1.774-1.774A1.775,1.775,0,0,1,502.059,194.036Z" transform="translate(-498.51 -192.262)" fill="#068695"/>
              <path id="Trazado_1226550" data-name="Trazado 1226550" d="M510.422,194.036a1.774,1.774,0,1,1-1.774-1.774A1.775,1.775,0,0,1,510.422,194.036Z" transform="translate(-500.313 -192.262)" fill="#e5b449"/>
              <path id="Trazado_1226551" data-name="Trazado 1226551" d="M518.785,194.036a1.774,1.774,0,1,1-1.774-1.774A1.775,1.775,0,0,1,518.785,194.036Z" transform="translate(-502.116 -192.262)" fill="#bf2f57"/>
            </g>
            <g id="Grupo_1236011" data-name="Grupo 1236011" transform="translate(12.238 14.841)">
              <path id="Trazado_1226552" data-name="Trazado 1226552" d="M234.815,192.355l-3.946,2.463,3.946,2.463" transform="translate(-230.869 -192.355)" fill="none" stroke="#868589" stroke-linecap="round" stroke-linejoin="round" stroke-miterlimit="10" stroke-width="1.387"/>
              <path id="Trazado_1226553" data-name="Trazado 1226553" d="M241.359,192.355l3.946,2.463-3.946,2.463" transform="translate(-233.131 -192.355)" fill="none" stroke="#868589" stroke-linecap="round" stroke-linejoin="round" stroke-miterlimit="10" stroke-width="1.387"/>
            </g>
            <g id="Grupo_1236012" data-name="Grupo 1236012" transform="translate(27.108 12.616)">
              <path id="Trazado_1226554" data-name="Trazado 1226554" d="M253.806,190.41l3.089,2.894h-1.341v3.176h-3.5V193.3h-1.341l3.088-2.894m0-.892a.888.888,0,0,0-.609.241l-3.089,2.894a.892.892,0,0,0,.609,1.542h.449v2.285a.892.892,0,0,0,.892.892h3.5a.892.892,0,0,0,.892-.892v-2.285h.449a.892.892,0,0,0,.609-1.542l-3.089-2.894a.891.891,0,0,0-.609-.241Z" transform="translate(-249.826 -189.518)" fill="#868589"/>
            </g>
            <path id="Trazado_1226555" data-name="Trazado 1226555" d="M480.4,271.015H449.258a2.474,2.474,0,0,1-2.473-2.473V232.42a2.474,2.474,0,0,1,2.473-2.473H480.4a2.473,2.473,0,0,1,2.473,2.473v36.122A2.473,2.473,0,0,1,480.4,271.015Z" transform="translate(-265.181 -185.619)" fill="#2f9fb6"/>
            <g id="Grupo_1236013" data-name="Grupo 1236013" transform="translate(196.907 46.851)">
              <circle id="Elipse_14153" data-name="Elipse 14153" cx="1.774" cy="1.774" r="1.774" fill="#068695"/>
              <path id="Trazado_1226556" data-name="Trazado 1226556" d="M478.206,234.937a1.774,1.774,0,1,1-1.774-1.774A1.775,1.775,0,0,1,478.206,234.937Z" transform="translate(-468.097 -233.163)" fill="#e5b449"/>
              <circle id="Elipse_14154" data-name="Elipse 14154" cx="1.774" cy="1.774" r="1.774" transform="translate(13.12)" fill="#bf2f57"/>
            </g>
            <path id="Trazado_1226557" data-name="Trazado 1226557" d="M452.04,266.741V240.712h27.85v26.029a2.474,2.474,0,0,1-2.473,2.473h-22.9A2.473,2.473,0,0,1,452.04,266.741Z" transform="translate(-266.314 -187.939)" fill="#fff"/>
            <path id="Trazado_1226558" data-name="Trazado 1226558" d="M470.2,255.4a5.837,5.837,0,1,0-4.946,0,6.887,6.887,0,0,0-4.75,6.545v8.035h14.446v-8.035A6.887,6.887,0,0,0,470.2,255.4Z" transform="translate(-268.137 -188.71)" fill="#adacb2"/>
          </g>
          <g id="Grupo_1236017" data-name="Grupo 1236017" transform="translate(32.202 138.941)">
            <path id="Trazado_1226559" data-name="Trazado 1226559" d="M250.645,313.586H141.9a2.473,2.473,0,0,1-2.473-2.473V249.7a2.474,2.474,0,0,1,2.473-2.473H250.645a2.474,2.474,0,0,1,2.473,2.473v61.414A2.473,2.473,0,0,1,250.645,313.586Z" transform="translate(-139.426 -247.225)" fill="#2f9fb6"/>
            <path id="Trazado_1226560" data-name="Trazado 1226560" d="M144.326,309.443V259.187h106v50.256a2.879,2.879,0,0,1-2.879,2.879H147.2A2.879,2.879,0,0,1,144.326,309.443Z" transform="translate(-140.482 -249.804)" fill="#fff"/>
            <g id="Grupo_1236015" data-name="Grupo 1236015" transform="translate(32.81 12.479)">
              <text id="_" data-name="&lt;/&gt;" transform="translate(0 33)" fill="#da9500" font-size="31" font-family="SegoeUI, Segoe UI"><tspan x="0" y="0">&lt;/&gt;</tspan></text>
            </g>
            <rect id="Rectángulo_423944" data-name="Rectángulo 423944" width="47.988" height="2.18" transform="translate(10.033 56.549)" fill="#adacb2"/>
            <g id="Grupo_1236016" data-name="Grupo 1236016" transform="translate(90.241 3.418)">
              <path id="Trazado_1226561" data-name="Trazado 1226561" d="M258.019,253.357a1.774,1.774,0,1,1-1.774-1.774A1.775,1.775,0,0,1,258.019,253.357Z" transform="translate(-254.47 -251.583)" fill="#068695"/>
              <path id="Trazado_1226562" data-name="Trazado 1226562" d="M266.382,253.357a1.774,1.774,0,1,1-1.774-1.774A1.775,1.775,0,0,1,266.382,253.357Z" transform="translate(-256.273 -251.583)" fill="#e5b449"/>
              <path id="Trazado_1226563" data-name="Trazado 1226563" d="M274.745,253.357a1.774,1.774,0,1,1-1.774-1.774A1.775,1.775,0,0,1,274.745,253.357Z" transform="translate(-258.076 -251.583)" fill="#bf2f57"/>
            </g>
          </g>
          <g id="Grupo_1236020" data-name="Grupo 1236020" transform="translate(358.526 159.65)">
            <g id="Grupo_1236018" data-name="Grupo 1236018" transform="translate(0 0)">
              <path id="Trazado_1226564" data-name="Trazado 1226564" d="M600.115,273.626H555.44V342.8h54.552V283.5Z" transform="translate(-555.44 -273.626)" fill="#d5d5d7"/>
              <path id="Trazado_1226565" data-name="Trazado 1226565" d="M612.394,283.5h9.877l-9.877-9.876Z" transform="translate(-567.719 -273.626)" fill="#c1c1c4"/>
            </g>
            <g id="Grupo_1236019" data-name="Grupo 1236019" transform="translate(6.56 16.635)">
              <rect id="Rectángulo_423945" data-name="Rectángulo 423945" width="41.443" height="3.208" transform="translate(0 6.143)" fill="#95959a"/>
              <rect id="Rectángulo_423946" data-name="Rectángulo 423946" width="41.443" height="3.208" fill="#95959a"/>
              <rect id="Rectángulo_423947" data-name="Rectángulo 423947" width="41.443" height="3.208" transform="translate(0 12.286)" fill="#95959a"/>
              <rect id="Rectángulo_423948" data-name="Rectángulo 423948" width="41.443" height="3.208" transform="translate(0 18.43)" fill="#95959a"/>
              <rect id="Rectángulo_423949" data-name="Rectángulo 423949" width="41.443" height="3.208" transform="translate(0 24.573)" fill="#95959a"/>
              <rect id="Rectángulo_423950" data-name="Rectángulo 423950" width="41.443" height="3.208" transform="translate(0 30.716)" fill="#95959a"/>
              <rect id="Rectángulo_423951" data-name="Rectángulo 423951" width="41.443" height="3.208" transform="translate(0 36.859)" fill="#95959a"/>
              <rect id="Rectángulo_423952" data-name="Rectángulo 423952" width="41.443" height="3.208" transform="translate(0 43.003)" fill="#95959a"/>
            </g>
          </g>
          <g id="Grupo_1236023" data-name="Grupo 1236023" transform="translate(323.979 137.534)">
            <g id="Grupo_1236021" data-name="Grupo 1236021">
              <path id="Trazado_1226566" data-name="Trazado 1226566" d="M556.073,245.432H511.4v69.174h54.552v-59.3Z" transform="translate(-511.397 -245.432)" fill="#ecedef"/>
              <path id="Trazado_1226567" data-name="Trazado 1226567" d="M568.352,255.309h9.876l-9.876-9.877Z" transform="translate(-523.676 -245.432)" fill="#d7d8dc"/>
            </g>
            <g id="Grupo_1236022" data-name="Grupo 1236022" transform="translate(6.56 16.635)">
              <rect id="Rectángulo_423953" data-name="Rectángulo 423953" width="41.443" height="3.208" transform="translate(0 6.143)" fill="#adacb2"/>
              <rect id="Rectángulo_423954" data-name="Rectángulo 423954" width="41.443" height="3.208" fill="#adacb2"/>
              <rect id="Rectángulo_423955" data-name="Rectángulo 423955" width="41.443" height="3.208" transform="translate(0 12.287)" fill="#adacb2"/>
              <rect id="Rectángulo_423956" data-name="Rectángulo 423956" width="41.443" height="3.208" transform="translate(0 18.43)" fill="#adacb2"/>
              <rect id="Rectángulo_423957" data-name="Rectángulo 423957" width="41.443" height="3.208" transform="translate(0 24.573)" fill="#adacb2"/>
              <rect id="Rectángulo_423958" data-name="Rectángulo 423958" width="41.443" height="3.208" transform="translate(0 30.717)" fill="#adacb2"/>
              <rect id="Rectángulo_423959" data-name="Rectángulo 423959" width="41.443" height="3.208" transform="translate(0 36.859)" fill="#adacb2"/>
              <rect id="Rectángulo_423960" data-name="Rectángulo 423960" width="41.443" height="3.208" transform="translate(0 43.003)" fill="#adacb2"/>
            </g>
          </g>
        </g>
        <g id="Grupo_1236025" data-name="Grupo 1236025" transform="translate(249.059 246.088)">
          <path id="Trazado_1226568" data-name="Trazado 1226568" d="M547,396.628H491.88V383.822H547a6.4,6.4,0,0,1,6.4,6.4h0A6.4,6.4,0,0,1,547,396.628Z" transform="translate(-432.269 -383.822)" fill="#1e476d"/>
          <rect id="Rectángulo_423961" data-name="Rectángulo 423961" width="3.901" height="9.474" transform="translate(55.709 1.665)" fill="#002353"/>
          <rect id="Rectángulo_423962" data-name="Rectángulo 423962" width="45.342" height="4.261" transform="translate(10.367 4.273)" fill="#95959a"/>
          <path id="Trazado_1226569" data-name="Trazado 1226569" d="M429.771,394.9l-13.886-1.546V388.4l13.886-1.547Z" transform="translate(-415.885 -384.475)" fill="#adacb2"/>
        </g>
      </g>
    </g>
  </g>
</svg>
