<svg xmlns="http://www.w3.org/2000/svg" width="33.611" height="40.352" viewBox="0 0 33.611 40.352">
  <g id="Grupo_1210916" data-name="Grupo 1210916" transform="translate(-215.859 -2356.713)">
    <g id="g2860" transform="translate(223.98 2357.313)">
      <path id="path2862" d="M-250.089-188.558c0,3.441-3.909,8.038-8.688,8.038s-8.688-4.6-8.688-8.038v-6.6a6.516,6.516,0,0,1,6.5-6.5h10.879Z" transform="translate(267.465 201.658)" fill="none" stroke="#5c2c88" stroke-miterlimit="22.926" stroke-width="1.2"/>
    </g>
    <g id="g2864" transform="translate(223.98 2364.136)">
      <path id="path2866" d="M0-42.827,2.975-45.8l14.4,2.879" transform="translate(0 45.803)" fill="none" stroke="#5c2c88" stroke-miterlimit="22.926" stroke-width="1.2"/>
    </g>
    <g id="g2868" transform="translate(216.503 2377.729)">
      <path id="path2870" d="M-360.056-269.66h7.307l-.466-6.584c-.288-4.076-1.146-5.274-4.984-6.672l-7.178-2.614-.283-2.866m3.006,18.735h1.3M-372.161-288.4l-.283,2.866-7.178,2.614c-3.839,1.4-4.7,2.6-4.984,6.672l-.466,6.584h21.118" transform="translate(385.072 288.395)" fill="none" stroke="#5c2c88" stroke-miterlimit="22.926" stroke-width="1.2"/>
    </g>
    <g id="g2872" transform="translate(229.131 2380.595)">
      <path id="path2874" d="M-101.709,0a3.533,3.533,0,0,1-3.533,3.533A3.533,3.533,0,0,1-108.776,0" transform="translate(108.776)" fill="none" stroke="#5c2c88" stroke-miterlimit="22.926" stroke-width="1.2"/>
    </g>
    <g id="g2876" transform="translate(221.451 2386.727)">
      <path id="path2878" d="M-322.773-140.16V-148.6a1.3,1.3,0,0,0-1.3-1.3H-343.9a1.3,1.3,0,0,0-1.3,1.3v8.439" transform="translate(345.199 149.898)" fill="none" stroke="#5c2c88" stroke-miterlimit="22.926" stroke-width="1.2"/>
    </g>
    <g id="g2892" transform="translate(235.509 2359.912)">
      <path id="path2894" d="M0,0H1.3M2.6,0H3.9" fill="none" stroke="#5c2c88" stroke-miterlimit="2.613" stroke-width="1.2"/>
    </g>
    <g id="g2896" transform="translate(230.066 2393.866)">
      <path id="path2898" d="M0-37.4A2.6,2.6,0,0,1,2.6-40a2.6,2.6,0,0,1,2.6,2.6" transform="translate(0 40)" fill="none" stroke="#5c2c88" stroke-miterlimit="22.926" stroke-width="1.2"/>
    </g>
  </g>
</svg>
