<svg xmlns="http://www.w3.org/2000/svg" xmlns:xlink="http://www.w3.org/1999/xlink" width="113" height="113" viewBox="0 0 113 113">
  <defs>
    <filter id="Trazado_982547" x="0" y="0" width="113" height="113" filterUnits="userSpaceOnUse">
      <feOffset dy="3" input="SourceAlpha"/>
      <feGaussianBlur stdDeviation="3" result="blur"/>
      <feFlood flood-opacity="0.161"/>
      <feComposite operator="in" in2="blur"/>
      <feComposite in="SourceGraphic"/>
    </filter>
  </defs>
  <g id="Grupo_1236144" data-name="Grupo 1236144" transform="translate(-797 -2793.119)">
    <g id="Grupo_1235105" data-name="Grupo 1235105" transform="translate(3.131 2004.79)">
      <g id="Grupo_1223793" data-name="Grupo 1223793" transform="translate(0.869 -700.672)">
        <g id="Grupo_1208028" data-name="Grupo 1208028" transform="translate(-0.49 -4138.425)">
          <g id="Grupo_1177675" data-name="Grupo 1177675" transform="translate(-4493 3707.152)">
            <g id="Grupo_1176928" data-name="Grupo 1176928" transform="translate(5295.49 1926.273)">
              <g id="Grupo_1172322" data-name="Grupo 1172322" transform="translate(0 0)">
                <g id="Grupo_1164700" data-name="Grupo 1164700">
                  <g id="Grupo_1160931" data-name="Grupo 1160931">
                    <g id="Grupo_1160749" data-name="Grupo 1160749">
                      <g id="Grupo_1158891" data-name="Grupo 1158891">
                        <g id="Grupo_1157406" data-name="Grupo 1157406">
                          <g id="Grupo_1155793" data-name="Grupo 1155793">
                            <g id="Grupo_1154704" data-name="Grupo 1154704">
                              <g id="Grupo_1150790" data-name="Grupo 1150790">
                                <g id="Grupo_1154214" data-name="Grupo 1154214">
                                  <g id="Grupo_1152583" data-name="Grupo 1152583">
                                    <g id="Grupo_1146973" data-name="Grupo 1146973">
                                      <g id="Grupo_1146954" data-name="Grupo 1146954">
                                        <g transform="matrix(1, 0, 0, 1, -9, -6)" filter="url(#Trazado_982547)">
                                          <g id="Trazado_982547-2" data-name="Trazado 982547" transform="translate(9 6)" fill="#eddbfd">
                                            <path d="M 47.5000114440918 93.49987030029297 C 41.28938293457031 93.49987030029297 35.26534652709961 92.28384399414062 29.5951976776123 89.88558959960938 C 24.11773109436035 87.56881713867188 19.19814491271973 84.25183868408203 14.97310447692871 80.02680206298828 C 10.74805164337158 75.80176544189453 7.43107795715332 70.88218688964844 5.114304542541504 65.40472412109375 C 2.716038227081299 59.73458862304688 1.500011444091797 53.71054840087891 1.500011444091797 47.49993515014648 C 1.500011444091797 41.28932189941406 2.716038227081299 35.26528167724609 5.114304542541504 29.59514808654785 C 7.43107795715332 24.1176815032959 10.74805164337158 19.1981086730957 14.97310447692871 14.97306823730469 C 19.19814491271973 10.74802875518799 24.11773109436035 7.431055068969727 29.5951976776123 5.11428165435791 C 35.26534652709961 2.716028451919556 41.28938293457031 1.500001788139343 47.5000114440918 1.500001788139343 C 53.71063995361328 1.500001788139343 59.73467636108398 2.716028451919556 65.40482330322266 5.11428165435791 C 70.88229370117188 7.431055068969727 75.8018798828125 10.74802875518799 80.02691650390625 14.97306823730469 C 84.25196838378906 19.1981086730957 87.56894683837891 24.1176815032959 89.88571929931641 29.59514808654785 C 92.28398132324219 35.26528167724609 93.50001525878906 41.28932189941406 93.50001525878906 47.49993515014648 C 93.50001525878906 53.71054840087891 92.28398132324219 59.73458862304688 89.88571929931641 65.40472412109375 C 87.56894683837891 70.88218688964844 84.25196838378906 75.80176544189453 80.02691650390625 80.02680206298828 C 75.8018798828125 84.25183868408203 70.88229370117188 87.56881713867188 65.40482330322266 89.88558959960938 C 59.73467636108398 92.28384399414062 53.71063995361328 93.49987030029297 47.5000114440918 93.49987030029297 Z" stroke="none"/>
                                            <path d="M 47.5000114440918 3 C 41.49122619628906 3 35.66378021240234 4.1761474609375 30.17951965332031 6.495796203613281 C 24.880859375 8.7369384765625 20.12153625488281 11.94596862792969 16.03376770019531 16.03373718261719 C 11.94598388671875 20.12149047851562 8.736968994140625 24.88081359863281 6.495811462402344 30.17947387695312 C 4.176162719726562 35.66371917724609 3.000007629394531 41.49116516113281 3.000007629394531 47.49993515014648 C 3.000007629394531 53.50870513916016 4.176162719726562 59.33615112304688 6.495811462402344 64.82039642333984 C 8.736968994140625 70.11905670166016 11.94598388671875 74.87837982177734 16.03376770019531 78.96613311767578 C 20.12153625488281 83.05390167236328 24.880859375 86.26293182373047 30.17951965332031 88.50407409667969 C 35.66378021240234 90.82372283935547 41.49122619628906 91.99987030029297 47.5000114440918 91.99987030029297 C 53.50879669189453 91.99987030029297 59.33624267578125 90.82372283935547 64.82050323486328 88.50407409667969 C 70.11916351318359 86.26293182373047 74.87848663330078 83.05390167236328 78.96625518798828 78.96613311767578 C 83.05403900146484 74.87837982177734 86.2630615234375 70.11905670166016 88.50421142578125 64.82039642333984 C 90.82386016845703 59.33615112304688 92.00001525878906 53.50870513916016 92.00001525878906 47.49993515014648 C 92.00001525878906 41.49116516113281 90.82386016845703 35.66371917724609 88.50421142578125 30.17947387695312 C 86.2630615234375 24.88081359863281 83.05403900146484 20.12149047851562 78.96625518798828 16.03373718261719 C 74.87848663330078 11.94596862792969 70.11916351318359 8.7369384765625 64.82050323486328 6.495796203613281 C 59.33624267578125 4.1761474609375 53.50879669189453 3 47.5000114440918 3 M 47.5000114440918 0 C 73.73353576660156 0 95.00001525878906 21.26644134521484 95.00001525878906 47.49993515014648 C 95.00001525878906 73.73342895507812 73.73353576660156 94.99987030029297 47.5000114440918 94.99987030029297 C 21.26648712158203 94.99987030029297 7.62939453125e-06 73.73342895507812 7.62939453125e-06 47.49993515014648 C 7.62939453125e-06 21.26644134521484 21.26648712158203 0 47.5000114440918 0 Z" stroke="none" fill="#aa52f9"/>
                                          </g>
                                        </g>
                                      </g>
                                    </g>
                                  </g>
                                </g>
                              </g>
                            </g>
                          </g>
                        </g>
                      </g>
                    </g>
                  </g>
                </g>
              </g>
            </g>
          </g>
        </g>
      </g>
    </g>
    <g id="informacion-personal" transform="translate(858.156 2817.197)">
      <g id="Grupo_1236143" data-name="Grupo 1236143" transform="translate(-39.156 1.913)">
        <g id="Grupo_1236140" data-name="Grupo 1236140" transform="translate(14.935)">
          <path id="Trazado_1226652" data-name="Trazado 1226652" d="M138.6,17.337V36a20.221,20.221,0,0,1-8.659,16.888L115.319,63.4,100.7,52.888A20.222,20.222,0,0,1,92.038,36V17.337c17.647-11.116,28.914-11.116,46.561,0Z" transform="translate(-92.038 -9.001)" fill="#17a45a" fill-rule="evenodd"/>
          <path id="Trazado_1226653" data-name="Trazado 1226653" d="M167.356,52.77c-14.42-8.614-23.664-8.614-38.084,0V69.062a15.989,15.989,0,0,0,6.894,13.446l12.148,8.731,12.147-8.731a15.99,15.99,0,0,0,6.895-13.446Z" transform="translate(-125.033 -42.062)" fill="#22c269" fill-rule="evenodd"/>
        </g>
        <g id="Grupo_1236141" data-name="Grupo 1236141" transform="translate(27.076 7.51)">
          <path id="Trazado_1226654" data-name="Trazado 1226654" d="M229.741,90.192h3.615V82.575a3.99,3.99,0,0,1,7.981,0v7.617h3.615V82.575a7.605,7.605,0,0,0-15.21,0Z" transform="translate(-226.207 -74.97)" fill="#29343f" fill-rule="evenodd"/>
          <path id="Trazado_1226655" data-name="Trazado 1226655" d="M201.061,176.933h17.555a2.368,2.368,0,0,1,2.362,2.362v14.285a2.368,2.368,0,0,1-2.362,2.362H201.061a2.368,2.368,0,0,1-2.361-2.362V179.294A2.368,2.368,0,0,1,201.061,176.933Z" transform="translate(-198.7 -165.326)" fill="#ffe600" fill-rule="evenodd"/>
          <path id="Trazado_1226656" data-name="Trazado 1226656" d="M275.561,226.628v2.186a1.332,1.332,0,1,1-2.664,0v-2.186a2.867,2.867,0,1,1,2.664,0Z" transform="translate(-263.09 -204.572)" fill="#29343f" fill-rule="evenodd"/>
        </g>
        <g id="Grupo_1236142" data-name="Grupo 1236142" transform="translate(0 23.016)">
          <circle id="Elipse_14156" data-name="Elipse 14156" cx="13.76" cy="13.76" r="13.76" transform="translate(0 19.456) rotate(-45)" fill="#7ed0ed"/>
          <circle id="Elipse_14157" data-name="Elipse 14157" cx="4.141" cy="4.141" r="4.141" transform="translate(15.321 11.212)" fill="#ffd6bd"/>
          <path id="Trazado_1226657" data-name="Trazado 1226657" d="M80.051,389.353a7.662,7.662,0,0,0-15.251,0,.681.681,0,0,0,.68.75h13.89A.681.681,0,0,0,80.051,389.353Z" transform="translate(-52.964 -362.946)" fill="#4294ff" fill-rule="evenodd"/>
        </g>
      </g>
      <path id="Trazado_1226658" data-name="Trazado 1226658" d="M10.92,50.036a6.762,6.762,0,0,1,6.689-5.84h0a6.762,6.762,0,0,1,6.689,5.84Zm3.459-10.892a3.231,3.231,0,1,1,3.232,3.231h0a3.234,3.234,0,0,1-3.23-3.231Zm6.474,3.87a5.052,5.052,0,1,0-6.486,0,8.584,8.584,0,0,0-5.33,7.933.91.91,0,0,0,.911.911H25.272a.91.91,0,0,0,.911-.911,8.584,8.584,0,0,0-5.33-7.933Zm15.51-16.033a1.957,1.957,0,0,1,.907,3.69.91.91,0,0,0-.486.806v2.186a.421.421,0,1,1-.842,0V31.477a.912.912,0,0,0-.487-.806,1.957,1.957,0,0,1,.908-3.69Zm-2.242,5v1.684a2.242,2.242,0,1,0,4.485,0V31.979a3.778,3.778,0,1,0-4.485,0Zm24.612-3.066V10.753C41.86.239,30.865.239,13.994,10.753V28.913c0,.417.012.834.035,1.248a14.56,14.56,0,0,1,2.4-.4c-.013-.283-.019-.568-.019-.853V12.62a.91.91,0,0,1,.444-.782C24.482,7.281,30.5,5.249,36.363,5.249s11.88,2.032,19.509,6.589a.912.912,0,0,1,.443.782V28.913A16.844,16.844,0,0,1,49.042,43.1L36.895,51.829a.913.913,0,0,1-1.064,0L31.6,48.791a14.673,14.673,0,0,1-.946,2.3l5.7,4.1L50.453,45.06a19.42,19.42,0,0,0,8.28-16.148ZM45.14,21.939a1.453,1.453,0,0,1,1.452,1.451V37.675a1.453,1.453,0,0,1-1.452,1.451H31.3a14.75,14.75,0,0,0-5.168-6.671V23.39a1.452,1.452,0,0,1,1.45-1.451Zm-5.7-1.821h-6.16V17.027a3.08,3.08,0,0,1,6.16,0Zm3.615,0H41.264V17.027a4.9,4.9,0,1,0-9.8,0v3.091H29.668V17.027a6.695,6.695,0,0,1,13.39,0v3.091ZM18.231,28.913c0,.274.006.548.018.82a14.578,14.578,0,0,1,6.064,1.608V23.39a3.275,3.275,0,0,1,3.271-3.272h.262V17.027a8.516,8.516,0,0,1,17.032,0v3.091h.26a3.276,3.276,0,0,1,3.273,3.272V37.675a3.276,3.276,0,0,1-3.273,3.272H31.871a14.7,14.7,0,0,1,.2,5.933l4.3,3.088,11.616-8.349a15.088,15.088,0,0,0,6.515-12.707V13.138c-13.661-8.049-22.6-8.049-36.263,0V28.913ZM17.61,57.236A12.848,12.848,0,1,0,4.761,44.387,12.863,12.863,0,0,0,17.61,57.236ZM60.129,9.479C50.821,3.616,43.491,1,36.362,1S21.9,3.616,12.6,9.479a.912.912,0,0,0-.425.77V28.913c0,.611.024,1.22.069,1.822a14.669,14.669,0,1,0,17.48,21.922l6.11,4.392a.909.909,0,0,0,1.064,0L51.516,46.54a21.2,21.2,0,0,0,9.039-17.627V10.249a.91.91,0,0,0-.426-.77Z" transform="translate(-37.304)" fill-rule="evenodd"/>
    </g>
  </g>
</svg>
