<svg xmlns="http://www.w3.org/2000/svg" xmlns:xlink="http://www.w3.org/1999/xlink" width="113" height="113" viewBox="0 0 113 113">
  <defs>
    <filter id="Trazado_982547" x="0" y="0" width="113" height="113" filterUnits="userSpaceOnUse">
      <feOffset dy="3" input="SourceAlpha"/>
      <feGaussianBlur stdDeviation="3" result="blur"/>
      <feFlood flood-opacity="0.161"/>
      <feComposite operator="in" in2="blur"/>
      <feComposite in="SourceGraphic"/>
    </filter>
  </defs>
  <g id="Grupo_1236145" data-name="Grupo 1236145" transform="translate(-1112 -2793.118)">
    <g id="Grupo_1235107" data-name="Grupo 1235107" transform="translate(-0.869 2004.79)">
      <g id="Grupo_1223796" data-name="Grupo 1223796" transform="translate(0.869 -700.672)">
        <g id="Grupo_1208038" data-name="Grupo 1208038" transform="translate(0 -4138.425)">
          <g id="Grupo_1202104" data-name="Grupo 1202104" transform="translate(0 -1149.226)">
            <g id="Grupo_1201923" data-name="Grupo 1201923" transform="translate(-4174.49 4856.378)">
              <g id="Grupo_1176928" data-name="Grupo 1176928" transform="translate(5295.49 1926.273)">
                <g id="Grupo_1172322" data-name="Grupo 1172322" transform="translate(0 0)">
                  <g id="Grupo_1164700" data-name="Grupo 1164700">
                    <g id="Grupo_1160931" data-name="Grupo 1160931">
                      <g id="Grupo_1160749" data-name="Grupo 1160749">
                        <g id="Grupo_1158891" data-name="Grupo 1158891">
                          <g id="Grupo_1157406" data-name="Grupo 1157406">
                            <g id="Grupo_1155793" data-name="Grupo 1155793">
                              <g id="Grupo_1154704" data-name="Grupo 1154704">
                                <g id="Grupo_1150790" data-name="Grupo 1150790">
                                  <g id="Grupo_1154214" data-name="Grupo 1154214">
                                    <g id="Grupo_1152583" data-name="Grupo 1152583">
                                      <g id="Grupo_1146973" data-name="Grupo 1146973">
                                        <g id="Grupo_1146954" data-name="Grupo 1146954">
                                          <g transform="matrix(1, 0, 0, 1, -9, -6)" filter="url(#Trazado_982547)">
                                            <g id="Trazado_982547-2" data-name="Trazado 982547" transform="translate(9 6)" fill="#eddbfd">
                                              <path d="M 47.5000114440918 93.49987030029297 C 41.28938293457031 93.49987030029297 35.26534652709961 92.28384399414062 29.5951976776123 89.88558959960938 C 24.11773109436035 87.56881713867188 19.19814491271973 84.25183868408203 14.97310447692871 80.02680206298828 C 10.74805164337158 75.80176544189453 7.43107795715332 70.88218688964844 5.114304542541504 65.40472412109375 C 2.716038227081299 59.73458862304688 1.500011444091797 53.71054840087891 1.500011444091797 47.49993515014648 C 1.500011444091797 41.28932189941406 2.716038227081299 35.26528167724609 5.114304542541504 29.59514808654785 C 7.43107795715332 24.1176815032959 10.74805164337158 19.1981086730957 14.97310447692871 14.97306823730469 C 19.19814491271973 10.74802875518799 24.11773109436035 7.431055068969727 29.5951976776123 5.11428165435791 C 35.26534652709961 2.716028451919556 41.28938293457031 1.500001788139343 47.5000114440918 1.500001788139343 C 53.71063995361328 1.500001788139343 59.73467636108398 2.716028451919556 65.40482330322266 5.11428165435791 C 70.88229370117188 7.431055068969727 75.8018798828125 10.74802875518799 80.02691650390625 14.97306823730469 C 84.25196838378906 19.1981086730957 87.56894683837891 24.1176815032959 89.88571929931641 29.59514808654785 C 92.28398132324219 35.26528167724609 93.50001525878906 41.28932189941406 93.50001525878906 47.49993515014648 C 93.50001525878906 53.71054840087891 92.28398132324219 59.73458862304688 89.88571929931641 65.40472412109375 C 87.56894683837891 70.88218688964844 84.25196838378906 75.80176544189453 80.02691650390625 80.02680206298828 C 75.8018798828125 84.25183868408203 70.88229370117188 87.56881713867188 65.40482330322266 89.88558959960938 C 59.73467636108398 92.28384399414062 53.71063995361328 93.49987030029297 47.5000114440918 93.49987030029297 Z" stroke="none"/>
                                              <path d="M 47.5000114440918 3 C 41.49122619628906 3 35.66378021240234 4.1761474609375 30.17951965332031 6.495796203613281 C 24.880859375 8.7369384765625 20.12153625488281 11.94596862792969 16.03376770019531 16.03373718261719 C 11.94598388671875 20.12149047851562 8.736968994140625 24.88081359863281 6.495811462402344 30.17947387695312 C 4.176162719726562 35.66371917724609 3.000007629394531 41.49116516113281 3.000007629394531 47.49993515014648 C 3.000007629394531 53.50870513916016 4.176162719726562 59.33615112304688 6.495811462402344 64.82039642333984 C 8.736968994140625 70.11905670166016 11.94598388671875 74.87837982177734 16.03376770019531 78.96613311767578 C 20.12153625488281 83.05390167236328 24.880859375 86.26293182373047 30.17951965332031 88.50407409667969 C 35.66378021240234 90.82372283935547 41.49122619628906 91.99987030029297 47.5000114440918 91.99987030029297 C 53.50879669189453 91.99987030029297 59.33624267578125 90.82372283935547 64.82050323486328 88.50407409667969 C 70.11916351318359 86.26293182373047 74.87848663330078 83.05390167236328 78.96625518798828 78.96613311767578 C 83.05403900146484 74.87837982177734 86.2630615234375 70.11905670166016 88.50421142578125 64.82039642333984 C 90.82386016845703 59.33615112304688 92.00001525878906 53.50870513916016 92.00001525878906 47.49993515014648 C 92.00001525878906 41.49116516113281 90.82386016845703 35.66371917724609 88.50421142578125 30.17947387695312 C 86.2630615234375 24.88081359863281 83.05403900146484 20.12149047851562 78.96625518798828 16.03373718261719 C 74.87848663330078 11.94596862792969 70.11916351318359 8.7369384765625 64.82050323486328 6.495796203613281 C 59.33624267578125 4.1761474609375 53.50879669189453 3 47.5000114440918 3 M 47.5000114440918 0 C 73.73353576660156 0 95.00001525878906 21.26644134521484 95.00001525878906 47.49993515014648 C 95.00001525878906 73.73342895507812 73.73353576660156 94.99987030029297 47.5000114440918 94.99987030029297 C 21.26648712158203 94.99987030029297 7.62939453125e-06 73.73342895507812 7.62939453125e-06 47.49993515014648 C 7.62939453125e-06 21.26644134521484 21.26648712158203 0 47.5000114440918 0 Z" stroke="none" fill="#aa52f9"/>
                                            </g>
                                          </g>
                                        </g>
                                      </g>
                                    </g>
                                  </g>
                                </g>
                              </g>
                            </g>
                          </g>
                        </g>
                      </g>
                    </g>
                  </g>
                </g>
              </g>
            </g>
          </g>
        </g>
      </g>
    </g>
    <g id="ficha-de-datos-de-seguridad" transform="translate(1083.827 2816.845)">
      <path id="Trazado_1226659" data-name="Trazado 1226659" d="M112.976,9.245A1.745,1.745,0,0,0,111.232,7.5H71.37a1.745,1.745,0,0,0-1.745,1.745V63.557A1.745,1.745,0,0,0,71.37,65.3h21.4c3.856,0,8.188-2.435,10.914-5.161l4.128-4.128c2.726-2.726,5.161-7.059,5.161-10.914V9.245Z" transform="translate(-6.628 -6.628)" fill="#d8ecfe"/>
      <path id="Trazado_1226660" data-name="Trazado 1226660" d="M111.232,7.5h-.465V42.772c0,.023,0,.045,0,.068a7.56,7.56,0,0,1-7.559,7.492h-2.175a2.909,2.909,0,0,0-2.909,2.909v2.175a7.56,7.56,0,0,1-7.492,7.559H69.625v.582A1.745,1.745,0,0,0,71.37,65.3h21.4c3.856,0,8.188-2.435,10.914-5.161l4.128-4.128c2.726-2.726,5.161-7.059,5.161-10.914V9.245A1.745,1.745,0,0,0,111.232,7.5Z" transform="translate(-6.628 -6.628)" fill="#c4e2ff"/>
      <path id="Trazado_1226661" data-name="Trazado 1226661" d="M279.57,345.824c-2.726,2.726-7.059,5.161-10.914,5.161h18.459a1.744,1.744,0,0,0,1.745-1.744V330.781c0,3.856-2.435,8.188-5.161,10.914Z" transform="translate(-182.511 -292.311)" fill="#c4e2ff"/>
      <path id="Trazado_1226662" data-name="Trazado 1226662" d="M280.474,346.727a14.537,14.537,0,0,1-10.28,4.258h-1.538a7.56,7.56,0,0,0,7.56-7.56v-3.34a1.745,1.745,0,0,1,1.745-1.744h3.34a7.56,7.56,0,0,0,7.56-7.56v1.538A14.538,14.538,0,0,1,284.6,342.6Z" transform="translate(-182.512 -292.311)" fill="#eaf6ff"/>
      <path id="Trazado_1226663" data-name="Trazado 1226663" d="M187.951,221.442,180.015,207.7a2.326,2.326,0,0,0-4.029,0l-7.936,13.745a2.326,2.326,0,0,0,2.014,3.489h15.871A2.326,2.326,0,0,0,187.951,221.442Z" transform="translate(-93.328 -182.514)" fill="#ffc344"/>
      <path id="Trazado_1226664" data-name="Trazado 1226664" d="M104.6,0H64.742a2.62,2.62,0,0,0-2.617,2.617v10.7a.872.872,0,1,0,1.745,0V2.617a.873.873,0,0,1,.872-.872H104.6a.873.873,0,0,1,.872.872V38.47a6.7,6.7,0,0,1-6.687,6.687h-3.34a2.62,2.62,0,0,0-2.617,2.617v2.8H68.416a.872.872,0,1,0,0,1.745H92.723A6.7,6.7,0,0,1,86.145,57.8h-21.4a.873.873,0,0,1-.872-.872V17.384a.872.872,0,1,0-1.745,0V56.929a2.62,2.62,0,0,0,2.617,2.617H104.6a2.62,2.62,0,0,0,2.617-2.617V2.617A2.62,2.62,0,0,0,104.6,0ZM94.577,51.114v-3.34a.873.873,0,0,1,.872-.872h3.34a8.4,8.4,0,0,0,5.96-2.473,13.612,13.612,0,0,1-3.275,5.242L97.345,53.8A13.612,13.612,0,0,1,92.1,57.074,8.4,8.4,0,0,0,94.577,51.114Zm10.9,5.815a.873.873,0,0,1-.872.872H94.821a15.454,15.454,0,0,0,3.758-2.769l4.128-4.128a15.46,15.46,0,0,0,2.769-3.758Z"/>
      <path id="Trazado_1226665" data-name="Trazado 1226665" d="M250.244,249.372a.872.872,0,1,0-1.744,0v5.419a.872.872,0,0,0,1.744,0Z" transform="translate(-164.699 -219.599)"/>
      <circle id="Elipse_14158" data-name="Elipse 14158" cx="0.872" cy="0.872" r="0.872" transform="translate(83.801 37.932)"/>
      <path id="Trazado_1226666" data-name="Trazado 1226666" d="M172.62,201.505l5.211,9.025a.872.872,0,1,0,1.511-.872l-5.211-9.025a3.2,3.2,0,0,0-5.539,0l-7.936,13.745a3.2,3.2,0,0,0,2.77,4.8H179.3a3.2,3.2,0,0,0,2.77-4.8l-.695-1.2a.872.872,0,0,0-1.511.872l.695,1.2a1.454,1.454,0,0,1-1.259,2.181H163.425a1.454,1.454,0,0,1-1.259-2.181l7.936-13.745a1.454,1.454,0,0,1,2.518,0Z" transform="translate(-86.688 -175.886)"/>
      <path id="Trazado_1226667" data-name="Trazado 1226667" d="M109.591,405.557h5.419a.872.872,0,0,0,0-1.745h-5.419a.872.872,0,0,0,0,1.745Z" transform="translate(-41.175 -356.848)"/>
      <path id="Trazado_1226668" data-name="Trazado 1226668" d="M109.591,203.649h5.419a.872.872,0,1,0,0-1.744h-5.419a.872.872,0,1,0,0,1.744Z" transform="translate(-41.175 -178.422)"/>
      <path id="Trazado_1226669" data-name="Trazado 1226669" d="M348.85,202.776a.872.872,0,0,0-.872-.872h-5.419a.872.872,0,1,0,0,1.744h5.419A.872.872,0,0,0,348.85,202.776Z" transform="translate(-247.049 -178.422)"/>
      <path id="Trazado_1226670" data-name="Trazado 1226670" d="M108.719,171.714a.872.872,0,0,0,.872.872H142.1a.872.872,0,0,0,0-1.745H109.591A.872.872,0,0,0,108.719,171.714Z" transform="translate(-41.175 -150.973)"/>
      <path id="Trazado_1226671" data-name="Trazado 1226671" d="M228.785,59.176a3.586,3.586,0,0,0,3.582-3.582V50.176a3.586,3.586,0,0,0-3.582-3.582h-2.709a.872.872,0,0,0-.872.872V58.3a.872.872,0,0,0,.872.872h2.709Zm-1.837-10.838h1.837a1.839,1.839,0,0,1,1.837,1.837v5.419a1.839,1.839,0,0,1-1.837,1.837h-1.837Z" transform="translate(-144.112 -41.175)"/>
      <path id="Trazado_1226672" data-name="Trazado 1226672" d="M314.208,48.339a1.839,1.839,0,0,1,1.775,1.361.872.872,0,0,0,1.686-.45,3.582,3.582,0,1,0-3.461,4.508,1.837,1.837,0,1,1-1.775,2.313.872.872,0,0,0-1.686.45,3.582,3.582,0,1,0,3.461-4.508,1.837,1.837,0,1,1,0-3.674Z" transform="translate(-219.6 -41.175)"/>
      <path id="Trazado_1226673" data-name="Trazado 1226673" d="M143.363,48.339a1.839,1.839,0,0,1,1.775,1.361.872.872,0,1,0,1.685-.45,3.582,3.582,0,1,0-3.46,4.508,1.837,1.837,0,1,1-1.775,2.313.872.872,0,0,0-1.685.45,3.582,3.582,0,1,0,3.46-4.508,1.837,1.837,0,1,1,0-3.674Z" transform="translate(-68.625 -41.175)"/>
    </g>
  </g>
</svg>
