<svg xmlns="http://www.w3.org/2000/svg" xmlns:xlink="http://www.w3.org/1999/xlink" width="108" height="108" viewBox="0 0 108 108">
  <defs>
    <filter id="Trazado_904820" x="0" y="0" width="108" height="108" filterUnits="userSpaceOnUse">
      <feOffset dy="3" input="SourceAlpha"/>
      <feGaussianBlur stdDeviation="3" result="blur"/>
      <feFlood flood-opacity="0.161"/>
      <feComposite operator="in" in2="blur"/>
      <feComposite in="SourceGraphic"/>
    </filter>
  </defs>
  <g id="Grupo_1236302" data-name="Grupo 1236302" transform="translate(-620 -4459)">
    <g id="Grupo_1233926" data-name="Grupo 1233926" transform="translate(5 3466)">
      <g id="Grupo_1230980" data-name="Grupo 1230980" transform="translate(624 999)">
        <g id="Grupo_1230695" data-name="Grupo 1230695" transform="translate(0 0)">
          <g id="Grupo_1224979" data-name="Grupo 1224979">
            <g id="Grupo_1173585" data-name="Grupo 1173585">
              <g id="Grupo_1173428" data-name="Grupo 1173428">
                <g id="Grupo_1171958" data-name="Grupo 1171958">
                  <g id="Grupo_1167341" data-name="Grupo 1167341">
                    <g id="Grupo_1166792" data-name="Grupo 1166792">
                      <g transform="matrix(1, 0, 0, 1, -9, -6)" filter="url(#Trazado_904820)">
                        <g id="Trazado_904820-2" data-name="Trazado 904820" transform="translate(9 6)" fill="#e5ebfb">
                          <path d="M 44.99999618530273 88.50003051757812 C 39.12687301635742 88.50003051757812 33.43022155761719 87.35010528564453 28.06829643249512 85.08219146728516 C 22.88852119445801 82.89134216308594 18.23629570007324 79.75461578369141 14.24084663391113 75.75916290283203 C 10.24540901184082 71.76371765136719 7.108683586120605 67.11148834228516 4.917821407318115 61.93171691894531 C 2.649921178817749 56.56978988647461 1.499996185302734 50.87313842773438 1.499996185302734 45.00001525878906 C 1.499996185302734 39.12689208984375 2.649921178817749 33.43024063110352 4.917821407318115 28.06830215454102 C 7.108683586120605 22.88852691650391 10.24540901184082 18.23631477355957 14.24084663391113 14.24086570739746 C 18.23629570007324 10.24541568756104 22.88852119445801 7.10869026184082 28.06829643249512 4.917827606201172 C 33.43022155761719 2.649927854537964 39.12687301635742 1.50000274181366 44.99999618530273 1.50000274181366 C 50.87311935424805 1.50000274181366 56.56977081298828 2.649927854537964 61.93169784545898 4.917827606201172 C 67.11147308349609 7.10869026184082 71.76369476318359 10.24541568756104 75.75914764404297 14.24086570739746 C 79.75458526611328 18.23631477355957 82.89131164550781 22.88852691650391 85.08216857910156 28.06830215454102 C 87.35007476806641 33.43024063110352 88.5 39.12689208984375 88.5 45.00001525878906 C 88.5 50.87313842773438 87.35007476806641 56.56978988647461 85.08216857910156 61.93171691894531 C 82.89131164550781 67.11148834228516 79.75458526611328 71.76371765136719 75.75914764404297 75.75916290283203 C 71.76369476318359 79.75461578369141 67.11147308349609 82.89134216308594 61.93169784545898 85.08219146728516 C 56.56977081298828 87.35010528564453 50.87311935424805 88.50003051757812 44.99999618530273 88.50003051757812 Z" stroke="none"/>
                          <path d="M 44.99999618530273 3 C 39.32870864868164 3 33.82865142822266 4.110061645507812 28.65262603759766 6.299346923828125 C 23.65165710449219 8.414573669433594 19.15968322753906 11.44334411621094 15.301513671875 15.301513671875 C 11.44333648681641 19.15968322753906 8.414566040039062 23.65165710449219 6.299339294433594 28.65262985229492 C 4.110054016113281 33.82867050170898 2.999992370605469 39.32872772216797 2.999992370605469 45.00001525878906 C 2.999992370605469 50.67130279541016 4.110054016113281 56.17136001586914 6.299339294433594 61.34738922119141 C 8.414566040039062 66.34837341308594 11.44333648681641 70.84033203125 15.301513671875 74.69850158691406 C 19.15968322753906 78.55668640136719 23.65165710449219 81.58545684814453 28.65262603759766 83.70068359375 C 33.82865142822266 85.88996887207031 39.32870864868164 87.00003051757812 44.99999618530273 87.00003051757812 C 50.67128372192383 87.00003051757812 56.17134094238281 85.88996887207031 61.34736633300781 83.70068359375 C 66.34834289550781 81.58545684814453 70.84030914306641 78.55668640136719 74.69847869873047 74.69850158691406 C 78.55665588378906 70.84033203125 81.58542633056641 66.34837341308594 83.70065307617188 61.34738922119141 C 85.88993835449219 56.17136001586914 87 50.67130279541016 87 45.00001525878906 C 87 39.32872772216797 85.88993835449219 33.82867050170898 83.70065307617188 28.65262985229492 C 81.58542633056641 23.65165710449219 78.55665588378906 19.15968322753906 74.69847869873047 15.301513671875 C 70.84030914306641 11.44334411621094 66.34834289550781 8.414573669433594 61.34736633300781 6.299346923828125 C 56.17134094238281 4.110061645507812 50.67128372192383 3 44.99999618530273 3 M 44.99999618530273 0 C 69.85281372070312 0 90 20.14718627929688 90 45.00001525878906 C 90 69.85282897949219 69.85281372070312 90.00003051757812 44.99999618530273 90.00003051757812 C 20.14717864990234 90.00003051757812 -7.62939453125e-06 69.85282897949219 -7.62939453125e-06 45.00001525878906 C -7.62939453125e-06 20.14718627929688 20.14717864990234 0 44.99999618530273 0 Z" stroke="none" fill="#0b47db"/>
                        </g>
                      </g>
                    </g>
                  </g>
                </g>
              </g>
            </g>
          </g>
        </g>
      </g>
    </g>
    <g id="sql" transform="translate(639.178 4461.651)">
      <g id="Grupo_1236300" data-name="Grupo 1236300" transform="translate(0.89 21.354)">
        <path id="Trazado_1226835" data-name="Trazado 1226835" d="M193.539,81.958h-32.91l-6.7-6.7v-45.4a1.894,1.894,0,0,1,1.894-1.894h37.714a1.894,1.894,0,0,1,1.894,1.894v50.2A1.894,1.894,0,0,1,193.539,81.958Z" transform="translate(-136.598 -27.968)" fill="#dff6fd"/>
        <path id="Trazado_1226836" data-name="Trazado 1226836" d="M468.367,29.86v50.2a1.894,1.894,0,0,1-1.894,1.894h-2.959a1.894,1.894,0,0,0,1.894-1.894V29.86a1.894,1.894,0,0,0-1.894-1.894h2.959A1.894,1.894,0,0,1,468.367,29.86Z" transform="translate(-409.532 -27.966)" fill="#d8ecfe"/>
        <path id="Trazado_1226837" data-name="Trazado 1226837" d="M153.931,427.468h6.207a.491.491,0,0,1,.491.491v6.207Z" transform="translate(-136.598 -380.175)" fill="#d8ecfe"/>
        <path id="Trazado_1226838" data-name="Trazado 1226838" d="M161.278,77.03H132.614a1.657,1.657,0,0,1-1.657-1.657v-11.1a1.657,1.657,0,0,1,1.657-1.657h28.663a1.657,1.657,0,0,1,1.657,1.657v11.1A1.657,1.657,0,0,1,161.278,77.03Z" transform="translate(-116.343 -58.51)" fill="#fe5694"/>
        <path id="Trazado_1226839" data-name="Trazado 1226839" d="M366.7,64.265V75.371a1.657,1.657,0,0,1-1.657,1.657h-2.959a1.657,1.657,0,0,0,1.657-1.657V64.265a1.657,1.657,0,0,0-1.657-1.657h2.959A1.657,1.657,0,0,1,366.7,64.265Z" transform="translate(-320.109 -58.507)" fill="#fd3581"/>
        <path id="Trazado_1226840" data-name="Trazado 1226840" d="M31.417,333.015v5.107c0,2.3-5.351,4.162-11.952,4.162s-11.95-1.863-11.95-4.162v-5.107Z" transform="translate(-7.515 -296.903)" fill="#3692bc"/>
        <path id="Trazado_1226841" data-name="Trazado 1226841" d="M172.371,333.015v5.107c0,1.392-1.962,2.625-4.975,3.38,1.274-.662,2.016-1.458,2.016-2.314v-6.172Z" transform="translate(-148.468 -296.903)" fill="#0681af"/>
        <path id="Trazado_1226842" data-name="Trazado 1226842" d="M31.417,291.015v5.107c0,2.3-5.351,4.162-11.952,4.162s-11.95-1.863-11.95-4.162v-5.107Z" transform="translate(-7.515 -259.875)" fill="#8abbd5"/>
        <path id="Trazado_1226843" data-name="Trazado 1226843" d="M187.385,291.015v5.107c0,1.05-1.116,2.01-2.96,2.742v-7.849Z" transform="translate(-163.482 -259.875)" fill="#6cabca"/>
        <path id="Trazado_1226844" data-name="Trazado 1226844" d="M31.417,250.149H7.515v4.973c0,2.3,5.351,4.161,11.95,4.161s11.952-1.863,11.952-4.161Z" transform="translate(-7.515 -223.847)" fill="#3692bc"/>
        <path id="Trazado_1226845" data-name="Trazado 1226845" d="M187.385,250.145v4.973c0,1.049-1.116,2.009-2.96,2.74v-7.714Z" transform="translate(-163.482 -223.843)" fill="#0681af"/>
        <ellipse id="Elipse_14161" data-name="Elipse 14161" cx="11.951" cy="4.162" rx="11.951" ry="4.162" transform="translate(0 22.14)" fill="#8abbd5"/>
        <path id="Trazado_1226846" data-name="Trazado 1226846" d="M187.385,229.735c0,1.05-1.116,2.01-2.959,2.742h0a10.245,10.245,0,0,0,0-5.481C186.269,227.727,187.385,228.685,187.385,229.735Z" transform="translate(-163.483 -203.434)" fill="#6cabca"/>
      </g>
      <g id="Grupo_1236301" data-name="Grupo 1236301" transform="translate(0.001 20.466)">
        <path id="Trazado_1226847" data-name="Trazado 1226847" d="M57.831,20.466H20.117a2.785,2.785,0,0,0-2.782,2.782v1.319h-.175a2.548,2.548,0,0,0-2.545,2.545v11.1a2.548,2.548,0,0,0,2.545,2.545h.175V42.9C11.729,41.928-.147,43.206,0,47.654V62.573c-.151,4.451,11.725,5.728,17.333,4.755v1.319c0,.006,0,.011,0,.017a.886.886,0,0,0,.258.611l6.7,6.7a.887.887,0,0,0,.616.259H57.831a2.785,2.785,0,0,0,2.782-2.782v-50.2a2.785,2.785,0,0,0-2.782-2.782ZM16.391,38.217v-11.1a.77.77,0,0,1,.769-.769H45.824a.77.77,0,0,1,.769.769v11.1a.77.77,0,0,1-.769.769H17.161a.77.77,0,0,1-.769-.769Zm-3.55,6.165c6.751,0,11.06,1.938,11.063,3.273h0v0c0,1.335-4.312,3.272-11.063,3.272S1.778,48.991,1.778,47.656s4.31-3.274,11.063-3.274ZM23.9,52.629C23.28,55.08,16,55.969,12.842,55.9c-3.165.066-10.435-.819-11.064-3.273V50.351c4.735,3.132,17.392,3.132,22.126,0ZM1.778,55.323c5.014,3.085,16.71,3.258,22.126-.01V57.6c-.624,2.452-7.9,3.34-11.063,3.273C9.676,60.94,2.406,60.054,1.778,57.6Zm0,7.249V60.3c5.014,3.085,16.71,3.258,22.126-.01v2.288c0,1.335-4.309,3.274-11.063,3.274S1.778,63.908,1.778,62.573ZM24.033,73.2l-3.666-3.666h3.666Zm34.8.25a1.007,1.007,0,0,1-1.006,1.006H25.808V69.138a1.38,1.38,0,0,0-1.379-1.379H19.111v-.731c3.751-.766,6.569-2.266,6.569-4.456V47.662c0-2.2-2.815-3.694-6.569-4.461V40.762H45.824a2.548,2.548,0,0,0,2.545-2.545v-11.1a2.548,2.548,0,0,0-2.545-2.545H19.111V23.248a1.007,1.007,0,0,1,1.006-1.006H57.831a1.007,1.007,0,0,1,1.006,1.006Z" transform="translate(-0.001 -20.466)"/>
        <path id="Trazado_1226848" data-name="Trazado 1226848" d="M329.95,93.728h-.005c-.469,0-1.058,0-1.532.006V87.7a.888.888,0,0,0-1.776,0v6.92a.888.888,0,0,0,.738.875c.456.041,1.608.01,2.58.013a.888.888,0,0,0,0-1.776Z" transform="translate(-287.97 -78.96)"/>
        <path id="Trazado_1226849" data-name="Trazado 1226849" d="M174.129,90.334c-.847-.312-1.636-.653-1.882-.76-.321-.287-.171-.8.376-.965a2.285,2.285,0,0,1,1.885.437.888.888,0,0,0,1.138-1.363,4.058,4.058,0,0,0-3.535-.774,2.336,2.336,0,0,0-.789,4.185.887.887,0,0,0,.123.067c.04.018.995.443,2.069.839.3.11.983.42.894.918-.332,1.179-2.285.838-2.943.034a.888.888,0,0,0-1.316,1.192,4.189,4.189,0,0,0,3.071,1.318c3.035-.005,4.4-3.845.909-5.129Z" transform="translate(-149.804 -78.914)"/>
        <path id="Trazado_1226850" data-name="Trazado 1226850" d="M245.917,93.458a4.349,4.349,0,1,0-1.244,1.268l.446.446a.888.888,0,0,0,1.256-1.256Zm-3.659.226a2.575,2.575,0,1,1,2.353-1.532l-.452-.452a.888.888,0,0,0-1.256,1.256l.472.472A2.558,2.558,0,0,1,242.258,93.684Z" transform="translate(-209.744 -78.911)"/>
        <path id="Trazado_1226851" data-name="Trazado 1226851" d="M337.209,231.425a.889.889,0,0,0,1.153-.5l3.163-7.952a.888.888,0,1,0-1.65-.656l-3.163,7.952A.888.888,0,0,0,337.209,231.425Z" transform="translate(-296.797 -197.931)"/>
        <path id="Trazado_1226852" data-name="Trazado 1226852" d="M395.81,233.829a.887.887,0,0,0,1.213-.323l2.124-3.667a.888.888,0,0,0-.008-.9l-2.124-3.523a.888.888,0,0,0-1.521.917l1.853,3.073-1.861,3.213A.888.888,0,0,0,395.81,233.829Z" transform="translate(-348.564 -200.772)"/>
        <path id="Trazado_1226853" data-name="Trazado 1226853" d="M288.951,233.505a.888.888,0,0,0,1.537-.89l-1.861-3.213,1.853-3.073a.888.888,0,0,0-1.521-.917l-2.124,3.523a.888.888,0,0,0-.008.9Z" transform="translate(-252.767 -200.772)"/>
        <path id="Trazado_1226854" data-name="Trazado 1226854" d="M271.353,321.937h-24.69a.888.888,0,0,0,0,1.776h24.69A.888.888,0,0,0,271.353,321.937Z" transform="translate(-216.686 -286.249)"/>
        <path id="Trazado_1226855" data-name="Trazado 1226855" d="M271.353,354.937h-24.69a.888.888,0,0,0,0,1.776h24.69A.888.888,0,0,0,271.353,354.937Z" transform="translate(-216.686 -315.342)"/>
        <path id="Trazado_1226856" data-name="Trazado 1226856" d="M271.353,387.937h-24.69a.888.888,0,0,0,0,1.776h24.69A.888.888,0,0,0,271.353,387.937Z" transform="translate(-216.686 -344.436)"/>
        <path id="Trazado_1226857" data-name="Trazado 1226857" d="M271.353,420.937h-24.69a.888.888,0,0,0,0,1.776h24.69A.888.888,0,0,0,271.353,420.937Z" transform="translate(-216.686 -373.529)"/>
      </g>
    </g>
  </g>
</svg>
