<svg xmlns="http://www.w3.org/2000/svg" xmlns:xlink="http://www.w3.org/1999/xlink" width="113" height="113" viewBox="0 0 113 113">
  <defs>
    <filter id="Trazado_982547" x="0" y="0" width="113" height="113" filterUnits="userSpaceOnUse">
      <feOffset dy="3" input="SourceAlpha"/>
      <feGaussianBlur stdDeviation="3" result="blur"/>
      <feFlood flood-opacity="0.161"/>
      <feComposite operator="in" in2="blur"/>
      <feComposite in="SourceGraphic"/>
    </filter>
  </defs>
  <g id="Grupo_1236146" data-name="Grupo 1236146" transform="translate(-976 -2761.119)">
    <g id="Grupo_1235108" data-name="Grupo 1235108" transform="translate(182.131 1972.79)">
      <g id="Grupo_1223793" data-name="Grupo 1223793" transform="translate(0.869 -700.672)">
        <g id="Grupo_1208028" data-name="Grupo 1208028" transform="translate(-0.49 -4138.425)">
          <g id="Grupo_1177675" data-name="Grupo 1177675" transform="translate(-4493 3707.152)">
            <g id="Grupo_1176928" data-name="Grupo 1176928" transform="translate(5295.49 1926.273)">
              <g id="Grupo_1172322" data-name="Grupo 1172322" transform="translate(0 0)">
                <g id="Grupo_1164700" data-name="Grupo 1164700">
                  <g id="Grupo_1160931" data-name="Grupo 1160931">
                    <g id="Grupo_1160749" data-name="Grupo 1160749">
                      <g id="Grupo_1158891" data-name="Grupo 1158891">
                        <g id="Grupo_1157406" data-name="Grupo 1157406">
                          <g id="Grupo_1155793" data-name="Grupo 1155793">
                            <g id="Grupo_1154704" data-name="Grupo 1154704">
                              <g id="Grupo_1150790" data-name="Grupo 1150790">
                                <g id="Grupo_1154214" data-name="Grupo 1154214">
                                  <g id="Grupo_1152583" data-name="Grupo 1152583">
                                    <g id="Grupo_1146973" data-name="Grupo 1146973">
                                      <g id="Grupo_1146954" data-name="Grupo 1146954">
                                        <g transform="matrix(1, 0, 0, 1, -9, -6)" filter="url(#Trazado_982547)">
                                          <g id="Trazado_982547-2" data-name="Trazado 982547" transform="translate(9 6)" fill="#eddbfd">
                                            <path d="M 47.5000114440918 93.49987030029297 C 41.28938293457031 93.49987030029297 35.26534652709961 92.28384399414062 29.5951976776123 89.88558959960938 C 24.11773109436035 87.56881713867188 19.19814491271973 84.25183868408203 14.97310447692871 80.02680206298828 C 10.74805164337158 75.80176544189453 7.43107795715332 70.88218688964844 5.114304542541504 65.40472412109375 C 2.716038227081299 59.73458862304688 1.500011444091797 53.71054840087891 1.500011444091797 47.49993515014648 C 1.500011444091797 41.28932189941406 2.716038227081299 35.26528167724609 5.114304542541504 29.59514808654785 C 7.43107795715332 24.1176815032959 10.74805164337158 19.1981086730957 14.97310447692871 14.97306823730469 C 19.19814491271973 10.74802875518799 24.11773109436035 7.431055068969727 29.5951976776123 5.11428165435791 C 35.26534652709961 2.716028451919556 41.28938293457031 1.500001788139343 47.5000114440918 1.500001788139343 C 53.71063995361328 1.500001788139343 59.73467636108398 2.716028451919556 65.40482330322266 5.11428165435791 C 70.88229370117188 7.431055068969727 75.8018798828125 10.74802875518799 80.02691650390625 14.97306823730469 C 84.25196838378906 19.1981086730957 87.56894683837891 24.1176815032959 89.88571929931641 29.59514808654785 C 92.28398132324219 35.26528167724609 93.50001525878906 41.28932189941406 93.50001525878906 47.49993515014648 C 93.50001525878906 53.71054840087891 92.28398132324219 59.73458862304688 89.88571929931641 65.40472412109375 C 87.56894683837891 70.88218688964844 84.25196838378906 75.80176544189453 80.02691650390625 80.02680206298828 C 75.8018798828125 84.25183868408203 70.88229370117188 87.56881713867188 65.40482330322266 89.88558959960938 C 59.73467636108398 92.28384399414062 53.71063995361328 93.49987030029297 47.5000114440918 93.49987030029297 Z" stroke="none"/>
                                            <path d="M 47.5000114440918 3 C 41.49122619628906 3 35.66378021240234 4.1761474609375 30.17951965332031 6.495796203613281 C 24.880859375 8.7369384765625 20.12153625488281 11.94596862792969 16.03376770019531 16.03373718261719 C 11.94598388671875 20.12149047851562 8.736968994140625 24.88081359863281 6.495811462402344 30.17947387695312 C 4.176162719726562 35.66371917724609 3.000007629394531 41.49116516113281 3.000007629394531 47.49993515014648 C 3.000007629394531 53.50870513916016 4.176162719726562 59.33615112304688 6.495811462402344 64.82039642333984 C 8.736968994140625 70.11905670166016 11.94598388671875 74.87837982177734 16.03376770019531 78.96613311767578 C 20.12153625488281 83.05390167236328 24.880859375 86.26293182373047 30.17951965332031 88.50407409667969 C 35.66378021240234 90.82372283935547 41.49122619628906 91.99987030029297 47.5000114440918 91.99987030029297 C 53.50879669189453 91.99987030029297 59.33624267578125 90.82372283935547 64.82050323486328 88.50407409667969 C 70.11916351318359 86.26293182373047 74.87848663330078 83.05390167236328 78.96625518798828 78.96613311767578 C 83.05403900146484 74.87837982177734 86.2630615234375 70.11905670166016 88.50421142578125 64.82039642333984 C 90.82386016845703 59.33615112304688 92.00001525878906 53.50870513916016 92.00001525878906 47.49993515014648 C 92.00001525878906 41.49116516113281 90.82386016845703 35.66371917724609 88.50421142578125 30.17947387695312 C 86.2630615234375 24.88081359863281 83.05403900146484 20.12149047851562 78.96625518798828 16.03373718261719 C 74.87848663330078 11.94596862792969 70.11916351318359 8.7369384765625 64.82050323486328 6.495796203613281 C 59.33624267578125 4.1761474609375 53.50879669189453 3 47.5000114440918 3 M 47.5000114440918 0 C 73.73353576660156 0 95.00001525878906 21.26644134521484 95.00001525878906 47.49993515014648 C 95.00001525878906 73.73342895507812 73.73353576660156 94.99987030029297 47.5000114440918 94.99987030029297 C 21.26648712158203 94.99987030029297 7.62939453125e-06 73.73342895507812 7.62939453125e-06 47.49993515014648 C 7.62939453125e-06 21.26644134521484 21.26648712158203 0 47.5000114440918 0 Z" stroke="none" fill="#aa52f9"/>
                                          </g>
                                        </g>
                                      </g>
                                    </g>
                                  </g>
                                </g>
                              </g>
                            </g>
                          </g>
                        </g>
                      </g>
                    </g>
                  </g>
                </g>
              </g>
            </g>
          </g>
        </g>
      </g>
    </g>
    <g id="Layer_23" data-name="Layer 23" transform="translate(996 2749.796)">
      <path id="Trazado_1226674" data-name="Trazado 1226674" d="M32.419,49a3.677,3.677,0,0,1,3.06,1.638l2.586,3.879H68.4a2.758,2.758,0,0,1,2.758,2.758V88.532A2.758,2.758,0,0,1,68.4,91.29H18.758A2.758,2.758,0,0,1,16,88.532V51.758A2.758,2.758,0,0,1,18.758,49Z" transform="translate(-7.081 -7.966)" fill="#f4b357"/>
      <path id="Trazado_1226675" data-name="Trazado 1226675" d="M189.119,68.677H201.99l-1.655-2.206A3.677,3.677,0,0,0,197.393,65H186.667Z" transform="translate(-158.135 -22.127)" fill="#fae16f"/>
      <path id="Trazado_1226676" data-name="Trazado 1226676" d="M92.4,88.532V57.274a2.758,2.758,0,0,0-2.758-2.758H59.306l-2.586-3.879A3.677,3.677,0,0,0,53.661,49h-10.9A2.758,2.758,0,0,0,40,51.758V88.532a2.758,2.758,0,0,0,2.758,2.758H89.645A2.758,2.758,0,0,0,92.4,88.532Z" transform="translate(-28.323 -7.966)" fill="#f6c866"/>
      <circle id="Elipse_14159" data-name="Elipse 14159" cx="16.5" cy="16.5" r="16.5" transform="translate(20 56)" fill="#cfe0fc"/>
      <path id="Trazado_1226677" data-name="Trazado 1226677" d="M151.374,177.516a16.544,16.544,0,0,0,.027,32.977,16.547,16.547,0,0,0-.027-32.977Z" transform="translate(-113.472 -121.713)" fill="#e5f0ff"/>
      <path id="Trazado_1226678" data-name="Trazado 1226678" d="M192.919,220.032h2.758v-3.677a3.677,3.677,0,1,1,7.355,0v3.677h2.758a2.731,2.731,0,0,1,.919.169v-3.846a7.355,7.355,0,0,0-14.71,0V220.2A2.731,2.731,0,0,1,192.919,220.032Z" transform="translate(-162.855 -149.579)" fill="#fff"/>
      <rect id="Rect치ngulo_424023" data-name="Rect치ngulo 424023" width="19" height="13" rx="6.5" transform="translate(27 70)" fill="#f4b357"/>
      <rect id="Rect치ngulo_424024" data-name="Rect치ngulo 424024" width="17" height="13" rx="6.5" transform="translate(29 70)" fill="#f6c866"/>
      <ellipse id="Elipse_14160" data-name="Elipse 14160" cx="1.5" cy="2" rx="1.5" ry="2" transform="translate(35 75)" fill="#fae16f"/>
      <path id="Trazado_1226679" data-name="Trazado 1226679" d="M132.129,45.516H115.121l-1.379-1.84a4.62,4.62,0,0,0-3.677-1.838H99.811A4.578,4.578,0,0,0,96.145,40H88.919a.919.919,0,1,0,0,1.839h7.226a2.751,2.751,0,0,1,2.295,1.228l2.586,3.879a.919.919,0,0,0,.765.409h30.339a1.841,1.841,0,0,1,1.839,1.839V80.452a1.841,1.841,0,0,1-1.839,1.839H121.522a17.413,17.413,0,0,0,.31-19.818A.92.92,0,1,0,120.3,63.5a15.639,15.639,0,1,1-2.188-2.606.919.919,0,1,0,1.272-1.327A17.454,17.454,0,0,0,93.09,82.29H90.758a.919.919,0,1,0,0,1.839H94.6a17.387,17.387,0,0,0,25.408,0h12.118a3.681,3.681,0,0,0,3.677-3.677V49.194A3.681,3.681,0,0,0,132.129,45.516Zm-31.072-1.839h9.008a2.77,2.77,0,0,1,2.206,1.1l.552.736h-10.54Z" transform="translate(-70.806 0)"/>
      <path id="Trazado_1226680" data-name="Trazado 1226680" d="M16.274,82.29h-4.6a1.841,1.841,0,0,1-1.839-1.839V43.677a1.841,1.841,0,0,1,1.839-1.839h2.758a.919.919,0,0,0,0-1.839H11.677A3.681,3.681,0,0,0,8,43.677V80.452a3.681,3.681,0,0,0,3.677,3.677h4.6a.919.919,0,1,0,0-1.839Z"/>
      <path id="Trazado_1226681" data-name="Trazado 1226681" d="M178.113,200a8.284,8.284,0,0,0-8.274,8.274v3.27A3.665,3.665,0,0,0,168,214.71v7.355a3.681,3.681,0,0,0,3.677,3.677h12.871a3.681,3.681,0,0,0,3.677-3.677V214.71a3.665,3.665,0,0,0-1.839-3.166v-3.27A8.283,8.283,0,0,0,178.113,200Zm-6.435,8.274a6.435,6.435,0,0,1,12.871,0v2.758H182.71v-2.758a4.6,4.6,0,0,0-9.194,0v2.758h-1.839Zm9.194,2.758h-5.516v-2.758a2.758,2.758,0,0,1,5.516,0Zm5.516,11.032a1.841,1.841,0,0,1-1.839,1.839H171.677a1.841,1.841,0,0,1-1.839-1.839V214.71a1.841,1.841,0,0,1,1.839-1.839h12.871a1.841,1.841,0,0,1,1.839,1.839Z" transform="translate(-141.613 -141.613)"/>
      <path id="Trazado_1226682" data-name="Trazado 1226682" d="M234.758,336a.919.919,0,1,0,0,1.839.919.919,0,1,1-.919.919.919.919,0,1,0-1.839,0A2.758,2.758,0,1,0,234.758,336Z" transform="translate(-198.258 -261.984)"/>
    </g>
  </g>
</svg>
