<svg xmlns="http://www.w3.org/2000/svg" xmlns:xlink="http://www.w3.org/1999/xlink" width="113" height="113" viewBox="0 0 113 113">
  <defs>
    <filter id="Trazado_982547" x="0" y="0" width="113" height="113" filterUnits="userSpaceOnUse">
      <feOffset dy="3" input="SourceAlpha"/>
      <feGaussianBlur stdDeviation="3" result="blur"/>
      <feFlood flood-opacity="0.161"/>
      <feComposite operator="in" in2="blur"/>
      <feComposite in="SourceGraphic"/>
    </filter>
  </defs>
  <g id="Grupo_1236169" data-name="Grupo 1236169" transform="translate(-976 -3119.119)">
    <g id="Grupo_1235110" data-name="Grupo 1235110" transform="translate(182.131 2330.79)">
      <g id="Grupo_1223793" data-name="Grupo 1223793" transform="translate(0.869 -700.672)">
        <g id="Grupo_1208028" data-name="Grupo 1208028" transform="translate(-0.49 -4138.425)">
          <g id="Grupo_1177675" data-name="Grupo 1177675" transform="translate(-4493 3707.152)">
            <g id="Grupo_1176928" data-name="Grupo 1176928" transform="translate(5295.49 1926.273)">
              <g id="Grupo_1172322" data-name="Grupo 1172322" transform="translate(0 0)">
                <g id="Grupo_1164700" data-name="Grupo 1164700">
                  <g id="Grupo_1160931" data-name="Grupo 1160931">
                    <g id="Grupo_1160749" data-name="Grupo 1160749">
                      <g id="Grupo_1158891" data-name="Grupo 1158891">
                        <g id="Grupo_1157406" data-name="Grupo 1157406">
                          <g id="Grupo_1155793" data-name="Grupo 1155793">
                            <g id="Grupo_1154704" data-name="Grupo 1154704">
                              <g id="Grupo_1150790" data-name="Grupo 1150790">
                                <g id="Grupo_1154214" data-name="Grupo 1154214">
                                  <g id="Grupo_1152583" data-name="Grupo 1152583">
                                    <g id="Grupo_1146973" data-name="Grupo 1146973">
                                      <g id="Grupo_1146954" data-name="Grupo 1146954">
                                        <g transform="matrix(1, 0, 0, 1, -9, -6)" filter="url(#Trazado_982547)">
                                          <g id="Trazado_982547-2" data-name="Trazado 982547" transform="translate(9 6)" fill="#eddbfd">
                                            <path d="M 47.5000114440918 93.49987030029297 C 41.28938293457031 93.49987030029297 35.26534652709961 92.28384399414062 29.5951976776123 89.88558959960938 C 24.11773109436035 87.56881713867188 19.19814491271973 84.25183868408203 14.97310447692871 80.02680206298828 C 10.74805164337158 75.80176544189453 7.43107795715332 70.88218688964844 5.114304542541504 65.40472412109375 C 2.716038227081299 59.73458862304688 1.500011444091797 53.71054840087891 1.500011444091797 47.49993515014648 C 1.500011444091797 41.28932189941406 2.716038227081299 35.26528167724609 5.114304542541504 29.59514808654785 C 7.43107795715332 24.1176815032959 10.74805164337158 19.1981086730957 14.97310447692871 14.97306823730469 C 19.19814491271973 10.74802875518799 24.11773109436035 7.431055068969727 29.5951976776123 5.11428165435791 C 35.26534652709961 2.716028451919556 41.28938293457031 1.500001788139343 47.5000114440918 1.500001788139343 C 53.71063995361328 1.500001788139343 59.73467636108398 2.716028451919556 65.40482330322266 5.11428165435791 C 70.88229370117188 7.431055068969727 75.8018798828125 10.74802875518799 80.02691650390625 14.97306823730469 C 84.25196838378906 19.1981086730957 87.56894683837891 24.1176815032959 89.88571929931641 29.59514808654785 C 92.28398132324219 35.26528167724609 93.50001525878906 41.28932189941406 93.50001525878906 47.49993515014648 C 93.50001525878906 53.71054840087891 92.28398132324219 59.73458862304688 89.88571929931641 65.40472412109375 C 87.56894683837891 70.88218688964844 84.25196838378906 75.80176544189453 80.02691650390625 80.02680206298828 C 75.8018798828125 84.25183868408203 70.88229370117188 87.56881713867188 65.40482330322266 89.88558959960938 C 59.73467636108398 92.28384399414062 53.71063995361328 93.49987030029297 47.5000114440918 93.49987030029297 Z" stroke="none"/>
                                            <path d="M 47.5000114440918 3 C 41.49122619628906 3 35.66378021240234 4.1761474609375 30.17951965332031 6.495796203613281 C 24.880859375 8.7369384765625 20.12153625488281 11.94596862792969 16.03376770019531 16.03373718261719 C 11.94598388671875 20.12149047851562 8.736968994140625 24.88081359863281 6.495811462402344 30.17947387695312 C 4.176162719726562 35.66371917724609 3.000007629394531 41.49116516113281 3.000007629394531 47.49993515014648 C 3.000007629394531 53.50870513916016 4.176162719726562 59.33615112304688 6.495811462402344 64.82039642333984 C 8.736968994140625 70.11905670166016 11.94598388671875 74.87837982177734 16.03376770019531 78.96613311767578 C 20.12153625488281 83.05390167236328 24.880859375 86.26293182373047 30.17951965332031 88.50407409667969 C 35.66378021240234 90.82372283935547 41.49122619628906 91.99987030029297 47.5000114440918 91.99987030029297 C 53.50879669189453 91.99987030029297 59.33624267578125 90.82372283935547 64.82050323486328 88.50407409667969 C 70.11916351318359 86.26293182373047 74.87848663330078 83.05390167236328 78.96625518798828 78.96613311767578 C 83.05403900146484 74.87837982177734 86.2630615234375 70.11905670166016 88.50421142578125 64.82039642333984 C 90.82386016845703 59.33615112304688 92.00001525878906 53.50870513916016 92.00001525878906 47.49993515014648 C 92.00001525878906 41.49116516113281 90.82386016845703 35.66371917724609 88.50421142578125 30.17947387695312 C 86.2630615234375 24.88081359863281 83.05403900146484 20.12149047851562 78.96625518798828 16.03373718261719 C 74.87848663330078 11.94596862792969 70.11916351318359 8.7369384765625 64.82050323486328 6.495796203613281 C 59.33624267578125 4.1761474609375 53.50879669189453 3 47.5000114440918 3 M 47.5000114440918 0 C 73.73353576660156 0 95.00001525878906 21.26644134521484 95.00001525878906 47.49993515014648 C 95.00001525878906 73.73342895507812 73.73353576660156 94.99987030029297 47.5000114440918 94.99987030029297 C 21.26648712158203 94.99987030029297 7.62939453125e-06 73.73342895507812 7.62939453125e-06 47.49993515014648 C 7.62939453125e-06 21.26644134521484 21.26648712158203 0 47.5000114440918 0 Z" stroke="none" fill="#aa52f9"/>
                                          </g>
                                        </g>
                                      </g>
                                    </g>
                                  </g>
                                </g>
                              </g>
                            </g>
                          </g>
                        </g>
                      </g>
                    </g>
                  </g>
                </g>
              </g>
            </g>
          </g>
        </g>
      </g>
    </g>
    <g id="seguridad-de-datos" transform="translate(973.602 3137.684)">
      <g id="Grupo_1236168" data-name="Grupo 1236168" transform="translate(29.906 14.706)">
        <g id="Grupo_1236156" data-name="Grupo 1236156" transform="translate(2.785 5.373)">
          <path id="Trazado_1226699" data-name="Trazado 1226699" d="M57.838,145.779h30.8v28.174h-30.8Z" transform="translate(-57.838 -145.779)" fill="#39326c" fill-rule="evenodd"/>
        </g>
        <g id="Grupo_1236157" data-name="Grupo 1236157" transform="translate(25.739 5.373)">
          <path id="Trazado_1226700" data-name="Trazado 1226700" d="M228.151,145.779H236v28.174h-7.85Z" transform="translate(-228.151 -145.779)" fill="#002659" fill-rule="evenodd"/>
        </g>
        <g id="Grupo_1236158" data-name="Grupo 1236158" transform="translate(0)">
          <path id="Trazado_1226701" data-name="Trazado 1226701" d="M38.8,105.911h33.11a1.634,1.634,0,0,1,1.629,1.632v7.485a1.634,1.634,0,0,1-1.629,1.632H38.8a1.637,1.637,0,0,1-1.632-1.632v-7.485A1.637,1.637,0,0,1,38.8,105.911Z" transform="translate(-37.17 -105.911)" fill="#918edd" fill-rule="evenodd"/>
        </g>
        <g id="Grupo_1236159" data-name="Grupo 1236159" transform="translate(25.739 0)">
          <path id="Trazado_1226702" data-name="Trazado 1226702" d="M228.151,116.662v-10.75h9a1.634,1.634,0,0,1,1.629,1.632v7.485a1.634,1.634,0,0,1-1.629,1.632h-9Z" transform="translate(-228.151 -105.912)" fill="#5f55ae" fill-rule="evenodd"/>
        </g>
        <g id="Grupo_1236160" data-name="Grupo 1236160" transform="translate(0 16.15)">
          <path id="Trazado_1226703" data-name="Trazado 1226703" d="M38.8,225.74h33.11a1.634,1.634,0,0,1,1.629,1.632v7.485a1.634,1.634,0,0,1-1.629,1.632H38.8a1.637,1.637,0,0,1-1.632-1.632v-7.485A1.637,1.637,0,0,1,38.8,225.74Z" transform="translate(-37.17 -225.74)" fill="#918edd" fill-rule="evenodd"/>
        </g>
        <g id="Grupo_1236161" data-name="Grupo 1236161" transform="translate(25.739 16.15)">
          <path id="Trazado_1226704" data-name="Trazado 1226704" d="M228.151,236.49V225.74h9a1.634,1.634,0,0,1,1.629,1.632v7.485a1.634,1.634,0,0,1-1.629,1.632Z" transform="translate(-228.151 -225.74)" fill="#5f55ae" fill-rule="evenodd"/>
        </g>
        <g id="Grupo_1236162" data-name="Grupo 1236162" transform="translate(0 32.299)">
          <path id="Trazado_1226705" data-name="Trazado 1226705" d="M38.8,345.569h33.11a1.634,1.634,0,0,1,1.629,1.632v7.485a1.634,1.634,0,0,1-1.629,1.632H38.8a1.637,1.637,0,0,1-1.632-1.632V347.2A1.637,1.637,0,0,1,38.8,345.569Z" transform="translate(-37.17 -345.569)" fill="#918edd" fill-rule="evenodd"/>
        </g>
        <g id="Grupo_1236163" data-name="Grupo 1236163" transform="translate(25.739 32.299)">
          <path id="Trazado_1226706" data-name="Trazado 1226706" d="M228.151,356.318v-10.75h9a1.634,1.634,0,0,1,1.629,1.632v7.485a1.634,1.634,0,0,1-1.629,1.633Z" transform="translate(-228.151 -345.568)" fill="#5f55ae" fill-rule="evenodd"/>
        </g>
        <g id="Grupo_1236164" data-name="Grupo 1236164" transform="translate(28.073 18.208)">
          <path id="Trazado_1226707" data-name="Trazado 1226707" d="M261.061,241.015a46.2,46.2,0,0,1-15.579,8.973c-.293,11.557,6.229,18.7,13.334,25.6a3.221,3.221,0,0,0,4.494,0c7.1-6.9,13.627-14.045,13.334-25.6A46.252,46.252,0,0,1,261.061,241.015Z" transform="translate(-245.472 -241.015)" fill="#6c9" fill-rule="evenodd"/>
        </g>
        <g id="Grupo_1236165" data-name="Grupo 1236165" transform="translate(38.422 34.038)">
          <path id="Trazado_1226708" data-name="Trazado 1226708" d="M322.258,358.472h10.483v8.463H322.258Z" transform="translate(-322.258 -358.472)" fill="#fcd354" fill-rule="evenodd"/>
        </g>
        <g id="Grupo_1236166" data-name="Grupo 1236166" transform="translate(41.009 26.184)">
          <path id="Trazado_1226709" data-name="Trazado 1226709" d="M341.458,326.4c.137.133.27.266.407.4a3.221,3.221,0,0,0,4.494,0c7.1-6.9,13.627-14.045,13.334-25.6-.879-.312-1.747-.643-2.61-1,.171,11.374-6.3,18.448-13.337,25.294A3.21,3.21,0,0,1,341.458,326.4Z" transform="translate(-341.458 -300.195)" fill="#167546" fill-rule="evenodd"/>
        </g>
        <g id="Grupo_1236167" data-name="Grupo 1236167" transform="translate(46.2 34.038)">
          <path id="Trazado_1226710" data-name="Trazado 1226710" d="M379.97,358.472h2.706v8.463H379.97Z" transform="translate(-379.97 -358.472)" fill="#ffb125" fill-rule="evenodd"/>
        </g>
      </g>
      <path id="Trazado_1226711" data-name="Trazado 1226711" d="M43.426,20.065v-.118a.942.942,0,1,1,1.883,0v.118a.942.942,0,0,1-1.883,0Zm5.821.881H60.433a.942.942,0,1,0,0-1.883H49.247a.942.942,0,1,0,0,1.883Zm-8.448.061a.942.942,0,0,0,.942-.942v-.118a.942.942,0,0,0-1.883,0v.118A.942.942,0,0,0,40.8,21.007Zm-3.572,0a.942.942,0,0,0,.942-.942v-.118a.942.942,0,0,0-1.883,0v.118A.942.942,0,0,0,37.227,21.007Zm7.14,16.18a.942.942,0,0,0,.942-.942v-.118a.942.942,0,1,0-1.883,0v.118A.942.942,0,0,0,44.367,37.186Zm4.88-.057H60.433a.942.942,0,0,0,0-1.883H49.247a.942.942,0,0,0,0,1.883Zm-8.448.057a.942.942,0,0,0,.942-.942v-.118a.942.942,0,1,0-1.883,0v.118A.942.942,0,0,0,40.8,37.186Zm-3.572,0a.942.942,0,0,0,.942-.942v-.118a.942.942,0,1,0-1.883,0v.118A.942.942,0,0,0,37.227,37.186Zm7.14,14.182a.942.942,0,0,0-.942.942v.114a.942.942,0,0,0,1.883,0V52.31A.942.942,0,0,0,44.367,51.368Zm-3.568,0a.942.942,0,0,0-.942.942v.114a.942.942,0,0,0,1.883,0V52.31A.942.942,0,0,0,40.8,51.368Zm-3.572,0a.942.942,0,0,0-.942.942v.114a.942.942,0,0,0,1.883,0V52.31A.942.942,0,0,0,37.227,51.368ZM76.369,68.181a4.153,4.153,0,0,1-5.815,0,66.278,66.278,0,0,1-8.435-9.489H31.352a2.58,2.58,0,0,1-2.577-2.577v-7.5a2.578,2.578,0,0,1,2.577-2.573h.214v-3.53h-.214a2.58,2.58,0,0,1-2.577-2.577v-7.5a2.58,2.58,0,0,1,2.577-2.577h.214V26.332h-.214a2.58,2.58,0,0,1-2.577-2.577v-7.5a2.58,2.58,0,0,1,2.577-2.577H46.994V1.442A.942.942,0,0,1,47.936.5H73.459a.942.942,0,0,1,.942.942V32.433a45.481,45.481,0,0,0,14.985,8.532.941.941,0,0,1,.627.864c.3,11.8-6.283,19.2-13.643,26.352Zm-27.491-54.5H64.523A2.58,2.58,0,0,1,67.1,16.256v7.5a2.58,2.58,0,0,1-2.577,2.577H64.31v3.526h.213A2.58,2.58,0,0,1,67.1,32.436V36.43a41.634,41.634,0,0,0,5.417-4V2.383H48.877ZM31.352,24.449H64.523a.7.7,0,0,0,.694-.694v-7.5a.694.694,0,0,0-.694-.694H31.352a.694.694,0,0,0-.694.694v7.5a.7.7,0,0,0,.694.694Zm2.1,5.41H62.426V26.333H33.449Zm-2.1,10.77h27.1a50.072,50.072,0,0,0,6.762-3.094v-5.1a.694.694,0,0,0-.694-.694H31.352a.694.694,0,0,0-.694.694v7.5A.694.694,0,0,0,31.352,40.629Zm2.1,5.414H57.107a28.278,28.278,0,0,1-.206-3.53H33.449ZM60.9,56.808a29.574,29.574,0,0,1-1.81-3.5H49.247a.942.942,0,0,1,0-1.883h9.107a25.967,25.967,0,0,1-.946-3.5H31.352a.693.693,0,0,0-.694.69v7.5a.7.7,0,0,0,.694.694H60.9ZM88.139,42.517a47.153,47.153,0,0,1-14.679-8.4A43.893,43.893,0,0,1,66.636,38.9l-.047.026a51.661,51.661,0,0,1-7.565,3.5.932.932,0,0,1-.122.046l-.117.044a25.156,25.156,0,0,0,4.529,14.621.943.943,0,0,1,.119.175,63.459,63.459,0,0,0,8.435,9.518,2.306,2.306,0,0,0,3.19,0c7.175-6.975,13.117-13.638,13.082-24.312ZM73.486,40.8h.145a4.439,4.439,0,0,1,4.434,4.434v2.55h.648a.942.942,0,0,1,.942.942V57.2a.942.942,0,0,1-.942.942H68.21a.942.942,0,0,1-.942-.942V48.722a.942.942,0,0,1,.942-.942h.843V45.23A4.439,4.439,0,0,1,73.486,40.8Zm4.285,8.868h-8.62v6.6h8.62ZM70.936,45.23v2.55h5.246V45.23a2.553,2.553,0,0,0-2.55-2.55h-.145A2.553,2.553,0,0,0,70.936,45.23Z"/>
    </g>
  </g>
</svg>
