<svg xmlns="http://www.w3.org/2000/svg" xmlns:xlink="http://www.w3.org/1999/xlink" width="108" height="108" viewBox="0 0 108 108">
  <defs>
    <filter id="Trazado_904820" x="0" y="0" width="108" height="108" filterUnits="userSpaceOnUse">
      <feOffset dy="3" input="SourceAlpha"/>
      <feGaussianBlur stdDeviation="3" result="blur"/>
      <feFlood flood-opacity="0.161"/>
      <feComposite operator="in" in2="blur"/>
      <feComposite in="SourceGraphic"/>
    </filter>
  </defs>
  <g id="Grupo_1235594" data-name="Grupo 1235594" transform="translate(-615 -483)">
    <g id="Grupo_1235104" data-name="Grupo 1235104" transform="translate(0 -510)">
      <g id="Grupo_1230980" data-name="Grupo 1230980" transform="translate(624 999)">
        <g id="Grupo_1230695" data-name="Grupo 1230695" transform="translate(0 0)">
          <g id="Grupo_1224979" data-name="Grupo 1224979">
            <g id="Grupo_1173585" data-name="Grupo 1173585">
              <g id="Grupo_1173428" data-name="Grupo 1173428">
                <g id="Grupo_1171958" data-name="Grupo 1171958">
                  <g id="Grupo_1167341" data-name="Grupo 1167341">
                    <g id="Grupo_1166792" data-name="Grupo 1166792">
                      <g transform="matrix(1, 0, 0, 1, -9, -6)" filter="url(#Trazado_904820)">
                        <g id="Trazado_904820-2" data-name="Trazado 904820" transform="translate(9 6)" fill="#e5ebfb">
                          <path d="M 44.99999618530273 88.50003051757812 C 39.12687301635742 88.50003051757812 33.43022155761719 87.35010528564453 28.06829643249512 85.08219146728516 C 22.88852119445801 82.89134216308594 18.23629570007324 79.75461578369141 14.24084663391113 75.75916290283203 C 10.24540901184082 71.76371765136719 7.108683586120605 67.11148834228516 4.917821407318115 61.93171691894531 C 2.649921178817749 56.56978988647461 1.499996185302734 50.87313842773438 1.499996185302734 45.00001525878906 C 1.499996185302734 39.12689208984375 2.649921178817749 33.43024063110352 4.917821407318115 28.06830215454102 C 7.108683586120605 22.88852691650391 10.24540901184082 18.23631477355957 14.24084663391113 14.24086570739746 C 18.23629570007324 10.24541568756104 22.88852119445801 7.10869026184082 28.06829643249512 4.917827606201172 C 33.43022155761719 2.649927854537964 39.12687301635742 1.50000274181366 44.99999618530273 1.50000274181366 C 50.87311935424805 1.50000274181366 56.56977081298828 2.649927854537964 61.93169784545898 4.917827606201172 C 67.11147308349609 7.10869026184082 71.76369476318359 10.24541568756104 75.75914764404297 14.24086570739746 C 79.75458526611328 18.23631477355957 82.89131164550781 22.88852691650391 85.08216857910156 28.06830215454102 C 87.35007476806641 33.43024063110352 88.5 39.12689208984375 88.5 45.00001525878906 C 88.5 50.87313842773438 87.35007476806641 56.56978988647461 85.08216857910156 61.93171691894531 C 82.89131164550781 67.11148834228516 79.75458526611328 71.76371765136719 75.75914764404297 75.75916290283203 C 71.76369476318359 79.75461578369141 67.11147308349609 82.89134216308594 61.93169784545898 85.08219146728516 C 56.56977081298828 87.35010528564453 50.87311935424805 88.50003051757812 44.99999618530273 88.50003051757812 Z" stroke="none"/>
                          <path d="M 44.99999618530273 3 C 39.32870864868164 3 33.82865142822266 4.110061645507812 28.65262603759766 6.299346923828125 C 23.65165710449219 8.414573669433594 19.15968322753906 11.44334411621094 15.301513671875 15.301513671875 C 11.44333648681641 19.15968322753906 8.414566040039062 23.65165710449219 6.299339294433594 28.65262985229492 C 4.110054016113281 33.82867050170898 2.999992370605469 39.32872772216797 2.999992370605469 45.00001525878906 C 2.999992370605469 50.67130279541016 4.110054016113281 56.17136001586914 6.299339294433594 61.34738922119141 C 8.414566040039062 66.34837341308594 11.44333648681641 70.84033203125 15.301513671875 74.69850158691406 C 19.15968322753906 78.55668640136719 23.65165710449219 81.58545684814453 28.65262603759766 83.70068359375 C 33.82865142822266 85.88996887207031 39.32870864868164 87.00003051757812 44.99999618530273 87.00003051757812 C 50.67128372192383 87.00003051757812 56.17134094238281 85.88996887207031 61.34736633300781 83.70068359375 C 66.34834289550781 81.58545684814453 70.84030914306641 78.55668640136719 74.69847869873047 74.69850158691406 C 78.55665588378906 70.84033203125 81.58542633056641 66.34837341308594 83.70065307617188 61.34738922119141 C 85.88993835449219 56.17136001586914 87 50.67130279541016 87 45.00001525878906 C 87 39.32872772216797 85.88993835449219 33.82867050170898 83.70065307617188 28.65262985229492 C 81.58542633056641 23.65165710449219 78.55665588378906 19.15968322753906 74.69847869873047 15.301513671875 C 70.84030914306641 11.44334411621094 66.34834289550781 8.414573669433594 61.34736633300781 6.299346923828125 C 56.17134094238281 4.110061645507812 50.67128372192383 3 44.99999618530273 3 M 44.99999618530273 0 C 69.85281372070312 0 90 20.14718627929688 90 45.00001525878906 C 90 69.85282897949219 69.85281372070312 90.00003051757812 44.99999618530273 90.00003051757812 C 20.14717864990234 90.00003051757812 -7.62939453125e-06 69.85282897949219 -7.62939453125e-06 45.00001525878906 C -7.62939453125e-06 20.14718627929688 20.14717864990234 0 44.99999618530273 0 Z" stroke="none" fill="#0b47db"/>
                        </g>
                      </g>
                    </g>
                  </g>
                </g>
              </g>
            </g>
          </g>
        </g>
      </g>
    </g>
    <g id="intimidad" transform="translate(609.804 505.873)">
      <g id="Grupo_1235576" data-name="Grupo 1235576" transform="translate(33.829 0.883)">
        <path id="Trazado_1226064" data-name="Trazado 1226064" d="M65.178,65.482l6.084-3.074a26.154,26.154,0,0,0,14.36-23.344l0-23a1.189,1.189,0,0,0-1.189-1.189h-.476a5.706,5.706,0,0,1-5.706-5.706V8.691A1.189,1.189,0,0,0,77.066,7.5H49.009A1.189,1.189,0,0,0,47.82,8.691v.476a5.706,5.706,0,0,1-5.706,5.706h-.476a1.189,1.189,0,0,0-1.189,1.189l0,23A26.154,26.154,0,0,0,54.8,62.408l6.084,3.074A4.756,4.756,0,0,0,65.178,65.482Z" transform="translate(-40.445 -7.502)" fill="#f7e365"/>
      </g>
      <g id="Grupo_1235577" data-name="Grupo 1235577" transform="translate(40.712 20.753)">
        <path id="Trazado_1226065" data-name="Trazado 1226065" d="M129.106,190.3c-8.506,10.148-20.01,15.626-30.172,15.42a26.123,26.123,0,0,0,7.477,5.662l6.084,3.074a4.755,4.755,0,0,0,4.289,0l6.084-3.074a26.154,26.154,0,0,0,14.36-23.344l0-11.692A46.525,46.525,0,0,1,129.106,190.3Z" transform="translate(-98.934 -176.346)" fill="#f3d332"/>
      </g>
      <g id="Grupo_1235578" data-name="Grupo 1235578" transform="translate(37.634 4.687)">
        <path id="Trazado_1226066" data-name="Trazado 1226066" d="M85.043,87.533A22.35,22.35,0,0,1,72.772,67.585l0-20.63A9.543,9.543,0,0,0,79.9,39.827h23.311a9.543,9.543,0,0,0,7.128,7.128l0,20.63A22.35,22.35,0,0,1,98.068,87.533l-5.977,3.02a1.189,1.189,0,0,1-1.072,0Z" transform="translate(-72.772 -39.827)" fill="#e69642"/>
      </g>
      <g id="Grupo_1235579" data-name="Grupo 1235579" transform="translate(45.86 28.677)">
        <path id="Trazado_1226067" data-name="Trazado 1226067" d="M167.7,249.714c-7.095,8.465-16.276,13.679-25.024,15.057a22.342,22.342,0,0,0,4.044,2.629l5.977,3.02a1.188,1.188,0,0,0,1.072,0l5.977-3.02a22.35,22.35,0,0,0,12.271-19.948v-3.768A48.371,48.371,0,0,1,167.7,249.714Z" transform="translate(-142.678 -243.684)" fill="#e38523"/>
      </g>
      <g id="Grupo_1235586" data-name="Grupo 1235586" transform="translate(42.156 15.848)">
        <g id="Grupo_1235580" data-name="Grupo 1235580" transform="translate(0)">
          <circle id="Elipse_14130" data-name="Elipse 14130" cx="14.266" cy="14.266" r="14.266" fill="#edf6ff"/>
        </g>
        <g id="Grupo_1235581" data-name="Grupo 1235581" transform="translate(3.192 3.192)">
          <path id="Trazado_1226068" data-name="Trazado 1226068" d="M158.393,161.793a14.266,14.266,0,0,1-20.067,20.067,14.266,14.266,0,1,0,20.067-20.067Z" transform="translate(-138.326 -161.793)" fill="#ddebfd"/>
        </g>
        <g id="Grupo_1235585" data-name="Grupo 1235585" transform="translate(6.657 3.804)">
          <g id="Grupo_1235582" data-name="Grupo 1235582" transform="translate(2.853)">
            <circle id="Elipse_14131" data-name="Elipse 14131" cx="4.755" cy="4.755" r="4.755" fill="#fed2a4"/>
          </g>
          <g id="Grupo_1235583" data-name="Grupo 1235583" transform="translate(3.332 0.479)">
            <path id="Trazado_1226069" data-name="Trazado 1226069" d="M202.438,171.061a4.754,4.754,0,0,1-6.354,6.354,4.755,4.755,0,1,0,6.354-6.354Z" transform="translate(-196.084 -171.061)" fill="#ffbd86"/>
          </g>
          <g id="Grupo_1235584" data-name="Grupo 1235584" transform="translate(0 9.511)">
            <path id="Trazado_1226070" data-name="Trazado 1226070" d="M182.989,255.9H167.772v-3.329a4.755,4.755,0,0,1,4.755-4.755h5.706a4.755,4.755,0,0,1,4.755,4.755Z" transform="translate(-167.772 -247.811)" fill="#e175a5"/>
          </g>
        </g>
      </g>
      <g id="Grupo_1235592" data-name="Grupo 1235592" transform="translate(63.404 37.11)">
        <g id="Grupo_1235589" data-name="Grupo 1235589">
          <g id="Grupo_1235587" data-name="Grupo 1235587">
            <circle id="Elipse_14132" data-name="Elipse 14132" cx="10.581" cy="10.581" r="10.581" fill="#a2f5c3"/>
          </g>
          <g id="Grupo_1235588" data-name="Grupo 1235588" transform="translate(2.131 2.131)">
            <path id="Trazado_1226071" data-name="Trazado 1226071" d="M324.686,333.456a10.581,10.581,0,0,1-14.818,14.818,10.581,10.581,0,1,0,14.818-14.818Z" transform="translate(-309.868 -333.456)" fill="#88f2a9"/>
          </g>
        </g>
        <g id="Grupo_1235591" data-name="Grupo 1235591" transform="translate(4.874 4.874)">
          <g id="Grupo_1235590" data-name="Grupo 1235590">
            <circle id="Elipse_14133" data-name="Elipse 14133" cx="5.706" cy="5.706" r="5.706" fill="#77d192"/>
          </g>
        </g>
      </g>
      <g id="Grupo_1235593" data-name="Grupo 1235593" transform="translate(32.947 0)">
        <path id="Trazado_1226072" data-name="Trazado 1226072" d="M172.746,169.118a5.638,5.638,0,1,0-7.966,0,5.648,5.648,0,0,0-4.508,5.524v3.329a.883.883,0,0,0,.883.883h15.217a.883.883,0,0,0,.883-.883v-3.329A5.648,5.648,0,0,0,172.746,169.118Zm-3.983-7.859a3.873,3.873,0,1,1-3.873,3.873A3.877,3.877,0,0,1,168.763,161.258Zm6.726,15.829H173.45v-1.257a.883.883,0,1,0-1.765,0v1.257h-5.843v-1.257a.883.883,0,1,0-1.765,0v1.257h-2.039v-2.446a3.877,3.877,0,0,1,3.873-3.873h5.706a3.877,3.877,0,0,1,3.873,3.873v2.446Z" transform="translate(-145.288 -140.724)"/>
        <path id="Trazado_1226073" data-name="Trazado 1226073" d="M83.68,47.536a.883.883,0,0,0,.882.869h.014a.883.883,0,0,0,.869-.9,11.489,11.489,0,0,0-6.05-9.928,27.06,27.06,0,0,0,.493-5.135l0-14.731a.883.883,0,0,0-.882-.883h0a.883.883,0,0,0-.883.882l0,14.731a25.294,25.294,0,0,1-.39,4.408,11.39,11.39,0,0,0-1.984-.49,23.23,23.23,0,0,0,.334-3.917l0-20.631a.883.883,0,0,0-.684-.86,8.679,8.679,0,0,1-6.467-6.466.883.883,0,0,0-.86-.684H44.767a.883.883,0,0,0-.86.684,8.679,8.679,0,0,1-6.467,6.466.883.883,0,0,0-.684.86l0,16.24a.883.883,0,0,0,.882.883h0a.883.883,0,0,0,.883-.882l0-15.563A10.473,10.473,0,0,0,45.443,5.57H67.4a10.474,10.474,0,0,0,6.923,6.921l0,19.954a21.453,21.453,0,0,1-.337,3.783,11.407,11.407,0,0,0-4.053.742,15.155,15.155,0,1,0-6.662,6.656A11.464,11.464,0,0,0,63.1,51.3q-.287.156-.574.3l-5.979,3.022a.3.3,0,0,1-.273,0L50.3,51.6A21.461,21.461,0,0,1,38.516,32.445v-.272a.883.883,0,1,0-1.765,0v.272A23.227,23.227,0,0,0,49.507,53.18L55.481,56.2a2.068,2.068,0,0,0,1.871,0l5.975-3.02c.155-.078.311-.16.467-.243a11.494,11.494,0,0,0,1.1,1.726c-.214.116-.429.229-.645.338l-6.083,3.074a3.9,3.9,0,0,1-3.494,0L48.587,55A25.272,25.272,0,0,1,34.712,32.445l0-23a.306.306,0,0,1,.306-.306H35.5a6.6,6.6,0,0,0,6.589-6.589V2.071a.306.306,0,0,1,.306-.306H70.451a.306.306,0,0,1,.306.306v.475a6.6,6.6,0,0,0,6.589,6.589h.475a.306.306,0,0,1,.306.306v4.153a.883.883,0,0,0,.882.883h0a.883.883,0,0,0,.883-.882V9.442A2.074,2.074,0,0,0,77.821,7.37h-.475a4.83,4.83,0,0,1-4.824-4.824V2.071A2.073,2.073,0,0,0,70.451,0H42.394a2.074,2.074,0,0,0-2.071,2.071v.475A4.83,4.83,0,0,1,35.5,7.371h-.475a2.074,2.074,0,0,0-2.071,2.071l0,23A27.038,27.038,0,0,0,47.791,56.577l6.084,3.074a5.67,5.67,0,0,0,5.085,0l6.083-3.074c.356-.179.711-.37,1.063-.568a11.462,11.462,0,0,0,18.553-4.129.883.883,0,0,0-1.643-.645,9.716,9.716,0,1,1,.665-3.7ZM43.039,30.114A13.383,13.383,0,1,1,56.422,43.5,13.4,13.4,0,0,1,43.039,30.114Z" transform="translate(-32.947 0)"/>
        <path id="Trazado_1226074" data-name="Trazado 1226074" d="M362.539,390.288a.883.883,0,0,0-1.248,1.248l1.03,1.03a.883.883,0,0,0,1.248,0l2.061-2.061a.883.883,0,0,0-1.248-1.248l-1.437,1.437Z" transform="translate(-322.423 -343.221)"/>
        <path id="Trazado_1226075" data-name="Trazado 1226075" d="M325.675,355.853a6.589,6.589,0,1,0,6.589-6.589A6.6,6.6,0,0,0,325.675,355.853Zm11.413,0a4.824,4.824,0,1,1-4.824-4.824A4.829,4.829,0,0,1,337.088,355.853Z" transform="translate(-291.226 -308.162)"/>
      </g>
    </g>
  </g>
</svg>
